<?xml version="1.0" standalone="no"?><!DOCTYPE svg PUBLIC "-//W3C//DTD SVG 1.1//EN" "http://www.w3.org/Graphics/SVG/1.1/DTD/svg11.dtd"><svg class="icon" width="32px" height="32.00px" viewBox="0 0 1024 1024" version="1.1" xmlns="http://www.w3.org/2000/svg"><path d="M921.215141 316.477852a455.948027 455.948027 0 0 0-101.56843-137.442792c-76.93745-45.963168-167.571758-71.013369-263.807141-67.50153C312.649879 120.392161 117.684403 308.30647 94.15302 543.85396c58.093101 39.654228 121.175624 71.233289 189.900457 93.190872V584.161074h453.583892v52.904376c65.288591-20.713664 125.656483-50.01106 181.089933-86.552054 10.013208-38.650846 15.634899-79.191624 15.634899-120.976322 0-38.953235-4.398389-76.8-13.140188-113.052349zM341.892295 453.57702a54.979866 54.979866 0 1 1 0.006873-109.959731 54.979866 54.979866 0 0 1 0 109.959731z m340.18792 0a54.979866 54.979866 0 1 1 0.006872-109.959731 54.979866 54.979866 0 0 1 0 109.959731z" fill="#FFCE00" /><path d="M921.215141 316.477852a481.761074 481.761074 0 0 1 13.428832 113.045477c0 41.784698-5.333047 82.332349-15.346255 120.983194a741.747114 741.747114 0 0 0 46.203705-33.056644c0.020617-1.814336 0.068725-3.635544 0.068725-5.456751a450.876134 450.876134 0 0 0-44.348135-195.522148z" fill="#FFB100" /><path d="M555.846443 111.53353c96.235383-3.511839 186.862819 21.538362 263.807141 67.50153C738.743839 104.214336 630.61906 58.416107 511.993128 58.416107 261.889718 58.416107 58.416107 261.889718 58.416107 511.993128c0 1.828081 0.048107 3.642416 0.068725 5.463624a744.269315 744.269315 0 0 0 36.245477 26.410953c23.52451-235.554362 217.926443-423.475544 461.116134-432.341047z" fill="#FFE454" /><path d="M511.993128 3.436242C231.575195 3.436242 3.436242 231.575195 3.436242 511.993128s228.138953 508.556886 508.556886 508.556885 508.556886-228.138953 508.556885-508.556885S792.417933 3.436242 511.993128 3.436242z m-0.068725 807.791677c-64.690685 0-117.052134-52.526389-117.052135-117.113986H628.969664c0 64.587597-52.368322 117.113987-117.045261 117.113986z m406.796027-260.721396c-55.426577 36.540993-115.79447 65.838389-181.083061 86.545182v-52.897504h-453.583892v52.897504c-68.724832-21.957584-131.807356-53.536644-189.900457-93.190873-12.356725-8.432537-24.143034-17.256805-35.94996-26.410953-0.02749-1.821208 0.068725-3.635544 0.068725-5.456751C58.271785 261.889718 261.814121 58.416107 511.924403 58.416107c118.625933 0 226.778201 45.798228 307.687946 120.618953a456.003007 456.003007 0 0 1 101.589047 137.442792 450.834899 450.834899 0 0 1 44.361879 195.515276c0 1.828081-0.329879 3.642416-0.350496 5.456751a748.915114 748.915114 0 0 1-46.485477 33.056644z" fill="#000000" /><path d="M341.892295 398.597154m-54.979865 0a54.979866 54.979866 0 1 0 109.959731 0 54.979866 54.979866 0 1 0-109.959731 0Z" fill="#000000" /><path d="M682.087087 398.597154m-54.979866 0a54.979866 54.979866 0 1 0 109.959732 0 54.979866 54.979866 0 1 0-109.959732 0Z" fill="#000000" /><path d="M394.872268 694.113933c0 64.587597 52.36145 117.113987 117.052135 117.113986 64.67694 0 117.038389-52.526389 117.038389-117.113986H628.832215 394.872268z" fill="#FFFFFF" /></svg>