<?xml version="1.0" standalone="no"?><!DOCTYPE svg PUBLIC "-//W3C//DTD SVG 1.1//EN" "http://www.w3.org/Graphics/SVG/1.1/DTD/svg11.dtd"><svg class="icon" width="32px" height="32.00px" viewBox="0 0 1024 1024" version="1.1" xmlns="http://www.w3.org/2000/svg"><path d="M919.49702 316.477852a455.948027 455.948027 0 0 0-101.568429-137.442792c-76.93745-45.963168-167.571758-71.013369-263.800269-67.508402-251.093047 9.154148-450.175141 208.030067-462.861745 455.439463h821.701584c12.961503-44.671141 19.964564-89.679034 19.964564-137.449665a481.898523 481.898523 0 0 0-13.428832-113.038604z m-529.456107 137.099168c0-30.926174-24.046819-53.598497-53.598497-53.598497-29.551678 0-53.591624 22.66545-53.591624 53.598497h-54.979866c0-61.852349 48.705289-108.578362 108.57149-108.578362 59.873074 0 108.578362 46.719141 108.578363 108.578362h-54.979866z m347.658308 0c0-30.926174-24.046819-53.598497-53.598496-53.598497-29.551678 0-53.598497 22.66545-53.598497 53.598497h-54.979866c0-61.852349 48.712161-108.578362 108.578363-108.578362 59.873074 0 108.578362 46.719141 108.578362 108.578362h-54.979866z" fill="#FFCE00" /><path d="M919.49702 316.477852a481.733584 481.733584 0 0 1 13.428832 113.045477c0 47.763758-6.996188 92.778523-19.957691 137.449664h47.543839c2.192322-17.181208 3.340027-36.369181 3.340027-54.979865 0-69.968752-15.937289-136.281342-44.348134-195.522148z" fill="#FFB100" /><path d="M554.128322 111.526658c96.235383-3.504966 186.862819 21.545235 263.807141 67.508402C737.025718 104.214336 628.90094 58.416107 510.275007 58.416107 260.171597 58.416107 56.697987 261.889718 56.697987 511.993128c0 18.610685 1.154577 37.798658 3.340026 54.979865h31.221692c12.700349-247.409396 211.77557-446.292188 462.868617-455.446335z" fill="#FFE454" /><path d="M510.275007 3.436242C229.857074 3.436242 1.718121 231.575195 1.718121 511.993128s228.138953 508.556886 508.556886 508.556885 508.556886-228.138953 508.556886-508.556885S790.69294 3.436242 510.275007 3.436242z m-0.391732 794.046711c-75.679785 0-139.710711-49.103893-162.70604-117.113987h325.391463c-22.988456 68.016966-87.019383 117.113987-162.685423 117.113987z m403.084886-230.50996H60.038013a445.501852 445.501852 0 0 1-3.340026-54.979865C56.697987 261.889718 260.171597 58.416107 510.275007 58.416107c118.625933 0 226.750711 45.798228 307.660456 120.618953a455.948027 455.948027 0 0 1 101.561557 137.442792 450.828027 450.828027 0 0 1 44.355007 195.515276c0 18.610685-1.147705 37.798658-3.340027 54.979865h-47.543839z" fill="#000000" /><path d="M336.442416 344.998658c-59.873074 0-108.57149 46.719141-108.57149 108.578362h54.979866c0-30.926174 24.039946-53.598497 53.591624-53.598497s53.598497 22.66545 53.598497 53.598497h54.979866c0-61.852349-48.712161-108.578362-108.578363-108.578362zM684.100725 344.998658c-59.873074 0-108.578362 46.719141-108.578363 108.578362h54.979866c0-30.926174 24.046819-53.598497 53.598497-53.598497 29.551678 0 53.598497 22.66545 53.598496 53.598497h54.979866c0-61.852349-48.705289-108.578362-108.578362-108.578362z" fill="#000000" /><path d="M347.177235 680.368966c22.988456 68.016966 87.019383 117.113987 162.70604 117.113987 75.66604 0 139.696966-49.103893 162.692295-117.113987H347.177235z" fill="#FFFFFF" /></svg>