<?xml version="1.0" standalone="no"?><!DOCTYPE svg PUBLIC "-//W3C//DTD SVG 1.1//EN" "http://www.w3.org/Graphics/SVG/1.1/DTD/svg11.dtd"><svg class="icon" width="32px" height="32.00px" viewBox="0 0 1024 1024" version="1.1" xmlns="http://www.w3.org/2000/svg"><path d="M313.268403 515.140725c47.365154 0 85.899168-38.403436 85.899167-85.610524v-58.429852h-171.81208v57.852564c0 47.530094 38.540886 86.187812 85.90604 86.187812zM312.684242 384.85906a54.979866 54.979866 0 1 1-0.006873 109.959732 54.979866 54.979866 0 0 1 0-109.959732zM557.564564 111.53353c-156.520805 5.704161-292.815893 85.589906-376.378416 204.593826h741.589047a456.057987 456.057987 0 0 0-101.40349-137.099168c-76.944322-45.956295-167.571758-71.006497-263.807141-67.50153z" fill="#FFCE00" /><path d="M932.795275 371.100349h-80.043812V429.530201c0 77.521611-63.199356 140.590389-140.885906 140.59039-77.679678 0-140.885906-63.32306-140.885906-141.167678v-57.845692h-116.832215v58.416108c0 77.535356-63.199356 140.597262-140.885906 140.597262-77.679678 0-140.885906-63.32306-140.885906-141.167678v-57.845692h-24.555382a477.988081 477.988081 0 0 0-52.856269 190.7389c42.423839 56.464322 109.994094 93.252725 186.148081 93.252725 85.87855 0 160.843597-46.890953 201.130094-115.615786h62.910711c40.293369 68.724832 115.258416 115.615785 201.136967 115.615786 63.659812 0 121.333691-25.70996 163.324563-67.123544a480.256 480.256 0 0 0 26.740832-158.451973 483.506685 483.506685 0 0 0-3.559946-58.416108z" fill="#FFCE00" /><path d="M711.865557 515.140725c47.372027 0 85.90604-38.403436 85.90604-85.610524v-58.429852h-171.81208v57.852564c0 47.530094 38.540886 86.187812 85.90604 86.187812z m2.865826-130.288537a54.979866 54.979866 0 1 1-0.006873 109.959731 54.979866 54.979866 0 0 1 0-109.959731z" fill="#FFCE00" /><path d="M932.795275 371.100349c2.322899 19.160483 3.566819 38.643973 3.566819 58.42298a480.256 480.256 0 0 1-26.740832 158.451973 232.716027 232.716027 0 0 0 57.357745-91.795758 451.151034 451.151034 0 0 0-22.122524-125.079195h-12.061208z" fill="#FFB100" /><path d="M104.647302 316.120483H181.179275c83.562523-118.997047 219.864483-198.889664 376.378416-204.593825 96.235383-3.504966 186.869691 21.545235 263.807141 67.50153C740.46196 104.221208 632.337181 58.416107 513.711248 58.416107 333.71404 58.416107 177.880483 163.805638 104.647302 316.120483zM82.566013 371.100349a451.041074 451.041074 0 0 0-22.129396 125.12043 231.650792 231.650792 0 0 0 34.527356 65.625342 477.933101 477.933101 0 0 1 52.856269-190.745772h-65.254229z" fill="#FFE454" /><path d="M513.711248 3.436242C233.293315 3.436242 5.154362 231.575195 5.154362 511.993128s228.138953 508.556886 508.556886 508.556885 508.556886-228.138953 508.556886-508.556885S794.129181 3.436242 513.711248 3.436242z m0 848.744805c-71.48757 0-129.436349-51.543624-129.436349-113.395973h258.865826c0 61.852349-57.948779 113.395973-129.429477 113.395973z m395.910014-264.205745c-41.997745 41.406711-99.664752 67.116671-163.324564 67.116671C660.418148 655.098846 585.453101 608.214765 545.166604 539.489933H482.242148c-40.286497 68.724832-115.251544 115.615785-201.130094 115.615785-76.153987 0-143.724242-36.795275-186.148081-93.259597a231.692027 231.692027 0 0 1-34.527356-65.625342 451.164779 451.164779 0 0 1 22.122524-125.113558h89.809611v57.852564c0 77.837745 63.206228 141.167678 140.892778 141.167678 77.679678 0 140.885906-63.068779 140.885906-140.597262v-58.42298h116.832215v57.852564c0 77.837745 63.199356 141.167678 140.885906 141.167678 77.679678 0 140.885906-63.068779 140.885906-140.597262v-58.42298H944.856483a451.281611 451.281611 0 0 1 22.129396 125.079195 232.798497 232.798497 0 0 1-57.37149 91.795758z m13.153933-271.854819H104.647302C177.873611 163.819383 333.71404 58.416107 513.711248 58.416107c118.625933 0 226.750711 45.798228 307.660457 120.618953a456.009879 456.009879 0 0 1 101.40349 137.092296z m-296.815678 54.979866h171.81208V429.530201c0 47.200215-38.534013 85.610523-85.90604 85.610524-47.365154 0-85.90604-38.657718-85.90604-86.187812v-57.845692z m-398.604027 0h171.81208V429.530201c0 47.200215-38.540886 85.610523-85.90604 85.610524s-85.90604-38.657718-85.90604-86.187812v-57.845692z" fill="#000000" /><path d="M513.711248 852.181047c71.480698 0 129.429477-51.543624 129.429477-113.395973H384.274899c0 61.852349 57.941906 113.395973 129.436349 113.395973z" fill="#FFFFFF" /><path d="M312.684242 439.832054m-54.979866 0a54.979866 54.979866 0 1 0 109.959731 0 54.979866 54.979866 0 1 0-109.959731 0Z" fill="#000000" /><path d="M714.731383 439.832054m-54.979866 0a54.979866 54.979866 0 1 0 109.959731 0 54.979866 54.979866 0 1 0-109.959731 0Z" fill="#000000" /></svg>