<?xml version="1.0" standalone="no"?><!DOCTYPE svg PUBLIC "-//W3C//DTD SVG 1.1//EN" "http://www.w3.org/Graphics/SVG/1.1/DTD/svg11.dtd"><svg class="icon" width="32px" height="31.81px" viewBox="0 0 1030 1024" version="1.1" xmlns="http://www.w3.org/2000/svg"><path d="M604.243027 889.973622v-182.361946a154.88 154.88 0 0 0-57.945946-25.406271c-42.724324-8.932324-87.351351 0.947892-121.945946 25.53773v204.516324c10.378378 0.657297 20.680649 1.024 31.135135 1.024 51.90573 0 103.783784-8.192 148.756757-23.309837z" fill="#FFCE00" /><path d="M940.384865 428.966054c0-39.209514-4.428108-77.312-13.228973-113.816216a458.613622 458.613622 0 0 0-102.109406-138.364541c-77.464216-46.27373-168.634811-71.493189-265.520432-67.957621-267.298595 9.741838-476.056216 234.336865-466.314378 501.635459a485.099243 485.099243 0 0 0 17.615567 113.034379c21.808432 41.548108 49.241946 79.353081 82.238271 112.155675 19.829622 12.855351 41.02227 24.306162 61.779027 34.193297V456.648649h-20.756757v-55.351352H448.567351v55.351352h-24.216216V644.012973c41.513514-19.26227 87.766486-25.503135 133.279135-15.989622 16.19027 3.39027 32.774919 8.710919 46.612757 15.705946v-187.087567h-24.216216v-55.351352h214.493405v55.351352h-20.756757v337.366486c103.776865-88.783568 166.621405-219.398919 166.621406-365.042162z" fill="#FFCE00" /><path d="M927.439568 315.149838c8.800865 36.504216 12.945297 74.606703 12.945297 113.816216 0 145.643243-62.837622 276.258595-166.621406 365.042162v93.536865c121.081081-82.501189 197.756541-220.056216 197.756541-375.552 0-70.441514-15.470703-137.202162-44.073514-196.843243zM254.837622 887.545081v-17.691676c-20.756757-9.894054-42.516757-21.344865-62.33946-34.200216 19.172324 19.068541 41.582703 36.435027 62.33946 51.891892zM604.243027 959.723243v-69.749621c-44.972973 15.117838-96.851027 23.309838-148.756757 23.309837-10.454486 0-20.756757-0.366703-31.135135-1.024v47.463784c31.135135 5.832649 59.163676 8.911568 89.945946 8.911568 30.789189 0 62.27027-3.078919 89.945946-8.911568z" fill="#FFB100" /><path d="M559.602162 108.827676c96.885622-3.535568 188.125405 21.683892 265.589622 67.957621C743.735351 101.459027 634.88 55.351351 515.452541 55.351351 263.659243 55.351351 58.810811 260.199784 58.810811 511.993081a453.784216 453.784216 0 0 0 52.037189 211.504433 485.085405 485.085405 0 0 1-17.60173-113.034379C83.511351 343.164541 292.296649 118.576432 559.602162 108.834595z" fill="#FFE454" /><path d="M368.999784 456.64173h-58.810811v463.754378c20.756757 9.478919 38.054054 17.712432 58.810811 24.534487V456.64173zM718.405189 456.64173h-58.810811v488.281946c20.756757-6.822054 41.513514-15.04173 58.810811-24.527568V456.634811z" fill="#28E0FF" /><path d="M515.452541 0C233.139892 0 3.459459 229.680432 3.459459 511.993081s229.680432 511.993081 511.993082 511.993081 511.993081-229.680432 511.993081-511.993081S797.765189 0 515.452541 0zM310.188973 920.396108V456.634811h58.810811v488.288865c-20.756757-6.822054-38.054054-15.04173-58.810811-24.527568z m114.162162-8.136649v-204.516324c34.594595-24.589838 79.221622-34.470054 121.945946-25.53773a154.88 154.88 0 0 1 57.945946 25.406271v252.104648c-27.675676 5.839568-59.163676 8.918486-89.945946 8.918487-30.775351 0-58.810811-3.078919-89.945946-8.911568v-47.463784z m235.243243 32.671136V456.64173h58.810811v463.761297c-17.297297 9.478919-38.054054 17.705514-58.810811 24.527568z m114.162163-57.385514V456.64173h20.756756v-55.351352h-214.486486v55.351352h24.216216v187.087567c-13.837838-6.988108-30.422486-12.315676-46.612757-15.705946-45.512649-9.513514-91.765622-3.26573-133.279135 15.989622V456.648649h24.216216v-55.351352h-214.486486v55.351352h20.756757v430.896432c-20.756757-15.449946-42.585946-32.809514-61.772108-51.884973-32.982486-32.802595-60.699676-70.607568-82.508109-112.155676-33.210811-63.266595-51.891892-135.223351-51.891891-211.504432C58.672432 260.199784 263.583135 55.351351 515.39027 55.351351c119.427459 0 228.310486 46.107676 309.766919 121.433946a459.111784 459.111784 0 0 1 102.27546 138.364541c28.60973 59.641081 44.080432 126.40173 44.080432 196.843243 0 155.488865-76.668541 293.050811-197.749622 375.552z" fill="#000000" /></svg>