<?xml version="1.0" standalone="no"?><!DOCTYPE svg PUBLIC "-//W3C//DTD SVG 1.1//EN" "http://www.w3.org/Graphics/SVG/1.1/DTD/svg11.dtd"><svg class="icon" width="32px" height="31.81px" viewBox="0 0 1030 1024" version="1.1" xmlns="http://www.w3.org/2000/svg"><path d="M940.959135 428.966054c0-39.209514-4.711784-77.312-13.512649-113.816216a459.056432 459.056432 0 0 0-102.261621-138.364541c-77.457297-46.27373-168.704-71.493189-265.582703-67.957621-267.305514 9.741838-476.090811 234.336865-466.355892 501.635459a484.905514 484.905514 0 0 0 17.60173 113.034379 459.028757 459.028757 0 0 0 82.798703 112.155675c75.734486 49.082811 166.019459 77.63027 262.995027 77.63027 267.478486 0 484.317405-216.838919 484.317405-484.317405z m-254.27027-86.486486a55.351351 55.351351 0 1 1 0 110.702702 55.351351 55.351351 0 0 1 0-110.702702z m-342.486487 0a55.351351 55.351351 0 1 1 0 110.702702 55.351351 55.351351 0 0 1 0-110.702702z m0.006919 515.113513c-77.754811 0-141.007568-63.252757-141.007567-141.007567 0-32.96173 20.576865-74.170811 62.913729-125.979676 29.107892-35.632432 57.849081-62.962162 59.052973-64.110703l19.040865-18.04454 19.040865 18.051459c1.210811 1.141622 29.945081 28.471351 59.052973 64.103784 14.924108 18.272865 27.094486 35.196541 36.663351 50.937081a316.595892 316.595892 0 0 1 121.918271 1.369946c73.555027 15.387676 139.603027 56.707459 185.966702 116.34854l-43.699891 33.971892c-38.316973-49.297297-92.872649-83.435243-153.6-96.138378a260.794811 260.794811 0 0 0-87.323676-3.20346c1.951135 7.956757 2.982054 15.532973 2.982054 22.694055 0 77.747892-63.252757 141.007568-141.000649 141.007567z" fill="#FFCE00" /><path d="M927.439568 315.149838a485.071568 485.071568 0 0 1 13.519567 113.816216c0 267.478486-216.838919 484.317405-484.317405 484.317405-96.975568 0-187.260541-28.540541-262.995027-77.63027 82.611892 82.141405 196.379676 132.981622 321.805838 132.981622 251.793297 0 456.64173-204.848432 456.641729-456.64173a453.95027 453.95027 0 0 0-44.647784-196.843243z" fill="#FFB100" /><path d="M559.602162 108.827676c96.885622-3.535568 188.125405 21.683892 265.589622 67.957621C743.735351 101.459027 634.88 55.351351 515.452541 55.351351 263.659243 55.351351 58.810811 260.199784 58.810811 511.993081a453.784216 453.784216 0 0 0 52.037189 211.504433 484.905514 484.905514 0 0 1-17.60173-113.034379C83.511351 343.164541 292.296649 118.576432 559.602162 108.834595z" fill="#FFE454" /><path d="M515.452541 0C233.139892 0 3.459459 229.680432 3.459459 511.993081s229.680432 511.993081 511.993082 511.993081 511.993081-229.680432 511.993081-511.993081S797.772108 0 515.452541 0z m0 968.634811c-125.426162 0-239.193946-50.840216-321.805838-132.981622a459.118703 459.118703 0 0 1-82.798703-112.155675A453.784216 453.784216 0 0 1 58.810811 511.993081C58.810811 260.199784 263.659243 55.351351 515.452541 55.351351c119.427459 0 228.282811 46.107676 309.739243 121.433946a459.056432 459.056432 0 0 1 102.247784 138.364541 453.901838 453.901838 0 0 1 44.654702 196.843243c0 251.793297-204.848432 456.64173-456.641729 456.64173z" fill="#000000" /><path d="M344.202378 397.830919m-55.351351 0a55.351351 55.351351 0 1 0 110.702703 0 55.351351 55.351351 0 1 0-110.702703 0Z" fill="#000000" /><path d="M686.695784 397.830919m-55.351352 0a55.351351 55.351351 0 1 0 110.702703 0 55.351351 55.351351 0 1 0-110.702703 0Z" fill="#000000" /><path d="M344.216216 585.658811C303.878919 627.77427 258.56 686.585081 258.56 716.592432c0 47.228541 38.420757 85.656216 85.656216 85.656217 47.221622 0 85.649297-38.427676 85.649298-85.656217 0-30.076541-45.305081-88.859676-85.63546-130.933621z" fill="#28E0FF" /><path d="M482.227892 693.891459a260.794811 260.794811 0 0 1 87.323676 3.210379c60.73427 12.696216 115.283027 46.841081 153.6 96.131459l43.699891-33.971892c-46.363676-59.641081-112.411676-100.953946-185.966702-116.341621a316.526703 316.526703 0 0 0-121.918271-1.369946c-9.568865-15.740541-21.732324-32.664216-36.663351-50.937081-29.114811-35.632432-57.849081-62.962162-59.052973-64.110703l-19.040865-18.051459-19.040865 18.051459c-1.210811 1.141622-29.945081 28.471351-59.052973 64.110703-42.336865 51.808865-62.91373 93.017946-62.913729 125.979675 0 77.747892 63.252757 141.007568 141.007567 141.007568 77.747892 0 141.000649-63.259676 141.000649-141.007568 0-7.161081-1.037838-14.737297-2.982054-22.700973z m-138.018595 108.350271c-47.228541 0-85.656216-38.420757-85.656216-85.656216 0-30.007351 45.318919-88.818162 85.670054-130.933622 40.330378 42.073946 85.635459 100.857081 85.63546 130.933622 0 47.228541-38.420757 85.656216-85.649298 85.656216z" fill="#000000" /></svg>