<?xml version="1.0" standalone="no"?><!DOCTYPE svg PUBLIC "-//W3C//DTD SVG 1.1//EN" "http://www.w3.org/Graphics/SVG/1.1/DTD/svg11.dtd"><svg class="icon" width="32px" height="31.81px" viewBox="0 0 1030 1024" version="1.1" xmlns="http://www.w3.org/2000/svg"><path d="M663.157622 867.272649c-55.794162-7.444757-99.563243-55.316757-99.563244-113.124325v-41.513513h-325.189189v-55.351352h553.513514v96.864865c0 9.354378-0.57427 18.432-2.712217 27.142919 93.606054-88.306162 152.326919-213.490162 152.326919-352.325189a485.016216 485.016216 0 0 0-13.37427-113.816216 458.835027 458.835027 0 0 0-102.185513-138.364541C748.516324 130.511568 657.311135 105.292108 560.432432 108.827676 293.126919 118.569514 84.355459 343.157622 94.097297 610.456216a485.092324 485.092324 0 0 0 17.608649 113.034379 459.132541 459.132541 0 0 0 82.805622 112.155675 480.954811 480.954811 0 0 0 262.711351 77.630271 481.072432 481.072432 0 0 0 205.934703-46.010811zM587.603027 348.575135l39.133405-39.147243 62.526271 62.519351 62.512432-62.519351 39.140324 39.147243-62.062702 62.055784 62.062702 62.062703-39.133405 39.140324-62.519351-62.519351-62.512433 62.519351-39.140324-39.140324 62.062703-62.062703-62.069622-62.055784z m-345.945946 0l39.140324-39.147243 62.512433 62.519351 62.52627-62.519351 39.133406 39.147243-62.062703 62.055784 62.062703 62.062703-39.140325 39.140324-62.512432-62.519351-62.519352 62.519351-39.140324-39.140324 62.062703-62.062703-62.062703-62.055784z" fill="#FFCE00" /><path d="M928.311351 315.149838a485.071568 485.071568 0 0 1 13.512649 113.816216c0 138.835027-58.437189 264.012108-152.036324 352.325189-12.218811 49.885405-57.28173 87.026162-110.875676 87.026162-5.154595 0-10.212324-0.373622-15.180108-1.044756-62.574703 29.495351-132.469622 46.010811-206.225297 46.01081-96.975568 0-187.260541-28.540541-262.995027-77.63027 82.611892 82.141405 196.379676 132.981622 321.805837 132.981622 251.793297 0 456.64173-204.848432 456.64173-456.64173a453.95027 453.95027 0 0 0-44.647784-196.843243z" fill="#FFB100" /><path d="M560.467027 108.827676c96.885622-3.535568 188.125405 21.683892 265.589622 67.957621C744.600216 101.459027 635.744865 55.351351 516.317405 55.351351 264.524108 55.351351 59.675676 260.199784 59.675676 511.993081a453.777297 453.777297 0 0 0 52.037189 211.504433 485.085405 485.085405 0 0 1-17.60173-113.034379C84.369297 343.164541 293.161514 118.576432 560.473946 108.834595z" fill="#FFE454" /><path d="M516.317405 0C234.004757 0 4.324324 229.680432 4.324324 511.993081s229.680432 511.993081 511.993081 511.993081 511.993081-229.680432 511.993081-511.993081S798.630054 0 516.317405 0z m0 968.634811c-125.426162 0-239.193946-50.840216-321.805837-132.981622a459.118703 459.118703 0 0 1-82.798703-112.155675 453.777297 453.777297 0 0 1-52.037189-211.504433C59.675676 260.199784 264.524108 55.351351 516.317405 55.351351c119.427459 0 228.282811 46.107676 309.739244 121.433946a459.056432 459.056432 0 0 1 102.247783 138.364541 453.901838 453.901838 0 0 1 44.654703 196.843243c0 251.793297-204.848432 456.64173-456.64173 456.64173z" fill="#000000" /><path d="M280.797405 511.840865l62.512433-62.52627 62.519351 62.52627 39.140325-39.140324-62.062703-62.069622 62.062703-62.055784-39.140325-39.147243-62.519351 62.519351-62.519352-62.519351-39.133405 39.147243 62.062703 62.055784-62.062703 62.062703zM626.743351 511.840865l62.512433-62.52627 62.519351 62.52627 39.140324-39.140324-62.062702-62.069622 62.062702-62.055784-39.133405-39.147243-62.52627 62.519351-62.519352-62.519351-39.133405 39.147243 62.062703 62.055784-62.062703 62.062703z" fill="#000000" /><path d="M677.756541 812.966054c32.428973 0 58.810811-26.381838 58.81081-58.810811v-41.513513h-117.621621v41.513513c0 32.428973 26.381838 58.810811 58.810811 58.810811z" fill="#E36600" /><path d="M791.918703 712.64173v-55.351352h-553.513514v55.351352h325.189189v41.513513c0 57.800649 43.769081 105.672649 99.563244 113.117406 4.967784 0.664216 10.316108 1.037838 15.463783 1.037837 53.600865 0 98.234811-37.133838 110.446703-87.019243 2.131027-8.710919 2.850595-17.788541 2.850595-27.136v-41.513513z m-172.972973 0h117.621621v41.513513c0 32.428973-26.381838 58.810811-58.81081 58.810811-32.428973 0-58.810811-26.381838-58.810811-58.810811v-41.513513z" fill="#000000" /></svg>