<?xml version="1.0" standalone="no"?><!DOCTYPE svg PUBLIC "-//W3C//DTD SVG 1.1//EN" "http://www.w3.org/Graphics/SVG/1.1/DTD/svg11.dtd"><svg class="icon" width="32px" height="31.81px" viewBox="0 0 1030 1024" version="1.1" xmlns="http://www.w3.org/2000/svg"><path d="M942.688865 428.966054c0-39.209514-4.711784-77.312-13.512649-113.816216a459.056432 459.056432 0 0 0-102.261621-138.364541c-77.457297-46.27373-168.704-71.493189-265.582703-67.957621-267.305514 9.741838-476.090811 234.336865-466.355892 501.635459a484.905514 484.905514 0 0 0 17.60173 113.034379 459.028757 459.028757 0 0 0 82.798702 112.155675c75.734486 49.082811 166.019459 77.63027 262.995027 77.63027 267.478486 0 484.317405-216.838919 484.317406-484.317405zM643.708541 249.399351l175.29081 75.914379-21.995243 50.791784-175.29773-75.914379 22.002163-50.791784z m-5.486703 200.32346c0 31.135135 24.209297 53.95373 53.960648 53.95373 29.751351 0 53.960649-22.818595 53.960649-53.95373h55.351351c0 58.810811-49.034378 109.305081-109.312 109.305081s-109.312-50.49427-109.312-109.305081h55.351352zM388.358919 249.399351l21.995243 50.791784-175.29773 75.914379-22.002162-50.791784L388.358919 249.399351zM232.870054 449.722811h55.351351c0 31.135135 24.202378 53.95373 53.95373 53.95373s53.960649-22.818595 53.960649-53.95373h55.351351c0 58.810811-49.041297 109.305081-109.312 109.305081-60.277622 0-109.305081-50.49427-109.305081-109.305081z m110.183784 238.702703h345.945946v55.351351h-345.945946v-55.351351z" fill="#FFCE00" /><path d="M929.169297 315.149838a485.071568 485.071568 0 0 1 13.519568 113.816216c0 267.478486-216.838919 484.317405-484.317406 484.317405-96.975568 0-187.260541-28.540541-262.995027-77.63027 82.611892 82.141405 196.379676 132.981622 321.805838 132.981622 251.793297 0 456.64173-204.848432 456.64173-456.64173a453.95027 453.95027 0 0 0-44.647784-196.843243z" fill="#FFB100" /><path d="M561.331892 108.827676c96.885622-3.535568 188.125405 21.683892 265.589622 67.957621C745.465081 101.459027 636.60973 55.351351 517.18227 55.351351 265.388973 55.351351 60.540541 260.199784 60.540541 511.993081a453.784216 453.784216 0 0 0 52.037189 211.504433 484.905514 484.905514 0 0 1-17.60173-113.034379C85.241081 343.164541 294.026378 118.576432 561.331892 108.834595z" fill="#FFE454" /><path d="M517.18227 0C234.869622 0 5.189189 229.680432 5.189189 511.993081s229.680432 511.993081 511.993081 511.993081 511.993081-229.680432 511.993081-511.993081S799.501838 0 517.18227 0z m0 968.634811c-125.426162 0-239.193946-50.840216-321.805838-132.981622a459.118703 459.118703 0 0 1-82.798702-112.155675A453.784216 453.784216 0 0 1 60.540541 511.993081C60.540541 260.199784 265.388973 55.351351 517.18227 55.351351c119.427459 0 228.282811 46.107676 309.739244 121.433946a459.056432 459.056432 0 0 1 102.247783 138.364541 453.901838 453.901838 0 0 1 44.654703 196.843243c0 251.793297-204.848432 456.64173-456.64173 456.64173z" fill="#000000" /><path d="M692.182486 559.027892c60.277622 0 109.312-50.49427 109.312-109.305081h-55.351351c0 31.135135-24.209297 53.95373-53.960649 53.95373-29.751351 0-53.960649-22.818595-53.960648-53.95373h-55.351352c0 58.810811 49.041297 109.305081 109.312 109.305081zM451.487135 449.722811h-55.351351c0 31.135135-24.209297 53.95373-53.960649 53.95373-29.751351 0-53.95373-22.818595-53.95373-53.95373h-55.351351c0 58.810811 49.034378 109.305081 109.305081 109.305081 60.277622 0 109.312-50.49427 109.312-109.305081zM343.053838 688.425514h345.945946v55.351351h-345.945946zM796.99027 376.112432L621.706378 300.198054l21.995244-50.784865 175.283892 75.914379zM235.077189 376.119351l-22.002162-50.784865L388.358919 249.385514l22.002162 50.791783z" fill="#000000" /></svg>