<?xml version="1.0" standalone="no"?><!DOCTYPE svg PUBLIC "-//W3C//DTD SVG 1.1//EN" "http://www.w3.org/Graphics/SVG/1.1/DTD/svg11.dtd"><svg class="icon" width="32px" height="31.81px" viewBox="0 0 1030 1024" version="1.1" xmlns="http://www.w3.org/2000/svg"><path d="M940.959135 428.966054c0-14.225297-0.671135-28.298378-1.875027-42.205405a140.177297 140.177297 0 0 1-79.415351 24.562162c-77.747892 0-141.007568-63.252757-141.007568-141.007568 0-31.501838 18.854054-70.566054 57.468541-119.192216-65.868108-29.723676-139.416216-45.111351-216.534487-42.295351-267.298595 9.741838-476.090811 234.336865-466.342054 501.635459a484.905514 484.905514 0 0 0 17.594811 113.034379 459.028757 459.028757 0 0 0 82.798703 112.155675c75.734486 49.082811 166.019459 77.63027 262.995027 77.63027 267.478486 0 484.317405-216.838919 484.317405-484.317405zM690.452757 347.32973c60.277622 0 109.312 47.034811 109.312 109.312h-55.351352c0-31.135135-24.209297-53.960649-53.960648-53.960649-29.751351 0-53.960649 22.818595-53.960649 53.960649h-55.351351c0-62.27027 49.041297-109.312 109.312-109.312z m-350.007352 0c60.277622 0 109.312 47.034811 109.312 109.312h-55.351351c0-31.135135-24.209297-53.960649-53.960649-53.960649-29.751351 0-53.95373 22.818595-53.953729 53.960649h-55.351352c0-62.27027 49.034378-109.312 109.305081-109.312zM230.801297 570.803892h569.295568c0 157.204757-127.439568 284.651243-284.644324 284.651243-157.211676 0-284.651243-127.446486-284.651244-284.651243z" fill="#FFCE00" /><path d="M951.724973 376.991135c-4.026811 3.480216-8.233514 6.752865-12.640865 9.762595 1.203892 13.913946 1.881946 27.987027 1.881946 42.212324 0 267.478486-216.838919 484.317405-484.324324 484.317405-96.968649 0-187.260541-28.540541-262.988108-77.63027 82.611892 82.141405 196.379676 132.981622 321.798919 132.981622 251.793297 0 456.648649-204.848432 456.648648-456.64173-0.006919-46.979459-7.140324-92.312216-20.376216-135.001946z" fill="#FFB100" /><path d="M559.602162 108.827676c77.111351-2.816 150.666378 12.571676 216.534487 42.30227 1.785081-2.255568 3.563243-4.497297 5.431351-6.794378l1.660541-1.992649C707.943784 87.655784 615.410162 55.351351 515.452541 55.351351 263.659243 55.351351 58.810811 260.199784 58.810811 511.993081a453.777297 453.777297 0 0 0 52.037189 211.504433 484.905514 484.905514 0 0 1-17.60173-113.034379C83.511351 343.164541 292.296649 118.576432 559.602162 108.834595z" fill="#FFE454" /><path d="M990.844541 321.930378a140.246486 140.246486 0 0 0 9.824864-51.615135c0-32.954811-20.576865-74.170811-62.90681-125.979675-29.114811-35.632432-57.849081-62.962162-59.052973-64.103784l-19.040865-18.044541-19.033946 18.037622a650.191568 650.191568 0 0 0-20.466162 20.583784C734.969081 37.500541 629.510919 0 515.459459 0 233.139892 0 3.459459 229.680432 3.459459 511.993081s229.680432 511.993081 511.993082 511.993081 511.993081-229.680432 511.993081-511.993081c0-67.127351-13.007568-131.26573-36.601081-190.062703z m-475.392 646.704433c-125.426162 0-239.193946-50.840216-321.805838-132.981622a459.118703 459.118703 0 0 1-82.798703-112.155675A453.777297 453.777297 0 0 1 58.810811 511.993081C58.810811 260.199784 263.659243 55.351351 515.452541 55.351351c99.957622 0 192.491243 32.311351 267.769081 86.991568l-1.653622 1.992649c-1.868108 2.290162-3.653189 4.538811-5.431351 6.794378-38.621405 48.626162-57.475459 87.690378-57.47546 119.185297 0 77.754811 63.252757 141.007568 141.007568 141.007568a140.177297 140.177297 0 0 0 92.056216-34.331676 455.237189 455.237189 0 0 1 20.369297 135.001946c0 251.793297-204.848432 456.64173-456.641729 456.64173zM945.318054 270.322162c0 47.221622-38.420757 85.656216-85.649297 85.656216s-85.656216-38.427676-85.656216-85.656216c0-30.007351 45.318919-88.818162 85.670054-130.933621 40.330378 42.067027 85.635459 100.850162 85.635459 130.926702z" fill="#000000" /><path d="M340.445405 402.681081c29.751351 0 53.960649 22.818595 53.960649 53.960649h55.351351c0-62.27027-49.041297-109.312-109.312-109.312-60.277622 0-109.305081 47.034811-109.305081 109.312h55.351352c0-31.135135 24.209297-53.960649 53.953729-53.960649zM690.452757 402.681081c29.751351 0 53.960649 22.818595 53.960648 53.960649h55.351352c0-62.27027-49.034378-109.312-109.312-109.312s-109.312 47.034811-109.312 109.312h55.351351c0-31.135135 24.209297-53.960649 53.960649-53.960649z" fill="#000000" /><path d="M774.012541 270.322162c0 47.221622 38.420757 85.656216 85.656216 85.656216 47.228541 0 85.649297-38.427676 85.649297-85.656216 0-30.076541-45.305081-88.859676-85.635459-130.933621-40.351135 42.115459-85.670054 100.92627-85.670054 130.926702z" fill="#28E0FF" /><path d="M515.168865 800.103784c107.360865 0 197.431351-74.163892 222.256432-173.948541H292.905514C317.716757 725.932973 407.801081 800.103784 515.168865 800.103784z" fill="#FFFFFF" /><path d="M800.103784 570.803892H230.801297c0 157.204757 127.439568 284.651243 284.651244 284.651243 157.211676 0 284.644324-127.446486 284.644324-284.651243z m-63.245838 55.351351h0.567351c-24.825081 99.784649-114.895568 173.948541-222.256432 173.948541-107.360865 0-197.43827-74.163892-222.263351-173.948541h443.952432z" fill="#000000" /></svg>