<?xml version="1.0" standalone="no"?><!DOCTYPE svg PUBLIC "-//W3C//DTD SVG 1.1//EN" "http://www.w3.org/Graphics/SVG/1.1/DTD/svg11.dtd"><svg class="icon" width="32px" height="31.81px" viewBox="0 0 1030 1024" version="1.1" xmlns="http://www.w3.org/2000/svg"><path d="M937.221154 426.533799c0-11.587007-0.446711-23.064054-1.250792-34.444886a139.325852 139.325852 0 0 1-52.00408 10.04757c-77.226094 0-140.061208-62.828242-140.061208-140.061208 0-28.067221 15.078228-62.182228 45.86008-103.767624-69.49455-34.561718-148.328805-52.787544-231.34153-49.763651-265.511517 9.669584-472.89557 232.764134-463.225986 498.268779a481.651114 481.651114 0 0 0 17.483597 112.275758 455.948027 455.948027 0 0 0 82.243007 111.402953c75.226201 48.753396 164.905235 77.109262 261.229959 77.109262 265.683329 0 481.066953-215.383624 481.066953-481.066953z m-307.543624 24.053691a54.979866 54.979866 0 0 1 109.959732 0c0 7.147383-1.401987 13.951141-3.882953 20.211973 51.303087 10.858523 89.809611 56.388725 89.80961 110.935624 0 62.635812-50.773906 113.409718-113.409718 113.409718-62.642685 0-113.416591-50.773906-113.41659-113.409718 0-37.936107 18.645047-71.501315 47.248322-92.091275a54.808054 54.808054 0 0 1-16.30153-39.056322zM316.993289 695.151678c-62.642685 0-113.416591-50.780779-113.416591-113.423463 0-54.540027 38.499651-100.063356 89.809611-110.928752a54.725584 54.725584 0 0 1-3.889826-20.211973 54.979866 54.979866 0 0 1 109.959732 0 54.780564 54.780564 0 0 1-16.30153 39.056322c28.603275 20.58996 47.248322 54.155168 47.248322 92.091275 0 62.62894-50.767034 113.409718-113.409718 113.409718z m83.040214 13.14706h226.791947v54.979866h-226.791947v-54.979866z" fill="#FFCE00" /><path d="M937.221154 426.533799c0 265.683329-215.383624 481.066953-481.066953 481.066953-96.324725 0-186.003758-28.348993-261.229959-77.109262 82.05745 81.590121 195.061691 132.089128 319.646067 132.089127 250.103409 0 453.57702-203.473611 453.57702-453.57702a452.346846 452.346846 0 0 0-17.215571-123.945235 139.511409 139.511409 0 0 1-14.961396 7.030551c0.804081 11.380832 1.250792 22.857879 1.250792 34.444886z" fill="#FFB100" /><path d="M558.423624 108.537128c83.012725-3.023893 161.853852 15.208805 231.34153 49.770523 1.484456-2.013638 3.023893-4.04102 4.577074-6.08902C717.226094 91.610201 620.049181 55.43345 514.570309 55.43345c-250.103409 0-453.57702 203.473611-453.57702 453.57702a450.731812 450.731812 0 0 0 51.687946 210.084939 481.651114 481.651114 0 0 1-17.483597-112.275758c-9.676456-265.504644 197.71447-488.599195 463.225986-498.275651z" fill="#FFE454" /><path d="M383.147812 489.643812a54.787436 54.787436 0 0 1-38.671463 15.923544c-23.222121 0-43.03549-14.411597-51.096913-34.767893-51.30996 10.858523-89.809611 56.395597-89.80961 110.935624 0 62.635812 50.767034 113.409718 113.41659 113.409718 62.635812 0 113.409718-50.773906 113.409718-113.409718 0-37.936107-18.645047-71.501315-47.248322-92.091275zM598.737611 581.735087c0 62.635812 50.773906 113.409718 113.41659 113.409718s113.409718-50.773906 113.409718-113.409718c0-54.546899-38.506523-100.077101-89.80961-110.935624-8.061423 20.356295-27.874792 34.767893-51.090041 34.767893a54.801181 54.801181 0 0 1-38.678335-15.916671c-28.603275 20.583087-47.248322 54.141423-47.248322 92.07753z" fill="#FF9E00" /><path d="M344.469477 505.567356a54.787436 54.787436 0 0 0 38.678335-15.923544 54.780564 54.780564 0 0 0 16.308403-39.056322 54.979866 54.979866 0 0 0-109.959732 0c0 7.147383 1.401987 13.951141 3.882953 20.211973 8.061423 20.356295 27.874792 34.767893 51.090041 34.767893zM735.754309 470.799463a54.725584 54.725584 0 0 0 3.889825-20.211973 54.979866 54.979866 0 0 0-109.959731 0c0 15.27753 6.233342 29.098094 16.30153 39.063195a54.801181 54.801181 0 0 0 38.678335 15.916671c23.215248 0 43.028617-14.411597 51.090041-34.767893zM400.026631 708.305611h226.791946v54.979866h-226.791946z" fill="#000000" /><path d="M798.88494 262.082148c0 46.91157 38.162899 85.081342 85.081342 85.081342 46.91157 0 85.07447-38.169772 85.07447-85.081342 0-29.874685-45.00102-88.263302-85.060725-130.054873-40.080322 41.832805-85.095087 100.248913-85.095087 130.054873z" fill="#28E0FF" /><path d="M1024.020617 262.082148c0-32.74051-20.438765-73.67302-62.484617-125.134175-28.919409-35.393289-57.460832-62.539597-58.656644-63.680429l-18.913074-17.923437-18.906201 17.916564c-0.872805 0.824698-16.150336 15.366872-35.489504 36.767785C742.887946 41.454819 633.429906 0.453584 514.570309 0.453584 234.152376 0.446711 6.013423 228.585664 6.013423 509.003597s228.138953 508.556886 508.556886 508.556886 508.556886-228.138953 508.556886-508.556886a506.502013 506.502013 0 0 0-26.885155-163.290201 139.31898 139.31898 0 0 0 27.778577-83.638121z m-55.873288 246.921449c0 250.103409-203.473611 453.57702-453.57702 453.57702-124.584376 0-237.588617-50.499007-319.646067-132.089127a456.037369 456.037369 0 0 1-82.243007-111.402953 450.731812 450.731812 0 0 1-51.687946-210.08494c0-250.103409 203.473611-453.57702 453.57702-453.57702 105.472 0 202.655785 36.190497 279.778792 96.798926-1.566926 2.048-3.092617 4.075383-4.583947 6.082148-30.788725 41.585396-45.860081 75.700403-45.86008 103.767624 0 77.226094 62.828242 140.061208 140.061208 140.061208 18.37702 0 35.915597-3.594309 52.00408-10.054443a139.511409 139.511409 0 0 0 14.961396-7.03055 452.388081 452.388081 0 0 1 17.215571 123.952107z m-84.181047-161.84698c-46.91157 0-85.081342-38.162899-85.081342-85.081342 0-29.80596 45.014765-88.222067 85.095087-130.054872 40.059705 41.79157 85.060725 100.180188 85.060725 130.054872 0 46.918443-38.162899 85.081342-85.07447 85.081342z" fill="#000000" /></svg>