<?xml version="1.0" standalone="no"?><!DOCTYPE svg PUBLIC "-//W3C//DTD SVG 1.1//EN" "http://www.w3.org/Graphics/SVG/1.1/DTD/svg11.dtd"><svg class="icon" width="32px" height="31.81px" viewBox="0 0 1030 1024" version="1.1" xmlns="http://www.w3.org/2000/svg"><path d="M940.959135 428.966054c0-39.209514-4.711784-77.312-13.512649-113.816216a459.028757 459.028757 0 0 0-102.261621-138.364541c-77.457297-46.27373-168.704-71.493189-265.582703-67.957621-267.305514 9.741838-476.090811 234.336865-466.355892 501.635459a485.085405 485.085405 0 0 0 17.60173 113.034379 459.028757 459.028757 0 0 0 82.798703 112.155675c75.734486 49.082811 166.019459 77.63027 262.995027 77.63027 267.478486 0 484.317405-216.838919 484.317405-484.317405z m-198.918919-3.459459a55.351351 55.351351 0 1 1-110.702702 0 55.351351 55.351351 0 0 1 110.702702 0zM663.434378 235.727568l32.435892 44.855351-89.710702 64.864865-32.435892-44.86227 89.710702-64.857946z m-297.126054 0l89.710703 64.857946-32.435892 44.855351-89.710703-64.857946 32.435892-44.855351z m-22.099027 134.427675a55.351351 55.351351 0 1 1 0 110.702703 55.351351 55.351351 0 0 1 0-110.702703zM204.108108 511.993081h622.681946c0 171.948973-139.395459 311.344432-311.337513 311.344433-171.948973 0-311.344432-139.402378-311.344433-311.351352z" fill="#FFCE00" /><path d="M927.439568 315.156757a485.016216 485.016216 0 0 1 13.519567 113.809297c0 267.478486-216.838919 484.317405-484.317405 484.317405-96.975568 0-187.260541-28.540541-262.995027-77.63027 82.611892 82.141405 196.379676 132.981622 321.805838 132.981622 251.793297 0 456.64173-204.848432 456.641729-456.64173a453.922595 453.922595 0 0 0-44.647784-196.843243z" fill="#FFB100" /><path d="M559.602162 108.827676c96.885622-3.535568 188.125405 21.683892 265.589622 67.957621C743.735351 101.459027 634.88 55.351351 515.452541 55.351351 263.659243 55.351351 58.810811 260.199784 58.810811 511.993081a453.777297 453.777297 0 0 0 52.037189 211.504433 485.085405 485.085405 0 0 1-17.60173-113.034379C83.511351 343.164541 292.296649 118.576432 559.602162 108.834595z" fill="#FFE454" /><path d="M515.452541 0C233.139892 0 3.459459 229.680432 3.459459 511.993081s229.680432 511.993081 511.993082 511.993081 511.993081-229.680432 511.993081-511.993081S797.765189 0 515.452541 0z m0 968.634811c-125.426162 0-239.193946-50.840216-321.805838-132.981622a459.118703 459.118703 0 0 1-82.798703-112.155675A453.777297 453.777297 0 0 1 58.810811 511.993081C58.810811 260.199784 263.659243 55.351351 515.452541 55.351351c119.427459 0 228.282811 46.107676 309.739243 121.433946a459.028757 459.028757 0 0 1 102.247784 138.37146 453.881081 453.881081 0 0 1 44.654702 196.836324c0 251.793297-204.848432 456.64173-456.641729 456.64173z" fill="#000000" /><path d="M515.238054 767.986162c122.153514 0 224.366703-86.002162 249.73146-200.648648H265.485838c25.357838 114.646486 127.584865 200.648649 249.745297 200.648648z" fill="#FFFFFF" /><path d="M826.790054 511.993081H204.108108c0 171.948973 139.395459 311.344432 311.344433 311.344433 171.948973 0 311.337514-139.402378 311.337513-311.351352z m-62.256432 55.351351h0.44281c-25.364757 114.639568-127.584865 200.64173-249.745297 200.64173-122.153514 0-224.380541-86.002162-249.745297-200.648648h499.040865z" fill="#000000" /><path d="M344.202378 425.506595m-55.351351 0a55.351351 55.351351 0 1 0 110.702703 0 55.351351 55.351351 0 1 0-110.702703 0Z" fill="#000000" /><path d="M686.695784 425.506595m-55.351352 0a55.351351 55.351351 0 1 0 110.702703 0 55.351351 55.351351 0 1 0-110.702703 0Z" fill="#000000" /><path d="M423.576216 345.447784l-89.717621-64.857946 32.435891-44.86227 89.710703 64.857946zM606.138811 345.447784l-32.428973-44.86227 89.710703-64.857946 32.435891 44.86227z" fill="#000000" /></svg>