<?xml version="1.0" standalone="no"?><!DOCTYPE svg PUBLIC "-//W3C//DTD SVG 1.1//EN" "http://www.w3.org/Graphics/SVG/1.1/DTD/svg11.dtd"><svg class="icon" width="32px" height="31.81px" viewBox="0 0 1030 1024" version="1.1" xmlns="http://www.w3.org/2000/svg"><path d="M942.688865 428.966054c0-39.209514-4.711784-77.312-13.512649-113.816216a459.056432 459.056432 0 0 0-102.261621-138.364541c-77.457297-46.27373-168.704-71.493189-265.589622-67.957621-267.298595 9.741838-476.090811 234.336865-466.342054 501.635459a485.085405 485.085405 0 0 0 17.594811 113.034379 459.028757 459.028757 0 0 0 82.798702 112.155675c75.734486 49.082811 166.019459 77.63027 262.995027 77.63027 267.478486 0 484.317405-216.838919 484.317406-484.317405z m-253.682162-86.486486a55.351351 55.351351 0 1 1-0.006919 110.702702 55.351351 55.351351 0 0 1 0-110.702702z m-172.979892 432.425513c145.297297 0 264.067459-117.621622 264.067459-262.918919h55.351352c0 176.432432-142.986378 318.27027-319.418811 318.27027v-55.351351z m-169.513514-321.722811a55.351351 55.351351 0 1 1 0.006919-110.702702 55.351351 55.351351 0 0 1 0 110.702702z" fill="#FFCE00" /><path d="M929.169297 315.149838a485.071568 485.071568 0 0 1 13.519568 113.816216c0 267.478486-216.838919 484.317405-484.317406 484.317405-96.975568 0-187.260541-28.540541-262.995027-77.63027 82.611892 82.141405 196.379676 132.981622 321.805838 132.981622 251.793297 0 456.64173-204.848432 456.64173-456.64173a453.95027 453.95027 0 0 0-44.647784-196.843243z" fill="#FFB100" /><path d="M561.331892 108.827676c96.885622-3.535568 188.125405 21.683892 265.589622 67.957621C745.465081 101.459027 636.60973 55.351351 517.18227 55.351351 265.388973 55.351351 60.540541 260.199784 60.540541 511.993081a453.777297 453.777297 0 0 0 52.037189 211.504433 485.085405 485.085405 0 0 1-17.60173-113.034379C85.241081 343.164541 294.026378 118.576432 561.331892 108.834595z" fill="#FFE454" /><path d="M517.18227 0C234.869622 0 5.189189 229.680432 5.189189 511.993081s229.680432 511.993081 511.993081 511.993081 511.993081-229.680432 511.993081-511.993081S799.501838 0 517.18227 0z m0 968.634811c-125.426162 0-239.193946-50.840216-321.805838-132.981622a459.118703 459.118703 0 0 1-82.798702-112.155675A453.811892 453.811892 0 0 1 60.540541 511.993081C60.540541 260.199784 265.388973 55.351351 517.18227 55.351351c119.427459 0 228.282811 46.107676 309.739244 121.433946a459.056432 459.056432 0 0 1 102.247783 138.364541 453.901838 453.901838 0 0 1 44.654703 196.843243c0 251.793297-204.848432 456.64173-456.64173 456.64173z" fill="#000000" /><path d="M835.445622 511.993081h-55.351352c0 145.297297-118.770162 262.912-264.067459 262.912v55.351351c176.432432 0 319.418811-141.837838 319.418811-318.27027z" fill="#000000" /><path d="M346.520216 397.830919m-55.351351 0a55.351351 55.351351 0 1 0 110.702703 0 55.351351 55.351351 0 1 0-110.702703 0Z" fill="#000000" /><path d="M688.999784 397.830919m-55.351352 0a55.351351 55.351351 0 1 0 110.702703 0 55.351351 55.351351 0 1 0-110.702703 0Z" fill="#000000" /></svg>