<?xml version="1.0" standalone="no"?><!DOCTYPE svg PUBLIC "-//W3C//DTD SVG 1.1//EN" "http://www.w3.org/Graphics/SVG/1.1/DTD/svg11.dtd"><svg class="icon" width="32px" height="32.00px" viewBox="0 0 1024 1024" version="1.1" xmlns="http://www.w3.org/2000/svg"><path d="M937.499676 428.966054c0-39.209514-4.711784-77.312-13.512649-113.816216a459.056432 459.056432 0 0 0-102.261622-138.364541c-77.457297-46.27373-168.704-71.493189-265.582702-67.957621-267.305514 9.741838-476.090811 234.336865-466.355892 501.635459a484.905514 484.905514 0 0 0 17.60173 113.034379 459.028757 459.028757 0 0 0 82.798702 112.155675c75.734486 49.082811 166.019459 77.63027 262.995027 77.63027 267.478486 0 484.317405-216.838919 484.317406-484.317405z m-250.222703-86.486486a55.351351 55.351351 0 1 1 0 110.702702 55.351351 55.351351 0 0 1 0-110.702702z m-342.486487 0a55.351351 55.351351 0 1 1 0 110.702702 55.351351 55.351351 0 0 1 0-110.702702zM244.507676 649.970162l46.481297-30.041946c42.288432 65.432216 113.504865 109.803243 190.52627 118.687135 98.822919 11.402378 197.521297-35.196541 251.475027-118.687135l46.495135 30.041946c-58.755459 90.921514-161.383784 145.684757-268.467891 145.684757-11.921297 0-23.87027-0.671135-35.846919-2.054919-93.267027-10.758919-179.504432-64.44973-230.669838-143.629838z" fill="#FFCE00" /><path d="M923.980108 315.149838a485.071568 485.071568 0 0 1 13.519568 113.816216c0 267.478486-216.838919 484.317405-484.317406 484.317405-96.975568 0-187.260541-28.540541-262.995027-77.63027 82.611892 82.141405 196.379676 132.981622 321.805838 132.981622 251.793297 0 456.64173-204.848432 456.64173-456.64173a453.95027 453.95027 0 0 0-44.647784-196.843243z" fill="#FFB100" /><path d="M556.142703 108.827676c96.885622-3.535568 188.125405 21.683892 265.589621 67.957621C740.275892 101.459027 631.420541 55.351351 511.993081 55.351351 260.199784 55.351351 55.351351 260.199784 55.351351 511.993081a453.784216 453.784216 0 0 0 52.03719 211.504433 484.905514 484.905514 0 0 1-17.60173-113.034379C80.051892 343.164541 288.837189 118.576432 556.142703 108.834595z" fill="#FFE454" /><path d="M511.993081 0C229.680432 0 0 229.680432 0 511.993081s229.680432 511.993081 511.993081 511.993081 511.993081-229.680432 511.993081-511.993081S794.312649 0 511.993081 0z m0 968.634811c-125.426162 0-239.193946-50.840216-321.805838-132.981622a459.118703 459.118703 0 0 1-82.798702-112.155675A453.784216 453.784216 0 0 1 55.351351 511.993081C55.351351 260.199784 260.199784 55.351351 511.993081 55.351351c119.427459 0 228.282811 46.107676 309.739243 121.433946a459.056432 459.056432 0 0 1 102.247784 138.364541 453.901838 453.901838 0 0 1 44.654703 196.843243c0 251.793297-204.848432 456.64173-456.64173 456.64173z" fill="#000000" /><path d="M344.790486 397.830919m-55.351351 0a55.351351 55.351351 0 1 0 110.702703 0 55.351351 55.351351 0 1 0-110.702703 0Z" fill="#000000" /><path d="M687.276973 397.830919m-55.351351 0a55.351351 55.351351 0 1 0 110.702702 0 55.351351 55.351351 0 1 0-110.702702 0Z" fill="#000000" /><path d="M511.017514 795.661838c107.084108 0 209.705514-54.770162 268.460972-145.691676l-46.488216-30.041946c-53.960649 83.490595-152.652108 130.089514-251.475027 118.687135-77.014486-8.883892-148.237838-53.254919-190.519351-118.687135l-46.495135 30.041946c51.165405 79.180108 137.395892 132.870919 230.669838 143.636757 11.96973 1.376865 23.925622 2.054919 35.84 2.054919z" fill="#000000" /></svg>