<?xml version="1.0" standalone="no"?><!DOCTYPE svg PUBLIC "-//W3C//DTD SVG 1.1//EN" "http://www.w3.org/Graphics/SVG/1.1/DTD/svg11.dtd"><svg class="icon" width="32px" height="31.81px" viewBox="0 0 1030 1024" version="1.1" xmlns="http://www.w3.org/2000/svg"><path d="M939.229405 428.966054c0-39.209514-4.711784-77.312-13.512648-113.816216a459.056432 459.056432 0 0 0-102.261622-138.364541c-77.457297-46.27373-168.704-71.493189-265.589621-67.957621-267.298595 9.741838-476.090811 234.336865-466.342055 501.635459a485.085405 485.085405 0 0 0 17.594811 113.034379 459.028757 459.028757 0 0 0 82.798703 112.155675c75.734486 49.082811 166.019459 77.63027 262.995027 77.63027 267.478486 0 484.317405-216.838919 484.317405-484.317405zM688.723027 340.410811c60.277622 0 109.312 47.034811 109.312 109.312h-55.351351c0-31.135135-24.209297-53.960649-53.960649-53.960649-29.751351 0-53.960649 22.818595-53.960649 53.960649h-55.351351c0-62.27027 49.041297-109.312 109.312-109.312z m-350.007351 0c60.277622 0 109.312 47.034811 109.312 109.312h-55.351352c0-31.135135-24.209297-53.960649-53.960648-53.960649-29.751351 0-53.95373 22.818595-53.95373 53.960649h-55.351351c0-62.27027 49.034378-109.312 109.305081-109.312zM246.237405 649.970162l46.481298-30.041946c42.288432 65.432216 113.511784 109.803243 190.52627 118.687135 98.802162 11.402378 197.528216-35.196541 251.475027-118.687135l46.495135 30.041946c-58.755459 90.921514-161.383784 145.684757-268.467892 145.684757-11.921297 0-23.87027-0.671135-35.846919-2.054919-93.267027-10.758919-179.504432-64.44973-230.669838-143.629838z" fill="#FFCE00" /><path d="M925.709838 315.149838a485.071568 485.071568 0 0 1 13.519567 113.816216c0 267.478486-216.838919 484.317405-484.317405 484.317405-96.975568 0-187.260541-28.540541-262.995027-77.63027 82.611892 82.141405 196.379676 132.981622 321.805838 132.981622 251.793297 0 456.64173-204.848432 456.64173-456.64173a453.95027 453.95027 0 0 0-44.647784-196.843243z" fill="#FFB100" /><path d="M557.872432 108.827676c96.885622-3.535568 188.125405 21.683892 265.589622 67.957621C742.005622 101.459027 633.15027 55.351351 513.722811 55.351351 261.929514 55.351351 57.081081 260.199784 57.081081 511.993081a453.784216 453.784216 0 0 0 52.037189 211.504433 485.085405 485.085405 0 0 1-17.601729-113.034379C81.781622 343.164541 290.566919 118.576432 557.872432 108.834595z" fill="#FFE454" /><path d="M513.722811 0C231.410162 0 1.72973 229.680432 1.72973 511.993081s229.680432 511.993081 511.993081 511.993081 511.993081-229.680432 511.993081-511.993081S796.042378 0 513.722811 0z m0 968.634811c-125.426162 0-239.193946-50.840216-321.805838-132.981622a459.118703 459.118703 0 0 1-82.798703-112.155675A453.82573 453.82573 0 0 1 57.081081 511.993081C57.081081 260.199784 261.929514 55.351351 513.722811 55.351351c119.427459 0 228.282811 46.107676 309.739243 121.433946a459.056432 459.056432 0 0 1 102.247784 138.364541 453.901838 453.901838 0 0 1 44.654703 196.843243c0 251.793297-204.848432 456.64173-456.64173 456.64173z" fill="#000000" /><path d="M338.715676 395.762162c29.751351 0 53.960649 22.818595 53.960648 53.960649h55.351352c0-62.27027-49.041297-109.312-109.312-109.312-60.277622 0-109.305081 47.034811-109.305081 109.312h55.351351c0-31.135135 24.209297-53.960649 53.95373-53.960649zM688.723027 395.762162c29.751351 0 53.960649 22.818595 53.960649 53.960649h55.351351c0-62.27027-49.034378-109.312-109.312-109.312s-109.312 47.034811-109.312 109.312h55.351351c0-31.135135 24.209297-53.960649 53.960649-53.960649zM512.747243 795.661838c107.084108 0 209.705514-54.770162 268.460973-145.691676l-46.488216-30.041946c-53.95373 83.490595-152.679784 130.089514-251.475027 118.687135-77.014486-8.883892-148.237838-53.254919-190.519351-118.687135l-46.495136 30.041946c51.165405 79.180108 137.395892 132.870919 230.669838 143.629838a312.043243 312.043243 0 0 0 35.84 2.054919z" fill="#000000" /></svg>