<?xml version="1.0" standalone="no"?><!DOCTYPE svg PUBLIC "-//W3C//DTD SVG 1.1//EN" "http://www.w3.org/Graphics/SVG/1.1/DTD/svg11.dtd"><svg class="icon" width="32px" height="32.00px" viewBox="0 0 1024 1024" version="1.1" xmlns="http://www.w3.org/2000/svg"><path d="M935.503034 429.523329c0-38.946362-4.680161-76.793128-13.42196-113.052349a455.975517 455.975517 0 0 0-101.575302-137.43592c-76.93745-45.963168-167.571758-71.013369-263.800269-67.50153-265.511517 9.676456-472.89557 232.764134-463.225986 498.268779a481.829799 481.829799 0 0 0 17.483597 112.275758 455.948027 455.948027 0 0 0 82.243007 111.402953c75.226201 48.753396 164.905235 77.109262 261.22996 77.109262 265.683329 0 481.066953-215.383624 481.066953-481.066953z m-251.979598-85.90604a54.979866 54.979866 0 1 1 0 109.959731 54.979866 54.979866 0 0 1 0-109.959731z m-340.187919 0a54.979866 54.979866 0 1 1 0 109.959731 54.979866 54.979866 0 0 1 0-109.959731zM196.724832 511.993128h54.979866c0 144.322148 117.155221 261.14749 261.14749 261.147489 143.999141 0 261.14749-116.832215 261.14749-261.154362h54.979866c0 175.248322-141.813691 316.134228-316.127356 316.134228-174.306792 0-316.127356-140.885906-316.127356-316.134228z" fill="#FFCE00" /><path d="M922.074201 316.47098a481.816054 481.816054 0 0 1 13.428833 113.052349c0 265.683329-215.383624 481.066953-481.066953 481.066953-96.324725 0-186.003758-28.348993-261.22996-77.109262 82.05745 81.590121 195.061691 132.089128 319.646067 132.089128 250.103409 0 453.57702-203.473611 453.57702-453.57702a450.903624 450.903624 0 0 0-44.348134-195.522148z" fill="#FFB100" /><path d="M556.705503 111.53353c96.235383-3.511839 186.862819 21.538362 263.807141 67.50153C739.602899 104.214336 631.478121 58.416107 512.852188 58.416107 262.748779 58.416107 59.275168 261.889718 59.275168 511.993128a450.738685 450.738685 0 0 0 51.687946 210.084939 481.829799 481.829799 0 0 1-17.483597-112.275758C83.809933 344.297664 291.193987 121.216859 556.705503 111.540403z" fill="#FFE454" /><path d="M512.852188 3.436242C232.434255 3.436242 4.295302 231.575195 4.295302 511.993128s228.138953 508.556886 508.556886 508.556885 508.556886-228.138953 508.556886-508.556885S793.270121 3.436242 512.852188 3.436242z m0 962.133906c-124.584376 0-237.588617-50.499007-319.646067-132.089128a456.037369 456.037369 0 0 1-82.243007-111.402953A450.738685 450.738685 0 0 1 59.275168 511.993128C59.275168 261.889718 262.748779 58.416107 512.852188 58.416107c118.625933 0 226.750711 45.798228 307.660456 120.618953a455.975517 455.975517 0 0 1 101.561557 137.43592 450.855517 450.855517 0 0 1 44.355007 195.522148c0 250.103409-203.473611 453.57702-453.57702 453.57702z" fill="#000000" /><path d="M828.979544 511.993128h-54.979866c0 144.322148-117.155221 261.14749-261.14749 261.147489S251.704698 656.308403 251.704698 511.986255h-54.979866c0 175.248322 141.820564 316.134228 316.127356 316.134228 174.313664 0 316.127356-140.885906 316.127356-316.134228z" fill="#000000" /><path d="M343.335517 398.597154m-54.979866 0a54.979866 54.979866 0 1 0 109.959732 0 54.979866 54.979866 0 1 0-109.959732 0Z" fill="#000000" /><path d="M683.523436 398.597154m-54.979866 0a54.979866 54.979866 0 1 0 109.959732 0 54.979866 54.979866 0 1 0-109.959732 0Z" fill="#000000" /></svg>