<?xml version="1.0" standalone="no"?><!DOCTYPE svg PUBLIC "-//W3C//DTD SVG 1.1//EN" "http://www.w3.org/Graphics/SVG/1.1/DTD/svg11.dtd"><svg class="icon" width="32px" height="32.00px" viewBox="0 0 1024 1024" version="1.1" xmlns="http://www.w3.org/2000/svg"><path d="M934.643973 429.523329c0-38.946362-4.680161-76.793128-13.42196-113.052349a455.975517 455.975517 0 0 0-101.575302-137.43592c-76.93745-45.963168-167.571758-71.013369-263.800268-67.50153-265.511517 9.676456-472.89557 232.764134-463.225987 498.268779a481.651114 481.651114 0 0 0 17.483598 112.275758 455.948027 455.948027 0 0 0 82.243006 111.402953c75.226201 48.753396 164.905235 77.109262 261.22996 77.109262 265.683329 0 481.066953-215.383624 481.066953-481.066953z m-252.563758-109.959732a54.979866 54.979866 0 1 1 0 109.959732 54.979866 54.979866 0 0 1 0-109.959732z m-340.18792 0a54.979866 54.979866 0 1 1 0 109.959732 54.979866 54.979866 0 0 1 0-109.959732zM202.738255 511.993128h618.502873c0 170.794953-138.459919 309.254872-309.248 309.254872-170.794953 0-309.254872-138.466792-309.254873-309.261745z" fill="#FFCE00" /><path d="M921.215141 316.47098a481.816054 481.816054 0 0 1 13.428832 113.052349c0 265.683329-215.383624 481.066953-481.066953 481.066953-96.324725 0-186.003758-28.348993-261.22996-77.109262 82.05745 81.590121 195.061691 132.089128 319.646068 132.089128 250.103409 0 453.57702-203.473611 453.57702-453.57702a450.903624 450.903624 0 0 0-44.348135-195.522148z" fill="#FFB100" /><path d="M555.846443 111.53353c96.235383-3.511839 186.862819 21.538362 263.807141 67.50153C738.743839 104.214336 630.61906 58.416107 511.993128 58.416107 261.889718 58.416107 58.416107 261.889718 58.416107 511.993128a450.738685 450.738685 0 0 0 51.687947 210.084939 481.651114 481.651114 0 0 1-17.483598-112.275758C82.950872 344.297664 290.334926 121.216859 555.846443 111.540403z" fill="#FFE454" /><path d="M511.993128 3.436242C231.575195 3.436242 3.436242 231.575195 3.436242 511.993128s228.138953 508.556886 508.556886 508.556885 508.556886-228.138953 508.556885-508.556885S792.417933 3.436242 511.993128 3.436242z m0 962.133906c-124.584376 0-237.588617-50.499007-319.646068-132.089128a456.037369 456.037369 0 0 1-82.243006-111.402953A450.738685 450.738685 0 0 1 58.416107 511.993128C58.416107 261.889718 261.889718 58.416107 511.993128 58.416107c118.625933 0 226.750711 45.798228 307.660456 120.618953a455.975517 455.975517 0 0 1 101.561557 137.43592 450.855517 450.855517 0 0 1 44.355007 195.522148c0 250.103409-203.473611 453.57702-453.57702 453.57702z" fill="#000000" /><path d="M511.780081 766.268134c121.333691 0 222.860886-85.424966 248.055409-199.302013H263.704054c25.187651 113.877047 126.728591 199.302013 248.069154 199.302013z" fill="#FFFFFF" /><path d="M821.241128 511.993128H202.738255c0 170.794953 138.459919 309.254872 309.254873 309.254872 170.794953 0 309.248-138.466792 309.248-309.261745z m-61.838605 54.979865h0.439839c-25.194523 113.870174-126.728591 199.295141-248.069154 199.295141-121.333691 0-222.874631-85.424966-248.069154-199.302013h495.691597z" fill="#000000" /><path d="M341.892295 374.543463m-54.979865 0a54.979866 54.979866 0 1 0 109.959731 0 54.979866 54.979866 0 1 0-109.959731 0Z" fill="#000000" /><path d="M682.087087 374.543463m-54.979866 0a54.979866 54.979866 0 1 0 109.959732 0 54.979866 54.979866 0 1 0-109.959732 0Z" fill="#000000" /></svg>