<?xml version="1.0" standalone="no"?><!DOCTYPE svg PUBLIC "-//W3C//DTD SVG 1.1//EN" "http://www.w3.org/Graphics/SVG/1.1/DTD/svg11.dtd"><svg class="icon" width="32px" height="32.00px" viewBox="0 0 1024 1024" version="1.1" xmlns="http://www.w3.org/2000/svg"><path d="M934.643973 429.523329c0-38.946362-4.680161-76.793128-13.42196-113.052349a455.948027 455.948027 0 0 0-101.575302-137.43592c-76.93745-45.963168-167.571758-71.013369-263.800268-67.50153-265.511517 9.676456-472.89557 232.764134-463.225987 498.268779a481.651114 481.651114 0 0 0 17.483598 112.275758 455.948027 455.948027 0 0 0 82.243006 111.402953c75.226201 48.753396 164.905235 77.109262 261.22996 77.109262 265.683329 0 481.066953-215.383624 481.066953-481.066953z m-290.589208 5.278067a54.759946 54.759946 0 0 1-16.947544-39.640483 54.979866 54.979866 0 0 1 109.959732 0 54.773691 54.773691 0 0 1-16.947544 39.640483c35.84 14.913289 61.041396 50.25847 61.041396 91.507114 0 54.718711-44.355007 99.080591-99.073718 99.080591-54.725584 0-99.080591-44.361879-99.08059-99.080591 0-41.241772 25.201396-76.586953 61.048268-91.507114zM242.818577 526.30851c0-41.241772 25.201396-76.586953 61.048269-91.507114a54.759946 54.759946 0 0 1-16.954416-39.640483 54.979866 54.979866 0 0 1 109.959731 0 54.766819 54.766819 0 0 1-16.940671 39.640483c35.84 14.913289 61.041396 50.25847 61.041396 91.507114 0 54.718711-44.355007 99.080591-99.073718 99.080591-54.725584 0-99.080591-44.361879-99.080591-99.080591z m120.268457 126.570524v-27.489933h295.516778v27.489933c0 81.074685-66.683705 147.029906-147.758389 147.029906s-147.758389-65.955221-147.758389-147.029906z" fill="#FFCE00" /><path d="M921.215141 316.477852a481.761074 481.761074 0 0 1 13.428832 113.045477c0 265.683329-215.383624 481.066953-481.066953 481.066953-96.324725 0-186.003758-28.348993-261.22996-77.109262 82.05745 81.590121 195.061691 132.089128 319.646068 132.089128 250.103409 0 453.57702-203.473611 453.57702-453.57702a450.876134 450.876134 0 0 0-44.348135-195.522148z" fill="#FFB100" /><path d="M555.846443 111.53353c96.235383-3.511839 186.862819 21.538362 263.807141 67.50153C738.743839 104.214336 630.61906 58.416107 511.993128 58.416107 261.889718 58.416107 58.416107 261.889718 58.416107 511.993128a450.731812 450.731812 0 0 0 51.687947 210.084939 481.651114 481.651114 0 0 1-17.483598-112.275758C82.950872 344.297664 290.334926 121.216859 555.846443 111.540403z" fill="#FFE454" /><path d="M511.993128 3.436242C231.575195 3.436242 3.436242 231.575195 3.436242 511.993128s228.138953 508.556886 508.556886 508.556885 508.556886-228.138953 508.556885-508.556885S792.417933 3.436242 511.993128 3.436242z m0 962.133906c-124.584376 0-237.588617-50.499007-319.646068-132.089128a456.037369 456.037369 0 0 1-82.243006-111.402953A450.731812 450.731812 0 0 1 58.416107 511.993128C58.416107 261.889718 261.889718 58.416107 511.993128 58.416107c118.625933 0 226.750711 45.798228 307.660456 120.618953a455.948027 455.948027 0 0 1 101.561557 137.442792 450.834899 450.834899 0 0 1 44.355007 195.515276c0 250.103409-203.473611 453.57702-453.57702 453.57702z" fill="#000000" /><path d="M440.972886 526.30851c0-41.241772-25.208268-76.586953-61.048269-91.507114a54.739329 54.739329 0 0 1-38.032322 15.339383 54.725584 54.725584 0 0 1-38.025449-15.339383c-35.846872 14.913289-61.048268 50.25847-61.048269 91.507114 0 54.718711 44.355007 99.080591 99.080591 99.080591 54.718711 0 99.073718-44.361879 99.073718-99.080591zM682.087087 625.389101c54.718711 0 99.073718-44.361879 99.073718-99.080591 0-41.241772-25.208268-76.586953-61.048268-91.507114a54.739329 54.739329 0 0 1-38.02545 15.339383 54.725584 54.725584 0 0 1-38.032322-15.339383c-35.846872 14.913289-61.048268 50.25847-61.048268 91.507114 0 54.718711 44.355007 99.080591 99.08059 99.080591z" fill="#FF9E00" /><path d="M379.924617 434.801396a54.773691 54.773691 0 0 0 16.954417-39.640483 54.979866 54.979866 0 0 0-109.959732 0c0 15.586792 6.515114 29.64102 16.947544 39.640483a54.725584 54.725584 0 0 0 38.025449 15.339383 54.739329 54.739329 0 0 0 38.039195-15.339383zM720.119409 434.801396a54.773691 54.773691 0 0 0 16.947544-39.640483 54.979866 54.979866 0 0 0-109.959732 0c0 15.586792 6.521987 29.64102 16.954417 39.640483a54.725584 54.725584 0 0 0 38.025449 15.339383 54.739329 54.739329 0 0 0 38.032322-15.339383z" fill="#000000" /><path d="M511.573906 744.922201c41.186792 0 76.140242-27.187544 87.857826-64.553235H423.716081c11.717584 37.372564 46.671034 64.560107 87.857825 64.560108z" fill="#FFFFFF" /><path d="M658.603812 652.879034v-27.489933h-295.516778v27.489933c0 81.074685 66.683705 147.029906 147.758389 147.029906s147.758389-65.955221 147.758389-147.029906z m-59.17208 27.489932c-11.717584 37.372564-46.671034 64.560107-87.857826 64.560108s-76.140242-27.194416-87.857825-64.560108h175.715651z" fill="#000000" /></svg>