<?xml version="1.0" standalone="no"?><!DOCTYPE svg PUBLIC "-//W3C//DTD SVG 1.1//EN" "http://www.w3.org/Graphics/SVG/1.1/DTD/svg11.dtd"><svg class="icon" width="32px" height="32.00px" viewBox="0 0 1024 1024" version="1.1" xmlns="http://www.w3.org/2000/svg"><path d="M553.92256 110.830933c-214.152533 7.80288-390.79936 155.374933-444.299947 351.78496 39.09632-10.287787 85.572267-13.571413 126.532267-13.94688v-0.136533c0-59.426133 49.001813-108.352853 108.264107-108.352853 59.385173 0 108.264107 48.974507 108.264106 107.001173h-54.613333c0-27.306667-23.81824-52.381013-53.08416-52.381013s-53.077333 24.296107-53.077333 53.766826l-0.013654 1.35168-0.587093 24.569174h-0.075093l0.04096 1.706666c0.034133 1.358507 0.498347 28.105387-2.19136 63.146667h440.251733c-2.648747-34.891093-2.19136-61.576533-2.164053-62.93504l0.047786-1.92512h-0.08192l-0.59392-25.081173c0-29.47072-23.811413-54.347093-53.08416-54.347094-29.26592 0-53.077333 24.82176-53.077333 52.1216h-54.613333c0-58.026667 48.305493-107.001173 107.690666-107.001173 59.262293 0 107.506347 48.605867 107.697494 108.032l0.006826 0.484693c48.305493 0.45056 104.973653 4.9152 147.16928 20.125014a478.53568 478.53568 0 0 0-11.4688-154.412374 452.908373 452.908373 0 0 0-100.891306-136.51968c-76.424533-45.656747-166.454613-70.539947-262.048427-67.05152zM825.77408 724.834987a143.17568 143.17568 0 0 1-49.841493-32.535894c-6.157653-6.150827-11.687253-13.810347-16.657067-22.910293-46.912853 89.613653-140.73856 150.807893-248.91392 150.807893-109.206187 0-203.776-62.3616-250.238293-153.381546-5.20192 9.85088-11.0592 18.077013-17.6128 24.63744a138.233173 138.233173 0 0 1-98.379094 40.741546c-8.895147 0-17.660587-0.846507-26.2144-2.471253a453.277013 453.277013 0 0 0 74.929494 98.24256c74.724693 48.428373 163.805867 76.5952 259.488426 76.5952 151.1424 0 285.873493-70.18496 373.439147-179.725653z" fill="#FFCE00" /><path d="M874.325333 733.893973h-0.013653a135.236267 135.236267 0 0 1-48.5376-9.058986c-87.565653 109.533867-222.296747 179.725653-373.439147 179.725653-95.68256 0-184.763733-28.16-259.4816-76.5952 81.5104 81.046187 193.76128 131.208533 317.508267 131.208533 167.621973 0 314.135893-92.01664 391.734613-228.181333a134.71744 134.71744 0 0 1-27.77088 2.901333zM928.331093 468.814507c11.994453 4.328107 22.821547 9.509547 31.941974 15.72864a447.20128 447.20128 0 0 0-43.4176-170.141014 478.549333 478.549333 0 0 1 11.475626 154.4192z" fill="#FFB100" /><path d="M60.55936 482.986667c13.6192-8.751787 30.685867-15.387307 49.629867-20.370774 53.507413-196.410027 229.587627-343.98208 443.733333-351.791786 95.593813-3.4816 185.623893 21.394773 262.048427 67.05152C735.60064 103.560533 628.20352 58.067627 510.3616 58.067627c-239.834453 0-436.46976 188.368213-449.80224 424.912213z" fill="#FFE454" /><path d="M510.088533 765.58336c105.92256 0 194.792107-73.17504 219.293014-171.636053H290.77504c24.49408 98.461013 113.370453 171.636053 219.29984 171.636053z" fill="#FFFFFF" /><path d="M144.131413 677.5808c22.575787 0 43.799893-8.78592 59.767467-24.753493 20.992-20.992 30.917973-92.706133 32.60416-149.54496-75.373227 0.88064-134.560427 12.465493-152.118613 30.030506-32.95232 32.95232-32.95232 86.56896 0 119.52128a83.920213 83.920213 0 0 0 59.746986 24.746667zM781.96736 503.296c1.706667 56.85248 11.639467 129.447253 32.58368 150.38464 15.960747 15.967573 37.184853 25.606827 59.767467 25.606827h0.006826c22.56896 0 43.78624-9.639253 59.746987-25.6 32.95232-32.945493 32.95232-86.985387 0-119.944534-17.565013-17.565013-76.745387-29.579947-152.10496-30.446933z" fill="#28E0FF" /><path d="M1011.616427 571.508053c2.573653-20.609707 3.91168-41.59488 3.91168-62.887253 0-278.54848-226.6112-505.166507-505.15968-505.166507-278.555307 0-505.173333 226.618027-505.173334 505.166507 0 18.629973 1.051307 37.014187 3.024214 55.13216-8.465067 39.54688 0.395947 82.077013 26.610346 115.336533 70.089387 194.921813 256.785067 334.697813 475.531947 334.697814 220.28288 0 408.064-141.74208 476.986027-338.807467 21.783893-30.405973 29.866667-67.836587 24.2688-103.471787zM510.3616 959.173973c-123.753813 0-236.004693-50.162347-317.508267-131.208533a453.358933 453.358933 0 0 1-74.93632-98.249387c8.553813 1.631573 17.319253 2.484907 26.2144 2.484907 37.1712 0 72.11008-14.472533 98.38592-40.7552 6.5536-6.5536 12.404053-14.779733 17.6128-24.630613 46.462293 91.01312 141.032107 153.388373 250.231467 153.388373 108.17536 0 202.001067-61.201067 248.920747-150.821547 4.969813 9.106773 10.499413 16.766293 16.657066 22.91712a143.17568 143.17568 0 0 0 49.834667 32.535894 135.154347 135.154347 0 0 0 48.544427 9.058986h0.013653a134.690133 134.690133 0 0 0 27.77088-2.901333c-77.59872 136.164693-224.119467 228.181333-391.734613 228.181333z m423.71072-305.493333c-15.960747 15.960747-37.178027 25.6-59.746987 25.6h-0.006826c-22.582613 0-43.80672-9.639253-59.767467-25.6-20.944213-20.944213-30.877013-93.53216-32.590507-150.391467 75.3664 0.873813 134.546773 12.888747 152.10496 30.446934 32.95232 32.959147 32.95232 87.005867 0 119.944533z m-17.210027-339.278507a447.249067 447.249067 0 0 1 43.410774 170.141014c-9.127253-6.212267-19.94752-11.400533-31.935147-15.721814-42.195627-15.209813-98.863787-19.674453-147.16928-20.125013l-0.013653-0.49152c-0.191147-59.419307-48.428373-108.025173-107.690667-108.025173-59.385173 0-107.697493 48.974507-107.697493 107.001173h54.613333c0-27.306667 23.81824-52.381013 53.08416-52.381013s53.077333 25.12896 53.077333 54.606506l0.59392 25.081174h0.088747l-0.054613 1.92512c-0.027307 1.344853-0.49152 28.03712 2.164053 62.928213h-440.251733c2.689707-35.034453 2.225493-61.781333 2.198186-63.146667l-0.047786-1.706666h0.08192l0.587093-24.569174 0.006827-1.08544c0-29.477547 23.811413-53.896533 53.08416-53.896533 29.26592 0 53.077333 24.94464 53.077333 52.251307h54.613333c0-58.026667-48.878933-106.994347-108.264106-106.994347-59.255467 0-108.25728 48.919893-108.25728 108.3392v0.14336c-40.96 0.375467-87.442773 3.659093-126.532267 13.94688-18.950827 4.983467-35.7376 11.625813-49.349973 20.370773C73.611947 246.429013 270.390613 58.067627 510.225067 58.067627c117.835093 0 225.307307 45.492907 305.670826 119.814826a453.031253 453.031253 0 0 1 100.9664 136.526507z m-187.480746 279.552c-24.49408 98.454187-113.363627 171.629227-219.293014 171.629227-105.929387 0-194.80576-73.17504-219.29984-171.636053h438.592854zM84.3776 533.306027c17.558187-17.565013 76.745387-29.149867 152.118613-30.02368-1.67936 56.832-11.605333 128.546133-32.60416 149.538133a83.954347 83.954347 0 0 1-59.767466 24.753493 83.933867 83.933867 0 0 1-59.746987-24.746666c-32.945493-32.945493-32.945493-86.562133 0-119.52128z" fill="#000000" /></svg>