<?xml version="1.0" standalone="no"?><!DOCTYPE svg PUBLIC "-//W3C//DTD SVG 1.1//EN" "http://www.w3.org/Graphics/SVG/1.1/DTD/svg11.dtd"><svg class="icon" width="32px" height="32.00px" viewBox="0 0 1024 1024" version="1.1" xmlns="http://www.w3.org/2000/svg"><path d="M933.784913 429.523329c0-38.946362-4.680161-76.793128-13.42196-113.052349a455.948027 455.948027 0 0 0-101.575302-137.43592c-76.93745-45.963168-167.571758-71.013369-263.800268-67.50153-123.587866 4.501477-234.564725 55.261638-316.938309 135.003061a86.18094 86.18094 0 0 1 20.115758-2.371007c19.937074 0 39.997852 7.174872 55.385342 21.222228 15.380617-14.047356 35.441396-21.222228 55.37847-21.222228 22.266846 0 43.207302 8.439409 58.965906 23.771919 12.102443 11.772564 26.54153 32.967302 26.541531 67.082309 0 65.494765-103.712644 145.813477-124.501907 161.242201l-16.390872 12.164296-16.384-12.164296c-20.789262-15.428725-124.495034-95.747436-124.495034-161.235328 0-3.855463 0.206174-7.525369 0.549799-11.044081-54.801181 81.404564-85.301262 180.25149-81.452671 285.826577a481.651114 481.651114 0 0 0 17.483597 112.268886 453.418953 453.418953 0 0 0 12.583517 22.424913l80.249987-80.834148a342.18094 342.18094 0 0 1-37.173262-155.111946h54.979866c0 158.067114 130.659651 291.235221 291.248966 291.235221C671.71651 799.792107 802.362416 666.630872 802.362416 508.563758h54.979866c0 188.993289-155.311248 346.215087-346.215087 346.215088a341.892295 341.892295 0 0 1-146.562578-32.90545l-63.824751 64.188993a480.352215 480.352215 0 0 0 151.971221 24.534765c265.683329 0 481.066953-215.383624 481.066953-481.066953z m-208.682953 66.738684l-16.384 12.164296-16.390873-12.164296c-20.796134-15.428725-124.495034-95.747436-124.495033-161.235328 0-34.121879 14.425342-55.32349 26.527785-67.096054 15.765477-15.325638 36.69906-23.765047 58.972778-23.765047 19.937074 0 39.997852 7.174872 55.385343 21.222228 15.380617-14.047356 35.441396-21.222228 55.37847-21.222228 22.266846 0 43.207302 8.439409 58.965906 23.771919 12.102443 11.772564 26.54153 32.967302 26.54153 67.082309 0 65.494765-103.712644 145.813477-124.501906 161.242201z" fill="#FFCE00" /><path d="M920.362953 316.477852a481.761074 481.761074 0 0 1 13.42196 113.045477c0 265.683329-215.383624 481.066953-481.066953 481.066953a480.36596 480.36596 0 0 1-151.971222-24.534765l-17.731006 17.840966a450.821154 450.821154 0 0 0 228.118335 61.673665c250.103409 0 453.57702-203.473611 453.57702-453.583893 0-69.961879-15.937289-136.281342-44.348134-195.515275z" fill="#FFB100" /><path d="M173.207195 323.982604c2.700886-27.723597 15.25004-45.605799 25.991731-56.058846a83.548779 83.548779 0 0 1 38.850148-21.39404C320.422658 166.795168 431.406389 116.035007 554.987383 111.526658c96.235383-3.504966 186.862819 21.538362 263.80714 67.50153C737.884779 104.221208 629.76 58.416107 511.134067 58.416107 261.030658 58.416107 57.557047 261.889718 57.557047 511.993128a450.731812 450.731812 0 0 0 51.687946 210.084939 481.651114 481.651114 0 0 1-17.483597-112.275758c-3.848591-105.568215 26.65149-204.408268 81.445799-285.819705z" fill="#FFE454" /><path d="M511.134067 3.436242C230.716134 3.436242 2.577181 231.575195 2.577181 511.993128a505.629208 505.629208 0 0 0 88.785611 286.754362 114.007624 114.007624 0 0 0-3.04451 26.603382 112.44757 112.44757 0 0 0 33.510228 79.98196c21.39404 21.235973 49.743034 32.747383 79.872 32.747383h0.432967c9.16102 0 18.143356-1.099597 26.823302-3.216322a505.636081 505.636081 0 0 0 282.177288 85.68612c280.417933 0 508.556886-228.138953 508.556886-508.563758C1019.690953 231.575195 791.558872 3.436242 511.134067 3.436242z m0 962.133906a450.834899 450.834899 0 0 1-228.118335-61.673665l17.731006-17.834094 63.817879-64.195866a341.892295 341.892295 0 0 0 146.562578 32.90545c190.903839 0 346.22196-157.221799 346.221959-346.215087h-54.979865c0 158.067114-130.645906 291.235221-291.242094 291.235221S219.885101 666.630872 219.885101 508.563758h-54.979866a342.194685 342.194685 0 0 0 37.173262 155.111947L121.82851 744.496107a456.573423 456.573423 0 0 1-12.590389-22.41804 450.766174 450.766174 0 0 1-51.681074-210.084939C57.557047 261.889718 261.030658 58.416107 511.134067 58.416107c118.625933 0 226.750711 45.798228 307.660456 120.618953a455.948027 455.948027 0 0 1 101.561558 137.442792 450.834899 450.834899 0 0 1 44.355006 195.515276c0 250.103409-203.473611 453.57702-453.57702 453.57702z m-367.835919-140.336108a58.031248 58.031248 0 0 1 16.961288-41.372349l71.439463-71.975517a351.878013 351.878013 0 0 0 83.610631 81.514524l-72.140456 72.614658a57.625772 57.625772 0 0 1-41.2349 17.091865h-0.226791c-15.52494 0-30.128966-5.855356-41.15243-16.796349a57.680752 57.680752 0 0 1-17.256805-41.076832z" fill="#000000" /><path d="M258.164832 299.14545c-14.081718 0-30.520698 9.394685-30.520698 35.874362 0 17.985289 33.867597 62.319678 85.90604 104.39302 52.024698-42.073342 85.90604-86.407732 85.906041-104.39302 0-26.479678-16.445852-35.874362-30.527571-35.874362-6.542604 0-27.895409 2.460349-27.895409 34.156241h-54.979866c0-31.695893-21.345933-34.156242-27.888537-34.156241z" fill="#E36600" /><path d="M173.207195 323.982604c-0.343624 3.518711-0.549799 7.188617-0.549799 11.037208 0 65.494765 103.712644 145.813477 124.501906 161.242201l16.390872 12.164296 16.384-12.164296c20.789262-15.428725 124.501906-95.747436 124.501907-161.235328 0-34.121879-14.432215-55.32349-26.541531-67.096054-15.758604-15.325638-36.69906-23.765047-58.965906-23.765047-19.937074 0-39.997852 7.174872-55.385342 21.222228-15.380617-14.047356-35.441396-21.222228-55.37847-21.222228-6.872483 0-13.614389 0.804081-20.115758 2.371007a83.548779 83.548779 0 0 0-38.850148 21.39404c-10.741691 10.446174-23.290846 28.335248-25.991731 56.051973z m167.82604 9.319087c0-31.695893 21.352805-34.156242 27.895409-34.156241 14.081718 0 30.520698 9.394685 30.520698 35.874362 0 17.985289-33.867597 62.319678-85.90604 104.39302-52.024698-42.073342-85.90604-86.407732-85.90604-104.39302 0-26.479678 16.445852-35.874362 30.52757-35.874362 6.542604 0 27.895409 2.460349 27.89541 34.156241h54.979865z" fill="#000000" /><path d="M653.332617 299.14545c-14.081718 0-30.520698 9.394685-30.520698 35.874362 0 17.985289 33.867597 62.319678 85.906041 104.39302 52.024698-42.073342 85.90604-86.407732 85.90604-104.39302 0-26.479678-16.445852-35.874362-30.52757-35.874362-6.542604 0-27.888537 2.460349-27.888537 34.156241h-54.979866c0-31.695893-21.352805-34.156242-27.89541-34.156241z" fill="#E36600" /><path d="M764.09643 244.165584c-19.937074 0-39.997852 7.174872-55.37847 21.222228-15.38749-14.047356-35.448268-21.222228-55.385343-21.222228-22.266846 0-43.207302 8.439409-58.965906 23.765047-12.102443 11.779436-26.534658 32.981047-26.534657 67.096054 0 65.487893 103.705772 145.799732 124.495033 161.235328l16.390873 12.164296 16.384-12.164296c20.796134-15.428725 124.501906-95.747436 124.501906-161.235328 0-34.121879-14.432215-55.32349-26.54153-67.096054-15.758604-15.325638-36.69906-23.765047-58.965906-23.765047z m-27.888537 89.136107c0-31.695893 21.345933-34.156242 27.888537-34.156241 14.081718 0 30.52757 9.394685 30.52757 35.874362 0 17.985289-33.881342 62.319678-85.90604 104.39302-52.038443-42.073342-85.90604-86.407732-85.906041-104.39302 0-26.479678 16.43898-35.874362 30.520698-35.874362 6.542604 0 27.895409 2.460349 27.89541 34.156241h54.979866z" fill="#000000" /><path d="M201.934174 883.107221c15.600537 0 30.252671-6.020295 41.2349-17.098738l72.140456-72.614657a351.878013 351.878013 0 0 1-83.610631-81.507652l-71.439463 71.975517a58.058738 58.058738 0 0 0-16.961288 41.372349 57.660134 57.660134 0 0 0 17.263678 41.076832c11.016591 10.934121 25.62749 16.789477 41.145557 16.789477h0.219919z" fill="#E36600" /></svg>