<?xml version="1.0" standalone="no"?><!DOCTYPE svg PUBLIC "-//W3C//DTD SVG 1.1//EN" "http://www.w3.org/Graphics/SVG/1.1/DTD/svg11.dtd"><svg class="icon" width="32px" height="32.00px" viewBox="0 0 1024 1024" version="1.1" xmlns="http://www.w3.org/2000/svg"><path d="M934.643973 429.523329c0-38.946362-4.680161-76.793128-13.42196-113.052349a455.975517 455.975517 0 0 0-101.575302-137.43592c-76.93745-45.963168-167.571758-71.013369-263.800268-67.50153-265.511517 9.676456-472.89557 232.764134-463.225987 498.268779a481.651114 481.651114 0 0 0 17.483598 112.275758 455.948027 455.948027 0 0 0 82.243006 111.402953c75.226201 48.753396 164.905235 77.109262 261.22996 77.109262 265.683329 0 481.066953-215.383624 481.066953-481.066953zM600.380134 312.601772c15.758604-15.325638 36.69906-23.765047 58.965906-23.765047 19.937074 0 39.997852 7.174872 55.385343 21.222228 15.380617-14.047356 35.441396-21.222228 55.378469-21.222228 22.266846 0 43.207302 8.439409 58.965906 23.771919 12.102443 11.772564 26.54153 32.967302 26.541531 67.082309 0 65.494765-103.712644 145.813477-124.501906 161.242201l-16.384 12.164296-16.390873-12.164296c-20.796134-15.428725-124.495034-95.747436-124.495033-161.235328 0-34.121879 14.425342-55.32349 26.527785-67.096054z m-421.702443 67.096054c0-34.121879 14.425342-55.32349 26.527786-67.096054 15.758604-15.325638 36.69906-23.765047 58.972778-23.765047 19.937074 0 39.997852 7.174872 55.385342 21.222228 15.380617-14.047356 35.441396-21.222228 55.37847-21.222228 22.266846 0 43.207302 8.439409 58.965906 23.771919 12.102443 11.772564 26.54153 32.967302 26.54153 67.082309 0 65.494765-103.712644 145.813477-124.501906 161.242201l-16.390872 12.164296-16.384-12.164296c-20.789262-15.428725-124.495034-95.747436-124.495034-161.235328z m113.107329 249.127516h454.154309c0 125.244134-101.671517 227.073718-227.073718 227.073718-125.415946 0-227.080591-101.836456-227.080591-227.073718z" fill="#FFCE00" /><path d="M921.215141 316.47098a481.816054 481.816054 0 0 1 13.428832 113.052349c0 265.683329-215.383624 481.066953-481.066953 481.066953-96.324725 0-186.003758-28.348993-261.22996-77.109262 82.05745 81.590121 195.061691 132.089128 319.646068 132.089128 250.103409 0 453.57702-203.473611 453.57702-453.57702a450.903624 450.903624 0 0 0-44.348135-195.522148z" fill="#FFB100" /><path d="M555.846443 111.53353c96.235383-3.511839 186.862819 21.538362 263.807141 67.50153C738.743839 104.214336 630.61906 58.416107 511.993128 58.416107 261.889718 58.416107 58.416107 261.889718 58.416107 511.993128a450.731812 450.731812 0 0 0 51.687947 210.084939 481.651114 481.651114 0 0 1-17.483598-112.275758C82.950872 344.297664 290.334926 121.216859 555.846443 111.540403z" fill="#FFE454" /><path d="M511.993128 3.436242C231.575195 3.436242 3.436242 231.575195 3.436242 511.993128s228.138953 508.556886 508.556886 508.556885 508.556886-228.138953 508.556885-508.556885S792.417933 3.436242 511.993128 3.436242z m0 962.133906c-124.584376 0-237.588617-50.499007-319.646068-132.089128a456.037369 456.037369 0 0 1-82.243006-111.402953A450.731812 450.731812 0 0 1 58.416107 511.993128C58.416107 261.889718 261.889718 58.416107 511.993128 58.416107c118.625933 0 226.750711 45.798228 307.660456 120.618953a455.975517 455.975517 0 0 1 101.561557 137.43592 450.855517 450.855517 0 0 1 44.355007 195.522148c0 250.103409-203.473611 453.57702-453.57702 453.57702z" fill="#000000" /><path d="M264.178255 343.816591c-14.081718 0-30.520698 9.394685-30.520698 35.874362 0 17.985289 33.867597 62.319678 85.90604 104.39302 52.024698-42.073342 85.90604-86.407732 85.906041-104.39302 0-26.479678-16.445852-35.874362-30.527571-35.874362-6.542604 0-27.895409 2.460349-27.895409 34.156241h-54.979866c0-31.695893-21.345933-34.156242-27.888537-34.156241z" fill="#E36600" /><path d="M319.556725 553.09745l16.390872-12.164296c20.789262-15.428725 124.501906-95.747436 124.501906-161.235328 0-34.121879-14.432215-55.32349-26.54153-67.096054-15.758604-15.325638-36.69906-23.765047-58.965906-23.765047-19.937074 0-39.997852 7.174872-55.385342 21.222228-15.380617-14.047356-35.441396-21.222228-55.37847-21.222228-22.266846 0-43.207302 8.439409-58.965906 23.765047-12.102443 11.779436-26.534658 32.981047-26.534658 67.096054 0 65.487893 103.705772 145.799732 124.495034 161.235328l16.390872 12.164296z m27.489933-175.124618c0-31.695893 21.352805-34.156242 27.895409-34.156241 14.081718 0 30.520698 9.394685 30.520698 35.874362 0 17.985289-33.867597 62.319678-85.90604 104.39302-52.024698-42.073342-85.90604-86.407732-85.90604-104.39302 0-26.479678 16.445852-35.874362 30.52757-35.874362 6.542604 0 27.895409 2.460349 27.895409 34.156241h54.979866z" fill="#000000" /><path d="M659.34604 343.816591c-14.081718 0-30.520698 9.394685-30.520698 35.874362 0 17.985289 33.867597 62.319678 85.906041 104.39302 52.024698-42.073342 85.90604-86.407732 85.90604-104.39302 0-26.479678-16.445852-35.874362-30.527571-35.874362-6.542604 0-27.888537 2.460349-27.888537 34.156241h-54.979865c0-31.695893-21.352805-34.156242-27.89541-34.156241z" fill="#E36600" /><path d="M698.347383 540.933154l16.384 12.164296 16.390872-12.164296c20.789262-15.428725 124.495034-95.747436 124.495034-161.235328 0-34.121879-14.432215-55.32349-26.534658-67.096054-15.758604-15.325638-36.69906-23.765047-58.965906-23.765047-19.943946 0-39.997852 7.174872-55.385342 21.222228-15.38749-14.047356-35.441396-21.222228-55.37847-21.222228-22.273718 0-43.214174 8.439409-58.972779 23.765047-12.102443 11.779436-26.534658 32.981047-26.534657 67.096054 0 65.487893 103.705772 145.799732 124.501906 161.235328z m43.873932-162.953449c0-31.702765 21.345933-34.163114 27.888537-34.163114 14.081718 0 30.52757 9.394685 30.527571 35.874362 0 17.985289-33.881342 62.319678-85.90604 104.39302-52.038443-42.073342-85.90604-86.407732-85.906041-104.39302 0-26.479678 16.43898-35.874362 30.520698-35.874362 6.542604 0 27.895409 2.460349 27.89541 34.156241h54.979865z" fill="#000000" /><path d="M518.460134 800.919195c75.679785 0 139.710711-49.103893 162.70604-117.113987H355.774711c22.981584 68.016966 87.005638 117.113987 162.685423 117.113987z" fill="#FFFFFF" /><path d="M745.939329 628.825342H291.78502c0 125.244134 101.664644 227.073718 227.080591 227.073718 125.409074 0 227.073718-101.836456 227.073718-227.073718z m-65.570363 54.979866h0.790336c-22.988456 68.016966-87.019383 117.113987-162.699168 117.113987-75.679785 0-139.703839-49.103893-162.692295-117.113987h324.601127z" fill="#000000" /></svg>