<?xml version="1.0" standalone="no"?><!DOCTYPE svg PUBLIC "-//W3C//DTD SVG 1.1//EN" "http://www.w3.org/Graphics/SVG/1.1/DTD/svg11.dtd"><svg class="icon" width="32px" height="32.00px" viewBox="0 0 1024 1024" version="1.1" xmlns="http://www.w3.org/2000/svg"><path d="M934.643973 429.523329c0-38.946362-4.680161-76.793128-13.42196-113.052349a455.948027 455.948027 0 0 0-101.575302-137.43592c-76.93745-45.963168-167.571758-71.013369-263.800268-67.50153-265.511517 9.676456-472.89557 232.764134-463.225987 498.268779a481.829799 481.829799 0 0 0 17.483598 112.275758 455.948027 455.948027 0 0 0 82.243006 111.402953c75.226201 48.753396 164.905235 77.109262 261.22996 77.109262 265.683329 0 481.066953-215.383624 481.066953-481.066953z m-251.979597-82.469799a54.979866 54.979866 0 1 1-0.006873 109.959732 54.979866 54.979866 0 0 1 0-109.959732z m-340.18792 109.959732a54.979866 54.979866 0 1 1 0-109.959732 54.979866 54.979866 0 0 1 0 109.959732z m259.037638 117.333906c57.130953-7.923973 115.533315 4.817611 164.458523 35.888107l-29.469208 46.416752a189.419383 189.419383 0 0 0-127.436456-27.847302c-71.198926 9.889503-131.676779 60.416-154.060456 128.735356l-52.244618-17.119356c28.878174-88.125852 106.887732-153.311356 198.752215-166.073557z" fill="#FFCE00" /><path d="M921.215141 316.477852a481.761074 481.761074 0 0 1 13.428832 113.045477c0 265.683329-215.383624 481.066953-481.066953 481.066953-96.324725 0-186.003758-28.348993-261.22996-77.109262 82.05745 81.590121 195.061691 132.089128 319.646068 132.089128 250.103409 0 453.57702-203.473611 453.57702-453.57702a450.876134 450.876134 0 0 0-44.348135-195.522148z" fill="#FFB100" /><path d="M555.846443 111.53353c96.235383-3.511839 186.862819 21.538362 263.807141 67.50153C738.743839 104.207463 630.61906 58.416107 511.993128 58.416107 261.889718 58.416107 58.416107 261.889718 58.416107 511.993128a450.731812 450.731812 0 0 0 51.687947 210.084939 481.829799 481.829799 0 0 1-17.483598-112.275758C82.950872 344.297664 290.334926 121.216859 555.846443 111.540403z" fill="#FFE454" /><path d="M511.993128 3.436242C231.575195 3.436242 3.436242 231.575195 3.436242 511.993128s228.138953 508.556886 508.556886 508.556885 508.556886-228.138953 508.556885-508.556885S792.41106 3.436242 511.993128 3.436242z m0 962.133906c-124.584376 0-237.588617-50.499007-319.646068-132.089128a456.037369 456.037369 0 0 1-82.243006-111.402953A450.766174 450.766174 0 0 1 58.416107 511.993128C58.416107 261.889718 261.889718 58.416107 511.993128 58.416107c118.625933 0 226.750711 45.798228 307.660456 120.618953a455.948027 455.948027 0 0 1 101.561557 137.442792 450.834899 450.834899 0 0 1 44.355007 195.515276c0 250.103409-203.473611 453.57702-453.57702 453.57702z" fill="#000000" /><path d="M609.066953 628.804725a189.419383 189.419383 0 0 1 127.436456 27.847302l29.469208-46.416752c-48.918336-31.070497-107.32757-43.812081-164.458523-35.888107-91.864483 12.762201-169.880913 77.947705-198.752215 166.073557l52.244618 17.112483c22.383678-68.312483 82.854658-118.83898 154.067329-128.728483z" fill="#000000" /><path d="M342.476456 402.033396m-54.979865 0a54.979866 54.979866 0 1 0 109.959731 0 54.979866 54.979866 0 1 0-109.959731 0Z" fill="#000000" /><path d="M682.657503 402.033396m-54.979865 0a54.979866 54.979866 0 1 0 109.959731 0 54.979866 54.979866 0 1 0-109.959731 0Z" fill="#000000" /></svg>