<?xml version="1.0" standalone="no"?><!DOCTYPE svg PUBLIC "-//W3C//DTD SVG 1.1//EN" "http://www.w3.org/Graphics/SVG/1.1/DTD/svg11.dtd"><svg class="icon" width="32px" height="31.60px" viewBox="0 0 1037 1024" version="1.1" xmlns="http://www.w3.org/2000/svg"><path d="M827.517868 740.39543c-35.777488-33.293613-76.827157-80.501078-76.827156-121.841339 0-34.345281 14.522713-55.690002 26.706846-67.54203 15.871893-15.429085 36.946777-23.92546 59.370842-23.92546 20.071648 0 40.267836 7.223303 55.759191 21.365477 10.904143-9.956257 24.160702-16.404646 38.046878-19.393599a486.154553 486.154553 0 0 0 10.378308-100.088404c0-39.20233-4.711752-77.311478-13.512557-113.815448a459.053331 459.053331 0 0 0-102.260931-138.356686c-77.456774-46.280336-168.70286-71.492706-265.580908-67.964082-267.303707 9.741772-476.087594 234.3422-466.352741 501.63207a484.902237 484.902237 0 0 0 17.601611 113.033615 459.025655 459.025655 0 0 0 82.798143 112.154918c75.733975 49.082479 166.018338 77.629746 262.99325 77.629746 148.873372 0 282.040905-67.189168 370.879224-172.881859z m-87.323086-382.053203c38.03304 0 72.620482 18.840089 92.526078 50.397065l-46.820008 29.522828c-9.700259-15.387572-26.782954-24.568915-45.699151-24.568915-18.916197 0-35.991973 9.181343-45.692231 24.561996l-46.820008-29.515909c19.891757-31.550057 54.479199-50.397065 92.50532-50.397065z m-142.87471 387.373815c17.29718 0 30.539902-13.699367 30.539902-30.532982 0-16.840535-13.242721-30.532983-30.539902-30.532983v-55.869893c17.29718 0 30.539902-13.699367 30.539902-30.532983 0-16.840535-13.242721-30.532983-30.539902-30.532983v-55.350977c44.972669 0 86.465146 38.531199 86.465146 85.88396 0 22.57628-9.01529 43.12533-23.614111 58.46447 14.59882 15.346058 23.468814 35.895109 23.468814 58.46447 0 47.35968-41.34718 85.890879-86.319849 85.890879v-55.350978z m-195.845595-292.529915a55.350977 55.350977 0 1 1 0-110.701955 55.350977 55.350977 0 0 1 0 110.701955zM892.569104 615.779623h-0.083026c0 0.359781 0.041513 0.691887 0.041513 1.051669 0-0.359781 0.041513-0.691887 0.041513-1.051669z" fill="#FFCE00" /><path d="M930.574469 529.05156c5.832609-1.252316 11.762083-1.96496 17.705394-1.964959 8.039729 0 15.899568 1.10702 23.406545 3.217275a453.947203 453.947203 0 0 0-44.253107-215.149249A485.06829 485.06829 0 0 1 940.959696 428.976993c0 34.317606-3.590895 67.784191-10.378308 100.081486zM827.517868 740.39543C738.679549 846.088121 605.512017 913.298045 456.638644 913.298045c-96.974912 0-187.259275-28.547267-262.99325-77.629745 82.611334 82.133932 196.378349 132.980723 321.803664 132.980723 149.579097 0 282.594415-72.295295 365.93223-183.779083l-5.355207-3.978351a596.040081 596.040081 0 0 1-48.508213-40.48924z" fill="#FFB100" /><path d="M559.598381 108.833859c96.884967-3.528625 188.124134 21.683745 265.587827 67.964082C743.730326 101.472179 634.87571 55.357896 515.449058 55.357896 263.657462 55.357896 58.810413 260.204945 58.810413 512.003459a453.774231 453.774231 0 0 0 52.036838 211.503004 484.902237 484.902237 0 0 1-17.601611-113.033615C83.510787 343.17606 292.294674 118.575631 559.598381 108.833859z" fill="#FFE454" /><path d="M683.785218 715.176141c0-22.562442-9.01529-43.118411-23.614111-58.46447 14.59882-15.346058 23.468814-35.895109 23.468814-58.46447 0-47.352761-41.34718-85.88396-86.319849-85.88396v55.350977c17.29718 0 30.539902 13.699367 30.539902 30.532983 0 16.833616-13.242721 30.532983-30.539902 30.532983v55.869893c17.29718 0 30.539902 13.692448 30.539902 30.526064 0 16.840535-13.242721 30.539902-30.539902 30.539901v55.350978c44.972669 0 86.465146-38.531199 86.465146-85.88396z" fill="#000000" /><path d="M948.279863 581.884068c-6.586766 0-28.076783 2.76063-28.076783 33.895555h-27.633976c0 0.359781-0.041513 0.691887-0.041513 1.051669 0-0.359781-0.041513-0.691887-0.048432-1.051669h-27.627057c0-31.134925-21.496936-33.86096-28.083702-33.86096-14.176769 0-30.726711 9.714097-30.726711 36.37943 0 18.106688 34.096202 62.871791 86.485902 105.222208 52.375862-42.350417 86.485902-86.914872 86.485902-105.021561 0-26.665333-16.556861-36.614672-30.73363-36.614672z" fill="#E36600" /><path d="M1023.81319 572.799589c2.373173-19.947108 3.625489-40.226323 3.625489-60.803048C1027.438679 229.692718 797.766718 0.006919 515.449058 0.006919 233.138317 0.006919 3.459436 229.685799 3.459436 512.003459c0 282.303822 229.678881 511.989622 511.989622 511.989622 212.284836 0 394.790846-129.881068 472.282214-314.3382 25.302316-28.478078 46.633198-61.301207 46.633199-91.093871 0-19.061493-4.483429-34.11004-10.551281-45.761421z m-508.364132 395.842515c-125.425315 0-239.19233-50.846792-321.803664-132.980723a459.115601 459.115601 0 0 1-82.798143-112.154918A453.794988 453.794988 0 0 1 58.810413 511.996541C58.810413 260.204945 263.657462 55.357896 515.449058 55.357896c119.426653 0 228.281268 46.107364 309.73715 121.433126a459.053331 459.053331 0 0 1 102.247093 138.363605 453.898771 453.898771 0 0 1 44.253107 215.149249 86.62428 86.62428 0 0 0-23.406545-3.217275c-5.936392 0-11.872785 0.705725-17.705394 1.958041-13.886176 2.995872-27.142736 9.451179-38.053797 19.400517-15.484436-14.135256-35.680624-21.365477-55.752272-21.365477-22.417146 0-43.498949 8.496375-59.363923 23.92546-12.184134 11.852028-26.713765 33.203668-26.713765 67.548949 0 41.333342 41.049669 88.540807 76.827156 121.841339a595.023007 595.023007 0 0 0 48.508213 40.482321l5.355207 3.978351c-83.337815 111.483787-216.353133 183.786001-365.93223 183.786002z m377.078533-245.121803c-52.3897-42.357335-86.485902-87.115519-86.485902-105.229127 0-26.658414 16.549942-36.37943 30.726711-36.37943 6.586766 0 28.083702 2.732955 28.083702 33.867879H920.196161c0-31.134925 21.496936-33.902474 28.083702-33.902474 14.176769 0 30.726711 9.949338 30.726711 36.614672 0 18.106688-34.096202 62.671144-86.485902 105.02848z" fill="#000000" /><path d="M401.474477 397.83515m-55.350978 0a55.350977 55.350977 0 1 0 110.701955 0 55.350977 55.350977 0 1 0-110.701955 0Z" fill="#000000" /><path d="M740.201701 413.693205c18.909278 0 35.998892 9.181343 45.699151 24.568915l46.820008-29.522828c-19.905595-31.556976-54.493037-50.397065-92.526078-50.397065-38.026121 0.006919-72.613563 18.847008-92.50532 50.403984l46.820008 29.515909c9.700259-15.387572 26.776035-24.568915 45.685312-24.568915z" fill="#000000" /></svg>