<?xml version="1.0" standalone="no"?><!DOCTYPE svg PUBLIC "-//W3C//DTD SVG 1.1//EN" "http://www.w3.org/Graphics/SVG/1.1/DTD/svg11.dtd"><svg class="icon" width="32px" height="32.00px" viewBox="0 0 1024 1024" version="1.1" xmlns="http://www.w3.org/2000/svg"><path d="M934.643973 429.523329c0-38.946362-4.680161-76.793128-13.42196-113.052349a455.948027 455.948027 0 0 0-101.575302-137.43592c-76.93745-45.963168-167.571758-71.013369-263.800268-67.50153-265.511517 9.676456-472.89557 232.764134-463.225987 498.268779a481.651114 481.651114 0 0 0 17.483598 112.275758 455.948027 455.948027 0 0 0 82.243006 111.402953c75.226201 48.753396 164.905235 77.109262 261.22996 77.109262 265.683329 0 481.066953-215.383624 481.066953-481.066953zM652.521664 314.223678l38.870766 38.88451-61.646175 61.639302 61.653047 61.646174-38.877638 38.877638L551.997852 414.74749l100.523812-100.523812zM332.586953 353.108188l38.877638-38.88451L471.98153 414.754362 371.464591 515.278174l-38.877638-38.877637 61.646175-61.646175-61.646175-61.646174zM229.252295 570.409235h565.474792c0 156.149691-126.584268 282.740832-282.733959 282.740832-156.156564 0-282.740832-126.591141-282.740833-282.740832z" fill="#FFCE00" /><path d="M921.215141 316.477852a481.761074 481.761074 0 0 1 13.428832 113.045477c0 265.683329-215.383624 481.066953-481.066953 481.066953-96.324725 0-186.003758-28.348993-261.22996-77.109262 82.05745 81.590121 195.061691 132.089128 319.646068 132.089128 250.103409 0 453.57702-203.473611 453.57702-453.57702a450.876134 450.876134 0 0 0-44.348135-195.522148z" fill="#FFB100" /><path d="M555.846443 111.53353c96.235383-3.511839 186.862819 21.538362 263.807141 67.50153C738.743839 104.214336 630.61906 58.416107 511.993128 58.416107 261.889718 58.416107 58.416107 261.889718 58.416107 511.993128a450.731812 450.731812 0 0 0 51.687947 210.084939 481.651114 481.651114 0 0 1-17.483598-112.275758C82.950872 344.297664 290.334926 121.216859 555.846443 111.540403z" fill="#FFE454" /><path d="M511.993128 3.436242C231.575195 3.436242 3.436242 231.575195 3.436242 511.993128s228.138953 508.556886 508.556886 508.556885 508.556886-228.138953 508.556885-508.556885S792.417933 3.436242 511.993128 3.436242z m0 962.133906c-124.584376 0-237.588617-50.499007-319.646068-132.089128a456.037369 456.037369 0 0 1-82.243006-111.402953A450.731812 450.731812 0 0 1 58.416107 511.993128C58.416107 261.889718 261.889718 58.416107 511.993128 58.416107c118.625933 0 226.750711 45.798228 307.660456 120.618953a455.948027 455.948027 0 0 1 101.561557 137.442792 450.834899 450.834899 0 0 1 44.355007 195.515276c0 250.103409-203.473611 453.57702-453.57702 453.57702z" fill="#000000" /><path d="M371.464591 515.278174l100.516939-100.530684L371.457718 314.223678l-38.870765 38.88451 61.646175 61.639302-61.646175 61.646174zM691.39243 476.400537l-61.646175-61.653047 61.646175-61.639302-38.870766-38.88451L551.997852 414.754362l100.523812 100.530685z" fill="#000000" /><path d="M511.711356 798.170201c106.640322 0 196.106309-73.666148 220.764778-172.7811H290.939705C315.58443 724.497181 405.064161 798.170201 511.711356 798.170201z" fill="#FFFFFF" /><path d="M794.73396 570.409235H229.252295c0 156.149691 126.584268 282.740832 282.740833 282.740832 156.156564 0 282.73396-126.591141 282.733959-282.740832z m-62.821369 54.979866h0.563543c-24.65847 99.114953-114.124456 172.781101-220.764778 172.7811-106.640322 0-196.113181-73.666148-220.771651-172.7811h440.972886z" fill="#000000" /></svg>