<?xml version="1.0" standalone="no"?><!DOCTYPE svg PUBLIC "-//W3C//DTD SVG 1.1//EN" "http://www.w3.org/Graphics/SVG/1.1/DTD/svg11.dtd"><svg class="icon" width="32px" height="32.00px" viewBox="0 0 1024 1024" version="1.1" xmlns="http://www.w3.org/2000/svg"><path d="M934.643973 429.523329c0-38.946362-4.680161-76.793128-13.42196-113.052349a455.948027 455.948027 0 0 0-101.575302-137.43592c-76.93745-45.963168-167.571758-71.013369-263.807141-67.50153-265.504644 9.676456-472.89557 232.764134-463.212241 498.268779a481.829799 481.829799 0 0 0 17.476725 112.275758 455.948027 455.948027 0 0 0 82.243006 111.402953c75.226201 48.753396 164.905235 77.109262 261.22996 77.109262 265.683329 0 481.066953-215.383624 481.066953-481.066953z m-661.469637 182.120805c-54.725584 0-99.080591-44.361879-99.080591-99.08059s44.355007-99.080591 99.080591-99.080591c5.97906 0 11.820671 0.556671 17.511087 1.573799a54.732456 54.732456 0 0 1-3.766121-19.895839 54.979866 54.979866 0 0 1 109.959732 0c0 27.73047-20.56247 50.608966-47.255195 54.368215a98.688859 98.688859 0 0 1 22.624215 63.034416c0 25.331973-9.525262 48.437262-25.160161 65.955221 44.609289 41.468564 103.643919 64.972456 164.898362 64.972456s120.289074-23.503893 164.905235-64.972456a98.688859 98.688859 0 0 1-25.160161-65.955221c0-23.943732 8.494389-45.901315 22.631087-63.027544-26.699597-3.772993-47.255195-26.644617-47.255195-54.375087a54.979866 54.979866 0 0 1 109.959732 0 54.663732 54.663732 0 0 1-3.779866 19.895839 99.788456 99.788456 0 0 1 17.524832-1.573799c54.718711 0 99.073718 44.361879 99.073719 99.080591s-44.355007 99.080591-99.073719 99.08059c-8.865503 0-17.456107-1.182067-25.634362-3.367517-55.797691 57.42647-132.975678 90.201342-213.191302 90.201343s-157.386738-32.774872-213.184429-90.201343c-8.178255 2.178577-16.761987 3.367517-25.62749 3.367517z" fill="#FFCE00" /><path d="M921.215141 316.477852a481.761074 481.761074 0 0 1 13.428832 113.045477c0 265.683329-215.383624 481.066953-481.066953 481.066953-96.324725 0-186.003758-28.348993-261.22996-77.109262 82.05745 81.590121 195.061691 132.089128 319.646068 132.089128 250.103409 0 453.57702-203.473611 453.57702-453.57702a450.876134 450.876134 0 0 0-44.348135-195.522148z" fill="#FFB100" /><path d="M555.846443 111.53353c96.235383-3.511839 186.862819 21.538362 263.807141 67.50153C738.743839 104.214336 630.61906 58.416107 511.993128 58.416107 261.889718 58.416107 58.416107 261.889718 58.416107 511.993128a450.731812 450.731812 0 0 0 51.687947 210.084939 481.829799 481.829799 0 0 1-17.483598-112.275758C82.950872 344.297664 290.334926 121.216859 555.846443 111.540403z" fill="#FFE454" /><path d="M511.993128 3.436242C231.575195 3.436242 3.436242 231.575195 3.436242 511.993128s228.138953 508.556886 508.556886 508.556885 508.556886-228.138953 508.556885-508.556885S792.417933 3.436242 511.993128 3.436242z m0 962.133906c-124.584376 0-237.588617-50.499007-319.646068-132.089128a456.037369 456.037369 0 0 1-82.243006-111.402953A450.766174 450.766174 0 0 1 58.416107 511.993128C58.416107 261.889718 261.889718 58.416107 511.993128 58.416107c118.625933 0 226.750711 45.798228 307.660456 120.618953a455.948027 455.948027 0 0 1 101.561557 137.442792 450.834899 450.834899 0 0 1 44.355007 195.515276c0 250.103409-203.473611 453.57702-453.57702 453.57702z" fill="#000000" /><path d="M725.177557 608.269745a99.025611 99.025611 0 0 1-48.286067-29.744107c-44.616161 41.461691-103.650792 64.972456-164.905235 64.972456s-120.289074-23.510765-164.905235-64.972456a99.032483 99.032483 0 0 1-48.279194 29.750979c55.797691 57.42647 132.968805 90.201342 213.184429 90.201343s157.393611-32.774872 213.18443-90.208215z" fill="#000000" /><path d="M347.087893 578.518765a98.709477 98.709477 0 0 0 25.160161-65.955221 98.688859 98.688859 0 0 0-22.624215-63.027544 54.567517 54.567517 0 0 1-7.724671 0.604779c-23.338953 0-43.227919-14.569664-51.213745-35.084027a99.678497 99.678497 0 0 0-17.511087-1.573799c-54.725584 0-99.080591 44.361879-99.080591 99.080591s44.355007 99.080591 99.080591 99.08059a99.032483 99.032483 0 0 0 73.913557-33.125369zM725.177557 608.269745c8.178255 2.192322 16.768859 3.367517 25.634362 3.367517 54.718711 0 99.073718-44.355007 99.073719-99.073718 0-54.718711-44.355007-99.080591-99.073719-99.080591-5.97906 0-11.827544 0.556671-17.524832 1.573799-7.972081 20.521235-27.867919 35.084027-51.2 35.084027-2.632161 0-5.195597-0.247409-7.724671-0.604779a98.668242 98.668242 0 0 0-22.631087 63.020671 98.688859 98.688859 0 0 0 25.167033 65.962094 99.032483 99.032483 0 0 0 48.279195 29.757852z" fill="#FF9E00" /><path d="M341.892295 450.140779a54.567517 54.567517 0 0 0 7.731544-0.604779c26.692725-3.772993 47.255195-26.644617 47.255195-54.375087a54.979866 54.979866 0 0 0-109.959732 0c0 7.03055 1.360752 13.717477 3.766121 19.895839 7.985826 20.521235 27.874792 35.084027 51.213745 35.084027zM733.29396 415.056752c2.398497-6.17149 3.772993-12.865289 3.772993-19.895839a54.979866 54.979866 0 0 0-109.959732 0c0 27.73047 20.555597 50.608966 47.255195 54.368215 2.529074 0.364242 5.085638 0.611651 7.724671 0.611651 23.332081 0 43.227919-14.569664 51.2-35.084027z" fill="#000000" /></svg>