<?xml version="1.0" standalone="no"?><!DOCTYPE svg PUBLIC "-//W3C//DTD SVG 1.1//EN" "http://www.w3.org/Graphics/SVG/1.1/DTD/svg11.dtd"><svg class="icon" width="32px" height="32.00px" viewBox="0 0 1024 1024" version="1.1" xmlns="http://www.w3.org/2000/svg"><path d="M936.362094 429.523329c0-38.946362-4.680161-76.793128-13.42196-113.052349a455.948027 455.948027 0 0 0-101.575302-137.43592c-76.93745-45.963168-167.571758-71.013369-263.800268-67.50153-265.511517 9.676456-472.89557 232.764134-463.225987 498.268779a481.651114 481.651114 0 0 0 17.483597 112.275758 455.948027 455.948027 0 0 0 82.243007 111.402953c75.226201 48.753396 164.905235 77.109262 261.22996 77.109262 265.683329 0 481.066953-215.383624 481.066953-481.066953z m-252.563758-85.90604a54.979866 54.979866 0 1 1 0 109.959731 54.979866 54.979866 0 0 1 0-109.959731z m-340.18792 0a54.979866 54.979866 0 1 1 0 109.959731 54.979866 54.979866 0 0 1 0-109.959731z m-24.665342 363.210738L238.069691 625.959517l80.86851-80.875383a114.035114 114.035114 0 0 1 80.875383-33.496483 114.014497 114.014497 0 0 1 80.875382 33.496483 113.877047 113.877047 0 0 1 33.01541 70.525423 113.890792 113.890792 0 0 1 33.015409-70.525423 114.014497 114.014497 0 0 1 80.86851-33.496483c29.276779 0 58.546685 11.167785 80.882255 33.496483l80.86851 80.875383-80.875382 80.86851a114.014497 114.014497 0 0 1-80.86851 33.496483 114.014497 114.014497 0 0 1-80.875383-33.496483 113.85643 113.85643 0 0 1-33.015409-70.525423 113.877047 113.877047 0 0 1-33.01541 70.51855 114.014497 114.014497 0 0 1-80.875382 33.503356 114.014497 114.014497 0 0 1-80.86851-33.496483z" fill="#FFCE00" /><path d="M922.933262 316.477852a481.761074 481.761074 0 0 1 13.428832 113.045477c0 265.683329-215.383624 481.066953-481.066953 481.066953-96.324725 0-186.003758-28.348993-261.22996-77.109262 82.05745 81.590121 195.061691 132.089128 319.646067 132.089128 250.103409 0 453.57702-203.473611 453.57702-453.57702a450.876134 450.876134 0 0 0-44.348134-195.522148z" fill="#FFB100" /><path d="M557.564564 111.53353c96.235383-3.511839 186.862819 21.538362 263.807141 67.50153C740.46196 104.214336 632.337181 58.416107 513.711248 58.416107 263.607839 58.416107 60.134228 261.889718 60.134228 511.993128a450.731812 450.731812 0 0 0 51.687946 210.084939 481.651114 481.651114 0 0 1-17.483597-112.275758C84.668993 344.297664 292.053047 121.216859 557.564564 111.540403z" fill="#FFE454" /><path d="M513.711248 3.436242C233.293315 3.436242 5.154362 231.575195 5.154362 511.993128s228.138953 508.556886 508.556886 508.556885 508.556886-228.138953 508.556886-508.556885S794.136054 3.436242 513.711248 3.436242z m0 962.133906c-124.584376 0-237.588617-50.499007-319.646067-132.089128a456.037369 456.037369 0 0 1-82.243007-111.402953A450.731812 450.731812 0 0 1 60.134228 511.993128C60.134228 261.889718 263.607839 58.416107 513.711248 58.416107c118.625933 0 226.750711 45.798228 307.660457 120.618953a455.948027 455.948027 0 0 1 101.561557 137.442792 450.834899 450.834899 0 0 1 44.355006 195.515276c0 250.103409-203.473611 453.57702-453.57702 453.57702z" fill="#000000" /><path d="M513.711248 636.302604a113.877047 113.877047 0 0 0 33.008537 70.51855 114.014497 114.014497 0 0 0 80.875383 33.503356 114.014497 114.014497 0 0 0 80.875382-33.496483l80.875383-80.86851-80.875383-80.875383A114.035114 114.035114 0 0 0 627.595168 511.587651a114.014497 114.014497 0 0 0-80.86851 33.496483 113.877047 113.877047 0 0 0-33.01541 70.525423 113.890792 113.890792 0 0 0-33.015409-70.525423 114.014497 114.014497 0 0 0-80.875383-33.496483c-29.276779 0-58.546685 11.167785-80.875382 33.496483L238.076564 625.959517l80.86851 80.86851a114.014497 114.014497 0 0 0 80.875382 33.496483 114.014497 114.014497 0 0 0 80.875383-33.496483 113.877047 113.877047 0 0 0 33.015409-70.525423z" fill="#000000" /><path d="M343.610416 398.597154m-54.979866 0a54.979866 54.979866 0 1 0 109.959732 0 54.979866 54.979866 0 1 0-109.959732 0Z" fill="#000000" /><path d="M683.805208 398.597154m-54.979866 0a54.979866 54.979866 0 1 0 109.959732 0 54.979866 54.979866 0 1 0-109.959732 0Z" fill="#000000" /></svg>