<?xml version="1.0" standalone="no"?><!DOCTYPE svg PUBLIC "-//W3C//DTD SVG 1.1//EN" "http://www.w3.org/Graphics/SVG/1.1/DTD/svg11.dtd"><svg class="icon" width="32px" height="32.00px" viewBox="0 0 1024 1024" version="1.1" xmlns="http://www.w3.org/2000/svg"><path d="M934.643973 429.523329c0-38.946362-4.680161-76.793128-13.42196-113.052349a455.948027 455.948027 0 0 0-101.575302-137.43592c-76.93745-45.963168-167.571758-71.013369-263.800268-67.50153-265.511517 9.676456-472.89557 232.764134-463.225987 498.268779a481.651114 481.651114 0 0 0 17.483598 112.275758 455.948027 455.948027 0 0 0 82.243006 111.402953c75.226201 48.753396 164.905235 77.109262 261.22996 77.109262 265.683329 0 481.066953-215.383624 481.066953-481.066953z m-252.563758-85.90604a54.979866 54.979866 0 1 1 0 109.959731 54.979866 54.979866 0 0 1 0-109.959731z m-340.18792 0a54.979866 54.979866 0 1 1 0 109.959731 54.979866 54.979866 0 0 1 0-109.959731z m-65.900241 421.626845c-103.039141-60.821477-104.186846-142.150443-104.186846-142.150443s21.662067 12.246765 52.725691 12.246765c3.656161 0 7.429154-0.16494 11.325853-0.542926 25.510658-2.480966 55.694604-19.902711 81.370201-38.169772 28.857557-20.53498 58.409235-31.757745 86.923168-31.757745 0.247409 0 0.171812 0.013745 0.171812 0.013745V563.543624v1.353879c27.489933 0.178685 52.567624 10.226255 74.078497 31.737128 18.32204 18.32204 29.744107 41.681611 33.304053 65.790282a117.512591 117.512591 0 0 1 33.159732-65.790282c21.717047-21.717047 47.337664-31.757745 74.325906-31.757745 28.513933 0 58.670389 11.222765 87.527946 31.757745 25.675597 18.26706 55.873289 35.695678 81.390819 38.169772 3.889826 0.377987 7.676564 0.549799 11.325852 0.549798 31.063624 0 52.739436-12.246765 52.739436-12.246765s-1.147705 81.322094-104.193718 142.143571c-33.977557 19.559087-70.140564 30.087732-104.551087 30.087731-36.314201 0-70.68349-11.738201-98.427705-36.967087-18.672537-16.975034-29.53106-39.090685-33.008536-62.360913-3.484349 23.270228-14.342872 45.379007-33.01541 62.367785-27.744215 25.222013-62.113503 36.960215-98.427705 36.960215-34.417396 0-70.580403-10.528644-104.557959-30.094604z" fill="#FFCE00" /><path d="M921.215141 316.477852a481.761074 481.761074 0 0 1 13.428832 113.045477c0 265.683329-215.383624 481.066953-481.066953 481.066953-96.324725 0-186.003758-28.348993-261.22996-77.109262 82.05745 81.590121 195.061691 132.089128 319.646068 132.089128 250.103409 0 453.57702-203.473611 453.57702-453.57702a450.876134 450.876134 0 0 0-44.348135-195.522148z" fill="#FFB100" /><path d="M555.846443 111.53353c96.235383-3.511839 186.862819 21.538362 263.807141 67.50153C738.743839 104.214336 630.61906 58.416107 511.993128 58.416107 261.889718 58.416107 58.416107 261.889718 58.416107 511.993128a450.731812 450.731812 0 0 0 51.687947 210.084939 481.651114 481.651114 0 0 1-17.483598-112.275758C82.950872 344.297664 290.334926 121.216859 555.846443 111.540403z" fill="#FFE454" /><path d="M511.993128 3.436242C231.575195 3.436242 3.436242 231.575195 3.436242 511.993128s228.138953 508.556886 508.556886 508.556885 508.556886-228.138953 508.556885-508.556885S792.417933 3.436242 511.993128 3.436242z m0 962.133906c-124.584376 0-237.588617-50.499007-319.646068-132.089128a456.037369 456.037369 0 0 1-82.243006-111.402953A450.731812 450.731812 0 0 1 58.416107 511.993128C58.416107 261.889718 261.889718 58.416107 511.993128 58.416107c118.625933 0 226.750711 45.798228 307.660456 120.618953a455.948027 455.948027 0 0 1 101.561557 137.442792 450.834899 450.834899 0 0 1 44.355007 195.515276c0 250.103409-203.473611 453.57702-453.57702 453.57702z" fill="#000000" /><path d="M341.892295 398.597154m-54.979865 0a54.979866 54.979866 0 1 0 109.959731 0 54.979866 54.979866 0 1 0-109.959731 0Z" fill="#000000" /><path d="M682.087087 398.597154m-54.979866 0a54.979866 54.979866 0 1 0 109.959732 0 54.979866 54.979866 0 1 0-109.959732 0Z" fill="#000000" /><path d="M511.993128 696.003866c3.484349 23.270228 14.342872 45.379007 33.008536 62.367785 27.744215 25.222013 62.113503 36.960215 98.427705 36.960215 34.417396 0 70.580403-10.528644 104.55796-30.094604 103.046013-60.814604 104.186846-142.14357 104.186845-142.143571s-21.662067 12.246765-52.725691 12.246765c-3.649289 0-7.429154-0.16494-11.325852-0.542926-25.510658-2.480966-55.701477-19.902711-81.370201-38.169772-28.857557-20.53498-58.979651-31.757745-87.493584-31.757745-26.988242 0-52.540134 10.04757-74.257182 31.757745A117.306416 117.306416 0 0 0 512 662.41804a117.292671 117.292671 0 0 0-33.015409-65.790282c-21.517745-21.510872-46.801611-31.558443-73.508081-31.737127-0.254282 0-0.501691-0.020617-0.749101-0.020618-28.520805 0-58.636027 11.222765-87.500456 31.757745-25.668725 18.26706-55.852671 35.695678-81.370201 38.169772-3.889826 0.377987-7.669691 0.549799-11.325853 0.549799-31.063624 0-52.725691-12.246765-52.725691-12.246765s1.147705 81.322094 104.186846 142.14357c33.977557 19.559087 70.140564 30.087732 104.557959 30.087732 36.314201 0 70.68349-11.738201 98.427705-36.967087 18.679409-16.975034 29.53106-39.090685 33.022282-62.360913z" fill="#000000" /></svg>