<?xml version="1.0" standalone="no"?><!DOCTYPE svg PUBLIC "-//W3C//DTD SVG 1.1//EN" "http://www.w3.org/Graphics/SVG/1.1/DTD/svg11.dtd"><svg class="icon" width="32px" height="32.00px" viewBox="0 0 1024 1024" version="1.1" xmlns="http://www.w3.org/2000/svg"><path d="M932.925852 429.523329c0-38.946362-4.680161-76.793128-13.421959-113.052349a455.975517 455.975517 0 0 0-101.575302-137.43592c-76.93745-45.963168-167.571758-71.013369-263.800269-67.50153-265.511517 9.676456-472.89557 232.764134-463.225986 498.268779a481.829799 481.829799 0 0 0 17.483597 112.275758 455.948027 455.948027 0 0 0 82.243007 111.402953c75.226201 48.753396 164.905235 77.109262 261.229959 77.109262 265.683329 0 481.066953-215.383624 481.066953-481.066953z m-252.563758-85.90604a54.979866 54.979866 0 1 1 0 109.959731 54.979866 54.979866 0 0 1 0-109.959731z m-340.18792 109.959731a54.979866 54.979866 0 1 1 0.006873-109.959731 54.979866 54.979866 0 0 1 0 109.959731z m69.089074 345.823356l61.653047-61.646175-61.646174-61.639302 38.877637-38.870765 62.092886 62.092886 62.106631-62.092886 38.870765 38.870765-61.646174 61.646175 61.646174 61.646174-38.877637 38.877638-62.092886-62.106631-62.099759 62.106631-38.88451-38.877638z" fill="#FFCE00" /><path d="M919.49702 316.47098a481.816054 481.816054 0 0 1 13.428832 113.052349c0 265.683329-215.383624 481.066953-481.066953 481.066953-96.324725 0-186.003758-28.348993-261.229959-77.109262 82.05745 81.590121 195.061691 132.089128 319.646067 132.089128 250.103409 0 453.57702-203.473611 453.57702-453.57702a450.903624 450.903624 0 0 0-44.348134-195.522148z" fill="#FFB100" /><path d="M554.128322 111.53353c96.235383-3.511839 186.862819 21.538362 263.807141 67.50153C737.025718 104.207463 628.90094 58.416107 510.275007 58.416107 260.171597 58.416107 56.697987 261.889718 56.697987 511.993128a450.731812 450.731812 0 0 0 51.687946 210.084939 481.829799 481.829799 0 0 1-17.483597-112.275758C81.232752 344.297664 288.616805 121.216859 554.128322 111.540403z" fill="#FFE454" /><path d="M510.275007 3.436242C229.857074 3.436242 1.718121 231.575195 1.718121 511.993128s228.138953 508.556886 508.556886 508.556885 508.556886-228.138953 508.556886-508.556885S790.69294 3.436242 510.275007 3.436242z m0 962.133906c-124.584376 0-237.588617-50.499007-319.646067-132.089128a456.037369 456.037369 0 0 1-82.243007-111.402953A450.766174 450.766174 0 0 1 56.697987 511.993128C56.697987 261.889718 260.171597 58.416107 510.275007 58.416107c118.625933 0 226.750711 45.798228 307.660456 120.618953a455.975517 455.975517 0 0 1 101.561557 137.43592 450.855517 450.855517 0 0 1 44.355007 195.522148c0 250.103409-203.473611 453.57702-453.57702 453.57702z" fill="#000000" /><path d="M572.340403 838.284886l38.877637-38.877638-61.646174-61.653047 61.646174-61.639302-38.870765-38.877637-62.106631 62.092886-62.099758-62.092886-38.870765 38.877637 61.646174 61.639302-61.646174 61.646175 38.877637 38.877637 62.092886-62.092885z" fill="#000000" /><path d="M340.174174 398.597154m-54.979865 0a54.979866 54.979866 0 1 0 109.959731 0 54.979866 54.979866 0 1 0-109.959731 0Z" fill="#000000" /><path d="M680.368966 398.597154m-54.979865 0a54.979866 54.979866 0 1 0 109.959731 0 54.979866 54.979866 0 1 0-109.959731 0Z" fill="#000000" /></svg>