<?xml version="1.0" standalone="no"?><!DOCTYPE svg PUBLIC "-//W3C//DTD SVG 1.1//EN" "http://www.w3.org/Graphics/SVG/1.1/DTD/svg11.dtd"><svg class="icon" width="32px" height="31.81px" viewBox="0 0 1030 1024" version="1.1" xmlns="http://www.w3.org/2000/svg"><path d="M940.357189 453.18227h-59.931675c-13.201297 79.802811-82.515027 140.689297-166.060973 140.689298-83.545946 0-152.852757-60.886486-166.054055-140.689298h-65.72281c-13.201297 79.802811-82.515027 140.689297-166.060973 140.689298-83.545946 0-152.845838-60.886486-166.054054-140.689298h-37.106163a483.701622 483.701622 0 0 0-20.120216 157.287784 484.905514 484.905514 0 0 0 17.60173 113.02746 459.028757 459.028757 0 0 0 82.798703 112.155675c75.734486 49.082811 166.019459 77.63027 262.995027 77.63027 259.362595 0 471.10227-203.872865 483.715459-460.108108z m-653.519567 172.972973h457.222919c0 126.090378-102.358486 228.608-228.608 228.608-126.263351 0-228.614919-102.524541-228.614919-228.608zM825.191784 176.785297c-77.464216-46.27373-168.710919-71.493189-265.589622-67.957621-191.709405 6.988108-353.307676 124.492108-425.79027 289.003243h16.660757c13.208216-79.80973 82.515027-140.689297 166.054054-140.689297s152.852757 60.886486 166.060973 140.689297h65.72281c13.208216-79.80973 82.515027-140.689297 166.054055-140.689297 83.545946 0 152.852757 60.886486 166.060973 140.689297h59.537297a483.404108 483.404108 0 0 0-12.523243-82.681081 458.987243 458.987243 0 0 0-102.254703-138.364541z" fill="#FFCE00" /><path d="M968.316541 453.18227h-27.959352c-12.613189 256.221405-224.359784 460.101189-483.715459 460.101189-96.975568 0-187.260541-28.540541-262.995027-77.63027 82.611892 82.141405 196.379676 132.981622 321.805838 132.981622 251.793297 0 456.64173-204.848432 456.641729-456.64173 0-19.926486-1.286919-39.555459-3.777729-58.810811zM927.439568 315.156757a483.113514 483.113514 0 0 1 12.523243 82.674162h17.677838a452.718703 452.718703 0 0 0-30.194163-82.681081z" fill="#FFB100" /><path d="M559.602162 108.827676c96.885622-3.535568 188.125405 21.683892 265.589622 67.957621C743.735351 101.459027 634.88 55.351351 515.452541 55.351351c-212.383135 0-391.375568 145.747027-442.188109 342.472649h60.54746c72.482595-164.504216 234.080865-282.008216 425.79027-289.003243zM113.373405 453.18227h-50.784864a459.609946 459.609946 0 0 0-3.77773 58.810811 453.777297 453.777297 0 0 0 52.037189 211.504433 484.905514 484.905514 0 0 1-17.60173-113.034379A483.812324 483.812324 0 0 1 113.373405 453.189189z" fill="#FFE454" /><path d="M515.452541 0C233.139892 0 3.459459 229.680432 3.459459 511.993081s229.680432 511.993081 511.993082 511.993081 511.993081-229.680432 511.993081-511.993081S797.772108 0 515.452541 0z m0 968.634811c-125.426162 0-239.193946-50.840216-321.805838-132.981622a459.118703 459.118703 0 0 1-82.798703-112.155675A453.777297 453.777297 0 0 1 58.810811 511.993081c0-19.926486 1.293838-39.555459 3.77773-58.810811h87.891027c13.201297 79.802811 82.508108 140.689297 166.054054 140.689298 83.539027 0 152.852757-60.886486 166.054054-140.689298h65.729729c13.201297 79.802811 82.508108 140.689297 166.054054 140.689298 83.539027 0 152.852757-60.886486 166.054055-140.689298H968.316541c2.490811 19.255351 3.784649 38.884324 3.784648 58.810811-0.006919 251.793297-204.855351 456.64173-456.648648 456.64173z m424.51027-570.810811h-59.537297c-13.208216-79.795892-82.515027-140.675459-166.060973-140.675459-83.539027 0-152.845838 60.879568-166.054055 140.682378h-65.72281C469.379459 318.01427 400.072649 257.141622 316.526703 257.141622c-83.539027 0-152.845838 60.886486-166.054054 140.689297h-77.215135C124.076973 201.091459 303.069405 55.351351 515.459459 55.351351c119.427459 0 228.282811 46.107676 309.739244 121.433946a459.028757 459.028757 0 0 1 102.247783 138.37146 452.815568 452.815568 0 0 1 30.201082 82.674162h-17.677838zM827.378162 425.513514c0 62.311784-50.694919 113.006703-113.013621 113.006702-62.311784 0-113.006703-50.688-113.006703-113.006702 0-62.318703 50.694919-113.013622 113.006703-113.013622 62.318703 0 113.013622 50.701838 113.013621 113.013622z m-397.837838 0c0 62.311784-50.694919 113.006703-113.013621 113.006702-62.311784 0-113.006703-50.688-113.006703-113.006702 0-62.318703 50.694919-113.013622 113.006703-113.013622 62.318703 0 113.013622 50.701838 113.013621 113.013622z" fill="#000000" /><path d="M316.526703 312.499892c-62.311784 0-113.006703 50.694919-113.006703 113.006703 0 62.311784 50.694919 113.006703 113.006703 113.006702 62.318703 0 113.013622-50.688 113.013621-113.006702 0-62.318703-50.694919-113.013622-113.013621-113.013622z m55.351351 113.006703a55.351351 55.351351 0 1 1-110.702703 0 55.351351 55.351351 0 0 1 110.702703 0zM714.364541 312.499892c-62.311784 0-113.006703 50.694919-113.006703 113.006703 0 62.311784 50.694919 113.006703 113.006703 113.006702 62.318703 0 113.013622-50.688 113.013621-113.006702 0-62.318703-50.694919-113.013622-113.013621-113.013622z m55.351351 113.006703a55.351351 55.351351 0 1 1-110.702703 0 55.351351 55.351351 0 0 1 110.702703 0z" fill="#FFE454" /><path d="M316.526703 425.506595m-55.351352 0a55.351351 55.351351 0 1 0 110.702703 0 55.351351 55.351351 0 1 0-110.702703 0Z" fill="#000000" /><path d="M714.364541 425.506595m-55.351352 0a55.351351 55.351351 0 1 0 110.702703 0 55.351351 55.351351 0 1 0-110.702703 0Z" fill="#000000" /><path d="M515.044324 799.411892c76.191135 0 140.654703-49.435676 163.805406-117.905297H351.259676c23.136865 68.476541 87.593514 117.905297 163.784648 117.905297z" fill="#FFFFFF" /><path d="M744.060541 626.155243H286.837622c0 126.090378 102.351568 228.608 228.614919 228.608 126.256432 0 228.608-102.524541 228.608-228.608z m-66.013406 55.351352h0.795676c-23.143784 68.476541-87.607351 117.905297-163.798487 117.905297-76.191135 0-140.647784-49.435676-163.791567-117.905297h326.794378z" fill="#000000" /></svg>