<?xml version="1.0" standalone="no"?><!DOCTYPE svg PUBLIC "-//W3C//DTD SVG 1.1//EN" "http://www.w3.org/Graphics/SVG/1.1/DTD/svg11.dtd"><svg class="icon" width="32px" height="31.81px" viewBox="0 0 1030 1024" version="1.1" xmlns="http://www.w3.org/2000/svg"><path d="M928.214486 318.256432c-0.242162-1.037838-0.518919-2.068757-0.774918-3.099675a459.028757 459.028757 0 0 0-102.254703-138.37146c-77.457297-46.27373-168.704-71.493189-265.589622-67.957621-159.093622 5.798054-297.444324 87.711135-381.350054 209.435675H928.214486zM940.959135 428.966054c0-18.729514-1.120865-37.189189-3.19654-55.351351h-29.087136v80.633081c0 93.882811-76.813838 170.260757-171.243243 170.260757-94.422486 0-171.243243-76.703135-171.243243-170.987244v-79.913513h-107.243243v80.64c0 81.491027-57.316324 149.76-134.351568 166.372324-1.708973 18.646486-8.012108 36.642595-18.971676 52.327784 55.752649 73.202162 147.988757 113.075892 240.162595 102.413838 77.007568-8.876973 148.300108-53.248 190.59546-118.687135l46.52281 30.041946c-51.165405 79.187027-137.382054 132.877838-230.649081 143.636756-11.96973 1.376865-23.925622 2.054919-35.84 2.054919-97.944216 0-192.110703-45.824-252.436756-123.212108a107.644541 107.644541 0 0 1-48.06573 11.402378c-7.908324 0-15.878919-0.871784-23.780325-2.663783l12.239568-53.981406c17.733189 4.012973 36.296649-1.570595 49.670919-14.937946 7.340973-7.334054 11.741405-16.245622 14.093838-25.72454-84.964324-9.990919-151.676541-82.286703-151.676541-169.762595v-13.664865a494.91027 494.91027 0 0 0-23.787243 170.613622c1.432216 39.098811 7.797622 76.931459 17.885405 113.027459a459.658378 459.658378 0 0 0 82.944 112.155676c75.734486 49.08973 166.088649 77.63027 263.071136 77.63027 267.478486-0.006919 484.386595-216.845838 484.386594-484.324324z" fill="#FFCE00" /><path d="M950.638703 373.607784h-12.876108c2.075676 18.176 3.196541 36.628757 3.19654 55.35827 0 267.478486-216.838919 484.317405-484.317405 484.317405-96.975568 0-187.260541-28.540541-262.995027-77.63027 82.611892 82.141405 196.379676 132.981622 321.805838 132.981622 251.793297 0 456.64173-204.848432 456.641729-456.64173 0-48.224865-7.541622-94.713081-21.455567-138.378378zM928.899459 318.256432c-0.491243-1.030919-0.954811-2.075676-1.452973-3.099675 0.249081 1.037838 0.525838 2.068757 0.768 3.106594h0.684973z" fill="#FFB100" /><path d="M559.602162 108.827676c96.885622-3.535568 188.125405 21.683892 265.589622 67.957621C743.735351 101.459027 634.88 55.351351 515.452541 55.351351 332.889946 55.351351 175.027892 163.058162 102.005622 318.256432h76.246486c83.898811-121.717622 222.256432-203.630703 381.350054-209.435675zM116.459243 439.863351v-66.248648h-36.192865a454.939676 454.939676 0 0 0-21.455567 138.378378 453.777297 453.777297 0 0 0 52.037189 211.504433c-10.094703-36.096-16.743784-73.92173-18.176-113.034379a494.91027 494.91027 0 0 1 23.787243-170.599784z" fill="#FFE454" /><path d="M515.452541 0C233.139892 0 3.459459 229.680432 3.459459 511.993081s229.680432 511.993081 511.993082 511.993081 511.993081-229.680432 511.993081-511.993081S797.772108 0 515.452541 0z m0 968.634811c-125.426162 0-239.193946-50.840216-321.805838-132.981622a459.118703 459.118703 0 0 1-82.798703-112.155675A453.811892 453.811892 0 0 1 58.810811 511.993081c0-48.224865 7.541622-94.713081 21.455567-138.378378h36.192865v79.899675c0 87.475892 66.712216 159.778595 151.676541 169.769514a54.638703 54.638703 0 0 1-14.377514 25.72454c-13.381189 13.367351-31.799351 18.944-49.539459 14.931027l-12.156541 53.988325c7.901405 1.792 15.899676 2.663784 23.808 2.663784a107.727568 107.727568 0 0 0 48.086487-11.402379c60.332973 77.388108 154.520216 123.212108 252.457513 123.212108 11.907459 0 23.877189-0.678054 35.846919-2.061838 93.267027-10.758919 179.504432-64.44973 230.669838-143.636756l-46.488216-30.035027c-42.288432 65.432216-113.504865 109.803243-190.519352 118.680216-92.180757 10.662054-184.271568-29.204757-240.017297-102.413838 10.959568-15.685189 16.979027-33.681297 18.681081-52.327784 77.035243-16.605405 134.358486-84.874378 134.358487-166.372324V373.600865h107.243243v79.906594c0 94.284108 76.820757 170.994162 171.243243 170.994163s171.243243-76.384865 171.243243-170.267676V373.600865h41.956325a454.981189 454.981189 0 0 1 21.462486 138.378378c0 251.807135-204.848432 456.655568-456.641729 456.655568z m106.087783-595.027027h231.783784v80.64c0 63.356541-51.981838 114.909405-115.891892 114.909405-63.903135 0-115.891892-51.878054-115.891892-115.635892v-79.913513z m-519.534702-55.351352C175.027892 163.072 332.889946 55.351351 515.452541 55.351351c119.427459 0 228.282811 46.107676 309.739243 121.433946a459.028757 459.028757 0 0 1 102.247784 138.37146c0.498162 1.024 0.968649 2.075676 1.459891 3.106594H102.005622z m185.703783 250.907676c-63.910054 0-115.898811-51.884973-115.89881-115.64973V373.621622h231.783783v80.633081c0 63.356541-51.988757 114.909405-115.891892 114.909405z" fill="#000000" /><path d="M403.594378 454.247784V373.607784h-231.783783v79.913513c0 63.757838 51.988757 115.635892 115.891891 115.635892s115.891892-51.545946 115.891892-114.909405z m-114.743351 64.664216a55.351351 55.351351 0 1 1 0.006919-110.702703 55.351351 55.351351 0 0 1 0 110.702703z" fill="#FFE454" /><path d="M288.851027 463.560649m-55.351351 0a55.351351 55.351351 0 1 0 110.702702 0 55.351351 55.351351 0 1 0-110.702702 0Z" fill="#000000" /><path d="M737.432216 569.157189c63.910054 0 115.891892-51.545946 115.891892-114.909405V373.607784h-231.783784v79.913513c0 63.757838 51.988757 115.635892 115.891892 115.635892zM738.594595 408.216216a55.351351 55.351351 0 1 1-0.006919 110.702703 55.351351 55.351351 0 0 1 0-110.702703z" fill="#FFE454" /><path d="M738.587676 463.560649m-55.351352 0a55.351351 55.351351 0 1 0 110.702703 0 55.351351 55.351351 0 1 0-110.702703 0Z" fill="#000000" /></svg>