<?xml version="1.0" standalone="no"?><!DOCTYPE svg PUBLIC "-//W3C//DTD SVG 1.1//EN" "http://www.w3.org/Graphics/SVG/1.1/DTD/svg11.dtd"><svg class="icon" width="32px" height="31.81px" viewBox="0 0 1030 1024" version="1.1" xmlns="http://www.w3.org/2000/svg"><path d="M826.921514 176.785297c-77.464216-46.27373-168.710919-71.493189-265.589622-67.957621-127.619459 4.649514-241.878486 58.298811-325.403676 142.163027a167.507027 167.507027 0 0 1 82.335135-21.517838c83.539027 0 152.852757 60.879568 166.054054 140.682378h65.72973c13.208216-79.80973 82.515027-140.689297 166.054054-140.689297 76.371027 0 140.841514 50.88173 161.439135 120.582919l46.086919-46.086919a459.430054 459.430054 0 0 0-96.705729-127.176649zM942.688865 428.966054c0-20.957405-1.356108-41.596541-3.943784-61.855135l-56.209297 56.216216c-9.79027 64.415135-56.084757 116.825946-117.12346 135.507027-11.125622 10.143135-18.508108 24.444541-18.508108 39.638487 0 29.751351 25.115676 53.960649 52.791352 53.960648v55.351352c-27.675676 0-57.717622-13.083676-77.671784-34.013406-61.052541 39.991351-131.203459 61.024865-205.132108 61.024865-74.779676 0.006919-146.314378-21.469405-207.795892-62.291027-20.175568 21.676973-49.075892 35.279568-80.211027 35.279568v-55.351352c31.135135 0 54.451892-24.202378 54.451892-53.960648 0-14.412108-5.369081-27.959351-15.560649-38.150919l-1.349189-1.466811-0.698811-1.037838c-59.468108-19.504432-104.330378-71.188757-113.947676-134.489946l-19.027027-19.047784c-26.748541 63.197405-40.454919 133.085405-37.791135 206.183784a485.085405 485.085405 0 0 0 17.608649 113.034379 459.118703 459.118703 0 0 0 82.791784 112.155675c75.734486 49.082811 166.026378 77.63027 263.001946 77.63027 267.485405 0 484.324324-216.838919 484.324324-484.317405z" fill="#FFCE00" /><path d="M517.18227 679.444757c64.366703 0 125.606054-18.715676 178.397406-54.20973a107.789838 107.789838 0 0 1 1.909621-60.090811c-75.049514-8.25427-135.237189-65.840432-147.449081-139.637621h-65.72973c-12.35027 74.682811-73.852541 132.774054-150.168216 139.914378a109.042162 109.042162 0 0 1 5.12 33.051676c0 8.620973-1.065514 17.006703-3.002811 25.060324 53.351784 36.601081 115.476757 55.911784 180.922811 55.911784z" fill="#FFCE00" /><path d="M947.283027 358.579892l-8.531027 8.531027c2.580757 20.258595 3.936865 40.89773 3.936865 61.855135 0 267.478486-216.838919 484.317405-484.317406 484.317405-96.975568 0-187.260541-28.540541-262.995027-77.63027 82.611892 82.141405 196.379676 132.981622 321.805838 132.981622 251.793297 0 456.64173-204.848432 456.64173-456.64173a454.572973 454.572973 0 0 0-26.540973-153.413189z" fill="#FFB100" /><path d="M132.774054 404.279351l-45.69254-45.69254A454.559135 454.559135 0 0 0 60.540541 511.993081a453.777297 453.777297 0 0 0 52.037189 211.504433 485.085405 485.085405 0 0 1-17.60173-113.034379c-2.663784-73.098378 11.056432-142.986378 37.798054-206.183784zM561.331892 108.827676c96.885622-3.535568 188.125405 21.683892 265.589622 67.957621C745.465081 101.459027 636.60973 55.351351 517.18227 55.351351c-176.916757 0-330.655135 101.126919-406.438054 248.617514l46.08 46.08a168.745514 168.745514 0 0 1 79.097081-99.058162C319.453405 167.126486 433.712432 113.477189 561.331892 108.820757z" fill="#FFE454" /><path d="M517.18227 0C234.869622 0 5.189189 229.680432 5.189189 511.993081s229.680432 511.993081 511.993081 511.993081 511.993081-229.680432 511.993081-511.993081S799.494919 0 517.18227 0z m0 968.634811c-125.426162 0-239.193946-50.840216-321.805838-132.981622a459.118703 459.118703 0 0 1-82.798702-112.155675A453.777297 453.777297 0 0 1 60.540541 511.993081a454.545297 454.545297 0 0 1 26.540973-153.40627l45.69254 45.69254 19.047784 19.047784c9.617297 63.301189 54.507243 114.992432 113.98227 134.489946l0.768 1.037838 1.501406 1.466811c10.184649 10.191568 15.270054 23.738811 15.270054 38.150919 0 29.751351-23.316757 53.960649-54.451892 53.960648v55.351352c31.135135 0 60.173838-13.609514 80.356324-35.286487 61.481514 40.828541 132.870919 62.304865 207.650595 62.297946 73.935568 0 143.93427-21.033514 204.98681-61.024865 19.954162 20.92973 50.148324 34.013405 77.824 34.013406v-55.351352c-27.675676 0-52.805189-24.202378-52.805189-53.960648 0-15.193946 7.10573-29.495351 18.231352-39.638487 61.031784-18.681081 107.478486-71.098811 117.261837-135.513946l56.285406-56.202378 8.565621-8.537946a454.572973 454.572973 0 0 1 26.56173 153.413189c0 251.793297-204.834595 456.64173-456.627892 456.64173z m360.358054-618.579027c-20.604541-69.708108-85.068108-120.582919-161.439135-120.582919-83.545946 0-152.852757 60.879568-166.060973 140.682378h-65.722811c-13.208216-79.802811-82.515027-140.682378-166.054054-140.682378a167.520865 167.520865 0 0 0-82.342054 21.524757 168.717838 168.717838 0 0 0-79.097081 99.058162l-46.08-46.08C186.527135 156.485189 340.258595 55.351351 517.18227 55.351351c119.427459 0 228.282811 46.107676 309.739244 121.433946a459.319351 459.319351 0 0 1 96.705729 127.176649l-46.086919 46.086919z m-672.290594 47.775135c0-62.318703 50.694919-113.013622 113.013621-113.013622 62.311784 0 113.006703 50.701838 113.006703 113.013622s-50.694919 113.006703-113.013622 113.006703c-62.311784 0-113.006703-50.688-113.006702-113.006703z m128.899459 167.590054c76.315676-7.140324 137.811027-65.231568 150.168216-139.921297h65.722811c12.211892 73.804108 72.399568 131.39027 147.456 139.64454a107.955892 107.955892 0 0 0-1.909621 60.090811c-52.805189 35.494054-114.037622 54.20973-178.404325 54.20973-65.446054 0-127.564108-19.303784-180.915892-55.911784 1.937297-8.053622 3.002811-16.439351 3.002811-25.060324 0-11.381622-1.771243-22.500324-5.12-33.051676z m381.952-54.583351c-62.318703 0-113.013622-50.688-113.013621-113.006703 0-62.318703 50.694919-113.013622 113.013621-113.013622 62.311784 0 113.006703 50.701838 113.006703 113.013622s-50.694919 113.006703-113.006703 113.006703z" fill="#000000" /><path d="M431.270054 397.830919c0-62.318703-50.694919-113.013622-113.013622-113.013622-62.311784 0-113.006703 50.701838-113.006702 113.013622s50.694919 113.006703 113.013621 113.006703c62.311784 0 113.006703-50.688 113.006703-113.006703z m-168.364973 0a55.351351 55.351351 0 1 1 110.709622 0 55.351351 55.351351 0 0 1-110.702703 0zM829.107892 397.830919c0-62.318703-50.694919-113.013622-113.006703-113.013622-62.318703 0-113.013622 50.701838-113.013621 113.013622s50.694919 113.006703 113.013621 113.006703c62.311784 0 113.006703-50.688 113.006703-113.006703z m-168.358054 0a55.351351 55.351351 0 1 1 110.702703 0 55.351351 55.351351 0 0 1-110.702703 0z" fill="#FFFFFF" /><path d="M318.256432 397.830919m-55.351351 0a55.351351 55.351351 0 1 0 110.702703 0 55.351351 55.351351 0 1 0-110.702703 0Z" fill="#000000" /><path d="M716.101189 397.830919m-55.351351 0a55.351351 55.351351 0 1 0 110.702703 0 55.351351 55.351351 0 1 0-110.702703 0Z" fill="#000000" /></svg>