<?xml version="1.0" standalone="no"?><!DOCTYPE svg PUBLIC "-//W3C//DTD SVG 1.1//EN" "http://www.w3.org/Graphics/SVG/1.1/DTD/svg11.dtd"><svg class="icon" width="32px" height="31.81px" viewBox="0 0 1030 1024" version="1.1" xmlns="http://www.w3.org/2000/svg"><path d="M939.229405 428.966054c0-39.209514-4.711784-77.312-13.512648-113.816216a459.056432 459.056432 0 0 0-102.261622-138.364541c-77.457297-46.27373-168.704-71.493189-265.582703-67.957621-267.305514 9.741838-476.090811 234.336865-466.355891 501.635459a485.085405 485.085405 0 0 0 17.601729 113.034379 459.028757 459.028757 0 0 0 82.798703 112.155675c75.734486 49.082811 166.019459 77.63027 262.995027 77.63027 267.478486 0 484.317405-216.838919 484.317405-484.317405z m-253.682162-86.486486a55.351351 55.351351 0 1 1 0 110.702702 55.351351 55.351351 0 0 1 0-110.702702z m-342.486486 0a55.351351 55.351351 0 1 1 0 110.702702 55.351351 55.351351 0 0 1 0-110.702702z m-37.036973 402.674162l-43.706811-33.971892c74.170811-95.411892 198.545297-141.062919 316.844973-116.348541 73.548108 15.387676 139.596108 56.707459 185.966703 116.348541l-43.699892 33.971892c-38.323892-49.290378-92.879568-83.435243-153.6-96.13146-97.750486-20.452324-200.524108 17.297297-261.811892 96.13146z" fill="#FFCE00" /><path d="M925.709838 315.149838a485.071568 485.071568 0 0 1 13.519567 113.816216c0 267.478486-216.838919 484.317405-484.317405 484.317405-96.975568 0-187.260541-28.540541-262.995027-77.63027 82.611892 82.141405 196.379676 132.981622 321.805838 132.981622 251.793297 0 456.64173-204.848432 456.64173-456.64173a453.95027 453.95027 0 0 0-44.647784-196.843243z" fill="#FFB100" /><path d="M557.872432 108.827676c96.885622-3.535568 188.125405 21.683892 265.589622 67.957621C742.005622 101.452108 633.15027 55.351351 513.722811 55.351351 261.929514 55.351351 57.081081 260.199784 57.081081 511.993081a453.784216 453.784216 0 0 0 52.037189 211.504433 485.085405 485.085405 0 0 1-17.601729-113.034379C81.781622 343.164541 290.566919 118.576432 557.872432 108.834595z" fill="#FFE454" /><path d="M513.722811 0C231.410162 0 1.72973 229.680432 1.72973 511.993081s229.680432 511.993081 511.993081 511.993081 511.993081-229.680432 511.993081-511.993081S796.035459 0 513.722811 0z m0 968.634811c-125.426162 0-239.193946-50.840216-321.805838-132.981622a459.118703 459.118703 0 0 1-82.798703-112.155675A453.82573 453.82573 0 0 1 57.081081 511.993081C57.081081 260.199784 261.929514 55.351351 513.722811 55.351351c119.427459 0 228.282811 46.107676 309.739243 121.433946a459.056432 459.056432 0 0 1 102.247784 138.364541 453.901838 453.901838 0 0 1 44.654703 196.843243c0 251.793297-204.848432 456.64173-456.64173 456.64173z" fill="#000000" /><path d="M567.828757 649.015351c60.727351 12.703135 115.276108 46.841081 153.6 96.138379l43.699892-33.971892c-46.363676-59.641081-112.411676-100.960865-185.966703-116.348541C460.86227 570.118919 336.494703 615.783784 262.316973 711.181838l43.706811 33.971892c61.287784-78.834162 164.054486-116.583784 261.804973-96.13146z" fill="#000000" /><path d="M343.060757 397.830919m-55.351352 0a55.351351 55.351351 0 1 0 110.702703 0 55.351351 55.351351 0 1 0-110.702703 0Z" fill="#000000" /><path d="M685.547243 397.830919m-55.351351 0a55.351351 55.351351 0 1 0 110.702703 0 55.351351 55.351351 0 1 0-110.702703 0Z" fill="#000000" /></svg>