<?xml version="1.0" standalone="no"?><!DOCTYPE svg PUBLIC "-//W3C//DTD SVG 1.1//EN" "http://www.w3.org/Graphics/SVG/1.1/DTD/svg11.dtd"><svg class="icon" width="32px" height="32.00px" viewBox="0 0 1024 1024" version="1.1" xmlns="http://www.w3.org/2000/svg"><path d="M934.643973 429.523329c0-38.946362-4.680161-76.793128-13.42196-113.052349a455.975517 455.975517 0 0 0-101.575302-137.43592c-76.93745-45.963168-167.571758-71.013369-263.807141-67.50153-129.085852 4.700779-244.419866 59.859329-327.769342 145.806604l157.091222-68.030711 21.854496 50.450899-174.114362 75.404886-18.62443-42.987382C134.570094 361.575087 87.92655 480.668349 92.634201 609.802309a481.829799 481.829799 0 0 0 17.476725 112.275758 455.948027 455.948027 0 0 0 82.243007 111.402953c75.226201 48.753396 164.905235 77.109262 261.22996 77.109262 265.683329 0 481.066953-215.383624 481.066953-481.066953zM638.81106 189.309423l174.121235 75.404886-21.854496 50.450899-174.121235-75.404886 21.854496-50.450899z m98.255893 212.723973a54.979866 54.979866 0 1 1-109.966604 0 54.979866 54.979866 0 0 1 109.959732 0z m-395.167785-54.979866a54.979866 54.979866 0 1 1-0.006873 109.959732 54.979866 54.979866 0 0 1 0-109.959732z m-69.116564 376.302819l-50.334067-22.122523c47.667544-108.468403 154.809557-182.505664 272.961289-188.622175 118.907705-6.178362 233.630067 56.890416 292.128644 160.623678a316.986416 316.986416 0 0 1 13.999248 27.998497l-50.334067 22.115651a261.470497 261.470497 0 0 0-11.552644-23.105289C691.303087 614.523705 596.462819 562.423409 498.248161 567.515919c-97.589262 5.058148-186.079356 66.223248-225.465557 155.84043z" fill="#FFCE00" /><path d="M921.215141 316.47098a481.816054 481.816054 0 0 1 13.428832 113.052349c0 265.683329-215.383624 481.066953-481.066953 481.066953-96.324725 0-186.003758-28.348993-261.22996-77.109262 82.05745 81.590121 195.061691 132.089128 319.646068 132.089128 250.103409 0 453.57702-203.473611 453.57702-453.57702a450.903624 450.903624 0 0 0-44.348135-195.522148z" fill="#FFB100" /><path d="M214.284027 272.177826l-3.23694-7.463517 17.030014-7.374175c83.349477-85.947275 198.68349-141.105826 327.769342-145.806604 96.235383-3.511839 186.862819 21.538362 263.807141 67.50153C738.743839 104.214336 630.61906 58.416107 511.993128 58.416107 261.889718 58.416107 58.416107 261.889718 58.416107 511.993128a450.738685 450.738685 0 0 0 51.687947 210.084939 481.829799 481.829799 0 0 1-17.483598-112.275758c-4.700779-129.13396 41.949638-248.227221 121.663571-337.624483z" fill="#FFE454" /><path d="M511.993128 3.436242C231.575195 3.436242 3.436242 231.575195 3.436242 511.993128s228.138953 508.556886 508.556886 508.556885 508.556886-228.138953 508.556885-508.556885S792.417933 3.436242 511.993128 3.436242z m0 962.133906c-124.584376 0-237.588617-50.499007-319.646068-132.089128a456.037369 456.037369 0 0 1-82.243006-111.402953A450.779919 450.779919 0 0 1 58.416107 511.993128C58.416107 261.889718 261.889718 58.416107 511.993128 58.416107c118.625933 0 226.750711 45.798228 307.660456 120.618953a455.975517 455.975517 0 0 1 101.561557 137.43592 450.855517 450.855517 0 0 1 44.355007 195.522148c0 250.103409-203.473611 453.57702-453.57702 453.57702z m-191.969074-12.377343l2.480966 1.085853-2.480966-1.085853z" fill="#000000" /><path d="M341.892295 402.033396m-54.979865 0a54.979866 54.979866 0 1 0 109.959731 0 54.979866 54.979866 0 1 0-109.959731 0Z" fill="#000000" /><path d="M682.087087 402.033396m-54.979866 0a54.979866 54.979866 0 1 0 109.959732 0 54.979866 54.979866 0 1 0-109.959732 0Z" fill="#000000" /><path d="M791.070926 315.172081L616.963436 239.767195l21.847624-50.444027 174.10749 75.398013zM214.284027 272.177826l18.617557 42.987382 174.114362-75.404886-21.847624-50.450899-157.091221 68.030711-17.030014 7.374175zM739.644134 700.244188a260.535839 260.535839 0 0 1 11.552645 23.105289l50.334067-22.115651a316.519087 316.519087 0 0 0-14.006121-27.991625c-58.484832-103.740134-173.207195-166.808913-292.121772-160.63055-118.151732 6.11651-225.293745 80.153772-272.961289 188.629047l50.334068 22.115651c39.379329-89.617181 127.876295-150.782282 225.458684-155.833557 98.228403-5.09251 193.075544 47.007785 241.409718 132.728268z" fill="#000000" /></svg>