<?xml version="1.0" standalone="no"?><!DOCTYPE svg PUBLIC "-//W3C//DTD SVG 1.1//EN" "http://www.w3.org/Graphics/SVG/1.1/DTD/svg11.dtd"><svg class="icon" width="32px" height="32.00px" viewBox="0 0 1024 1024" version="1.1" xmlns="http://www.w3.org/2000/svg"><path d="M934.643973 429.523329c0-38.946362-4.680161-76.793128-13.42196-113.052349a455.975517 455.975517 0 0 0-101.575302-137.43592c-76.93745-45.963168-167.571758-71.013369-263.800268-67.50153-265.511517 9.676456-472.89557 232.764134-463.225987 498.268779a481.829799 481.829799 0 0 0 17.483598 112.275758 455.948027 455.948027 0 0 0 82.243006 111.402953c75.226201 48.753396 164.905235 77.109262 261.22996 77.109262 265.683329 0 481.066953-215.383624 481.066953-481.066953zM649.662711 310.787436l38.870766 38.877638-61.646175 61.646174 61.646175 61.646175-38.877638 38.870765-100.523812-100.523812L649.655839 310.787436zM329.721128 349.671946l38.877637-38.877637L469.115705 411.318121 368.598765 511.841933l-38.877637-38.877638 61.646174-61.646174-61.646174-61.646175z m-47.770631 354.785074C265.415302 689.949208 256.556671 680.375839 229.066738 680.375839v-54.979866c48.107383 0 69.989369 20.933584 89.149853 37.757423 16.52145 14.507812 27.73047 24.094926 52.588241 24.094926s35.92247-9.587114 52.44392-24.094926c19.153611-16.823839 43.069852-37.757423 88.641288-37.757423 45.585181 0 69.46706 20.933584 88.620671 37.757423 16.528322 14.507812 27.462443 24.094926 52.33396 24.094926 24.864644 0 35.221477-9.587114 51.749799-24.094926 19.153611-16.823839 43.344752-37.757423 88.015892-37.757423v54.979866c-24.053691 0-35.214604 9.580242-51.736053 24.088054-19.160483 16.823839-42.719356 37.764295-88.304537 37.764295-45.578309 0-69.274631-20.940456-88.435114-37.764295C547.606336 689.949208 536.761557 680.375839 511.89004 680.375839c-24.857772 0-35.736913 9.580242-52.258362 24.088054-19.160483 16.823839-43.269154 37.764295-88.847463 37.764295-45.578309 0-69.68698-20.940456-88.847463-37.764295z" fill="#FFCE00" /><path d="M921.215141 316.47098a481.816054 481.816054 0 0 1 13.428832 113.052349c0 265.683329-215.383624 481.066953-481.066953 481.066953-96.324725 0-186.003758-28.348993-261.22996-77.109262 82.05745 81.590121 195.061691 132.089128 319.646068 132.089128 250.103409 0 453.57702-203.473611 453.57702-453.57702a450.903624 450.903624 0 0 0-44.348135-195.522148z" fill="#FFB100" /><path d="M555.846443 111.53353c96.235383-3.511839 186.862819 21.538362 263.807141 67.50153C738.743839 104.207463 630.61906 58.416107 511.993128 58.416107 261.889718 58.416107 58.416107 261.889718 58.416107 511.993128a450.731812 450.731812 0 0 0 51.687947 210.084939 481.829799 481.829799 0 0 1-17.483598-112.275758C82.950872 344.297664 290.334926 121.216859 555.846443 111.540403z" fill="#FFE454" /><path d="M511.993128 3.436242C231.575195 3.436242 3.436242 231.575195 3.436242 511.993128s228.138953 508.556886 508.556886 508.556885 508.556886-228.138953 508.556885-508.556885S792.41106 3.436242 511.993128 3.436242z m0 962.133906c-124.584376 0-237.588617-50.499007-319.646068-132.089128a456.037369 456.037369 0 0 1-82.243006-111.402953A450.766174 450.766174 0 0 1 58.416107 511.993128C58.416107 261.889718 261.889718 58.416107 511.993128 58.416107c118.625933 0 226.750711 45.798228 307.660456 120.618953a455.975517 455.975517 0 0 1 101.561557 137.43592 450.855517 450.855517 0 0 1 44.355007 195.522148c0 250.103409-203.473611 453.57702-453.57702 453.57702z" fill="#000000" /><path d="M511.97251 680.368966c24.871517 0 35.78502 9.580242 52.313342 24.088054 19.153611 16.823839 43.001128 37.764295 88.579437 37.764295s68.855409-20.940456 88.015892-37.764295c16.52145-14.507812 27.682362-24.088054 51.736054-24.088054v-54.979865c-44.671141 0-68.848537 20.933584-88.00902 37.757422-16.528322 14.507812-27.160054 24.094926-52.024698 24.094927-24.871517 0-35.64757-9.587114-52.16902-24.094927-19.160483-16.823839-42.932403-37.757423-88.510712-37.757422s-69.384591 20.933584-88.538201 37.757422c-16.52145 14.507812-27.421208 24.094926-52.285852 24.094927-24.857772 0-36.341691-9.587114-52.863141-24.094927-19.160483-16.823839-41.035597-37.757423-89.14298-37.757422v54.979865c27.489933 0 36.355436 9.580242 52.876886 24.088054 19.153611 16.823839 43.282899 37.764295 88.861208 37.764295s69.563275-20.940456 88.723758-37.764295c16.514577-14.507812 27.579275-24.088054 52.437047-24.088054zM368.605638 511.841933L469.115705 411.311248 368.598765 310.787436l-38.877637 38.88451 61.653046 61.639302-61.653046 61.646175zM688.533477 472.964295l-61.646175-61.653047 61.646175-61.639302-38.870766-38.88451L549.132027 411.318121 649.655839 511.841933z" fill="#000000" /></svg>