<?xml version="1.0" standalone="no"?><!DOCTYPE svg PUBLIC "-//W3C//DTD SVG 1.1//EN" "http://www.w3.org/Graphics/SVG/1.1/DTD/svg11.dtd"><svg class="icon" width="32px" height="32.00px" viewBox="0 0 1024 1024" version="1.1" xmlns="http://www.w3.org/2000/svg"><path d="M936.362094 429.523329c0-38.946362-4.680161-76.793128-13.42196-113.052349a455.975517 455.975517 0 0 0-101.575302-137.43592c-76.93745-45.963168-167.571758-71.013369-263.800268-67.50153-265.511517 9.676456-472.89557 232.764134-463.225987 498.268779a481.651114 481.651114 0 0 0 17.483597 112.275758 455.948027 455.948027 0 0 0 82.243007 111.402953c75.226201 48.753396 164.905235 77.109262 261.22996 77.109262 265.683329 0 481.066953-215.383624 481.066953-481.066953z m-252.563758-82.469799a54.979866 54.979866 0 1 1 0 109.959732 54.979866 54.979866 0 0 1 0-109.959732z m-340.18792 0a54.979866 54.979866 0 1 1 0 109.959732 54.979866 54.979866 0 0 1 0-109.959732zM182.684349 675.544483v-54.979866c30.926174 0 53.598497-24.039946 53.598497-53.598496 0-29.551678-22.672322-53.591624-53.598497-53.591624v-54.979866c54.979866 0 103.774497 43.681503 108.702067 99.149315 59.721879 58.038121 138.233128 89.850846 222.036188 89.850846 82.97149 0 162.094389-32.499973 221.314577-89.864591 4.941315-55.46094 52.725691-99.13557 107.705557-99.13557v54.979866c-27.489933 0-53.605369 24.039946-53.605369 53.591624s26.115436 53.598497 53.605369 53.598496v54.979866c-37.798658 0-75.494228-22.809772-94.311087-56.381852-66.051436 53.41294-148.665557 83.212027-234.709047 83.212027-86.978148 0-169.269262-29.214926-235.485638-83.115812-18.837477 33.523973-54.017718 56.285638-95.252617 56.285637z" fill="#FFCE00" /><path d="M922.933262 316.47098a481.816054 481.816054 0 0 1 13.428832 113.052349c0 265.683329-215.383624 481.066953-481.066953 481.066953-96.324725 0-186.003758-28.348993-261.22996-77.109262 82.05745 81.590121 195.061691 132.089128 319.646067 132.089128 250.103409 0 453.57702-203.473611 453.57702-453.57702a450.903624 450.903624 0 0 0-44.348134-195.522148z" fill="#FFB100" /><path d="M557.564564 111.53353c96.235383-3.511839 186.862819 21.538362 263.807141 67.50153C740.46196 104.214336 632.337181 58.416107 513.711248 58.416107 263.607839 58.416107 60.134228 261.889718 60.134228 511.993128a450.738685 450.738685 0 0 0 51.687946 210.084939 481.651114 481.651114 0 0 1-17.483597-112.275758C84.668993 344.297664 292.053047 121.216859 557.564564 111.540403z" fill="#FFE454" /><path d="M513.711248 3.436242C233.293315 3.436242 5.154362 231.575195 5.154362 511.993128s228.138953 508.556886 508.556886 508.556885 508.556886-228.138953 508.556886-508.556885S794.136054 3.436242 513.711248 3.436242z m0 962.133906c-124.584376 0-237.588617-50.499007-319.646067-132.089128a456.037369 456.037369 0 0 1-82.243007-111.402953A450.738685 450.738685 0 0 1 60.134228 511.993128C60.134228 261.889718 263.607839 58.416107 513.711248 58.416107c118.625933 0 226.750711 45.798228 307.660457 120.618953a455.975517 455.975517 0 0 1 101.561557 137.43592 450.855517 450.855517 0 0 1 44.355006 195.522148c0 250.103409-203.473611 453.57702-453.57702 453.57702z m373.485101-756.736c0.343624 0.419221 0.700993 0.838443 1.037745 1.264537l-1.037745-1.264537z" fill="#000000" /><path d="M343.610416 402.033396m-54.979866 0a54.979866 54.979866 0 1 0 109.959732 0 54.979866 54.979866 0 1 0-109.959732 0Z" fill="#000000" /><path d="M683.805208 402.033396m-54.979866 0a54.979866 54.979866 0 1 0 109.959732 0 54.979866 54.979866 0 1 0-109.959732 0Z" fill="#000000" /><path d="M513.711248 702.374658c86.04349 0 168.375839-29.80596 234.420403-83.2189 18.823732 33.578953 56.51243 56.381852 94.311087 56.381853v-54.979866c-27.489933 0-53.598497-24.039946-53.598496-53.598497 0-29.551678 26.108564-53.584752 53.598496-53.584751v-54.979866c-54.979866 0-102.619919 43.674631-107.554362 99.128698-59.22706 57.37149-138.487409 89.871463-221.465772 89.871463-83.80306 0-162.458631-31.819597-222.173638-89.857718-4.934443-55.46094-53.584752-99.142443-108.564617-99.142443v54.979866c30.926174 0 53.598497 24.039946 53.598497 53.591624s-22.672322 53.598497-53.598497 53.598496v54.979866c41.234899 0 76.559463-22.761664 95.390067-56.285637C344.304537 673.159732 426.733101 702.374658 513.718121 702.374658z" fill="#000000" /></svg>