<?xml version="1.0" standalone="no"?><!DOCTYPE svg PUBLIC "-//W3C//DTD SVG 1.1//EN" "http://www.w3.org/Graphics/SVG/1.1/DTD/svg11.dtd"><svg class="icon" width="32px" height="32.00px" viewBox="0 0 1024 1024" version="1.1" xmlns="http://www.w3.org/2000/svg"><path d="M934.643973 429.523329c0-38.946362-4.680161-76.793128-13.42196-113.052349a455.975517 455.975517 0 0 0-101.575302-137.43592c-76.93745-45.963168-167.571758-71.013369-263.800268-67.50153-265.511517 9.676456-472.89557 232.764134-463.225987 498.268779a481.651114 481.651114 0 0 0 17.483598 112.275758 455.948027 455.948027 0 0 0 82.243006 111.402953c75.226201 48.753396 164.905235 77.109262 261.22996 77.109262 265.683329 0 481.066953-215.383624 481.066953-481.066953zM284.053477 654.026738v-1.161449c0-10.123168 2.336644-19.882094 5.566711-28.967517-5.532349 0.962148-10.927248 1.491329-16.727624 1.491329-54.725584 0-98.936268-44.361879-98.936269-99.080591s44.423732-99.080591 99.149316-99.080591c28.905664 0 54.945503 12.384215 73.054496 32.12886l48.059276-48.038658-61.646175-61.646175 38.877638-38.88451L471.988403 411.318121 371.457718 511.841933l-0.316134-0.323007c0.721611 4.824483 1.099597 9.758926 1.099597 14.782712 0 14.597154-3.175087 28.445208-8.844886 40.925637 2.048-0.158067 4.109745-0.254282 6.19898-0.254282h284.78196c2.089235 0 4.157852 0.096215 6.205852 0.254282a98.716349 98.716349 0 0 1-8.851758-40.918765c0-5.030658 0.384859-9.965101 1.099597-14.789584l-0.316134 0.316134L551.99098 411.318121l100.523812-100.523812 38.877638 38.88451-61.646175 61.639302 48.038658 48.038658a98.812564 98.812564 0 0 1 73.027006-32.12886c54.718711 0 99.073718 44.361879 99.073719 99.080591s-44.355007 99.080591-99.073719 99.080591a106.52349 106.52349 0 0 1-17.600429-1.491329c3.230067 9.085423 4.425879 18.844349 4.425879 28.967517v1.168322c0 46.801611-36.444779 84.751463-83.253262 84.751463H369.595275c-46.801611 0-85.541799-37.94298-85.541798-84.751463z" fill="#FFCE00" /><path d="M921.215141 316.47098a481.816054 481.816054 0 0 1 13.428832 113.052349c0 265.683329-215.383624 481.066953-481.066953 481.066953-96.324725 0-186.003758-28.348993-261.22996-77.109262 82.05745 81.590121 195.061691 132.089128 319.646068 132.089128 250.103409 0 453.57702-203.473611 453.57702-453.57702a450.903624 450.903624 0 0 0-44.348135-195.522148z" fill="#FFB100" /><path d="M555.846443 111.53353c96.235383-3.511839 186.862819 21.538362 263.807141 67.50153C738.743839 104.214336 630.61906 58.416107 511.993128 58.416107 261.889718 58.416107 58.416107 261.889718 58.416107 511.993128a450.731812 450.731812 0 0 0 51.687947 210.084939 481.651114 481.651114 0 0 1-17.483598-112.275758C82.950872 344.297664 290.334926 121.216859 555.846443 111.540403z" fill="#FFE454" /><path d="M511.993128 3.436242C231.575195 3.436242 3.436242 231.575195 3.436242 511.993128s228.138953 508.556886 508.556886 508.556885 508.556886-228.138953 508.556885-508.556885S792.417933 3.436242 511.993128 3.436242z m0 962.133906c-124.584376 0-237.588617-50.499007-319.646068-132.089128a456.037369 456.037369 0 0 1-82.243006-111.402953A450.731812 450.731812 0 0 1 58.416107 511.993128C58.416107 261.889718 261.889718 58.416107 511.993128 58.416107c118.625933 0 226.750711 45.798228 307.660456 120.618953a455.975517 455.975517 0 0 1 101.561557 137.43592 450.855517 450.855517 0 0 1 44.355007 195.522148c0 250.103409-203.473611 453.57702-453.57702 453.57702z" fill="#000000" /><path d="M363.396295 567.227275a98.716349 98.716349 0 0 0 8.851759-40.918765c0-5.030658-0.384859-9.965101-1.099598-14.789584l-38.561503-38.561503 13.607517-13.607517a98.805691 98.805691 0 0 0-73.020134-32.128859c-54.725584 0-99.080591 44.361879-99.080591 99.080591s44.355007 99.080591 99.080591 99.08059c5.800376 0 11.483919-0.529181 17.016268-1.491329 11.037208-31.036134 39.262497-54.13455 73.205691-56.663624zM733.788779 623.897772c5.532349 0.955275 11.215893 1.491329 17.02314 1.491329 54.718711 0 99.073718-44.361879 99.073719-99.080591s-44.355007-99.080591-99.073719-99.080591c-28.905664 0-54.911141 12.384215-73.020134 32.12886l13.607517 13.607516-38.561503 38.554631c-0.721611 4.824483-1.10647 9.758926-1.10647 14.789584 0 14.597154 3.18196 28.445208 8.851758 40.925638 33.943195 2.522201 62.161611 25.620617 73.198819 56.663624z" fill="#FF9E00" /><path d="M371.148456 511.518926l0.316135 0.316134L471.98153 411.318121 371.457718 310.787436l-38.870765 38.88451 61.646175 61.639302-48.038658 48.038658-13.607517 13.607517zM677.791785 459.356779l-48.04553-48.045531 61.646175-61.639302-38.870766-38.88451L551.997852 411.318121l100.523812 100.530684 0.316135-0.323006 38.554631-38.554631z" fill="#000000" /><path d="M682.657503 654.026738v-1.161449c0-16.41149-11.855034-30.91243-28.273396-30.91243H369.595275c-16.41149 0-30.561933 14.50094-30.561933 30.91243v1.168322c0 16.41149 14.150443 29.771597 30.561933 29.771597h284.788832c16.41149 0 28.273396-13.360107 28.273396-29.771597z" fill="#FFFFFF" /><path d="M737.637369 654.026738v-1.161449c0-10.123168-1.18894-19.882094-4.425879-28.967517-11.037208-31.043007-38.973852-54.141423-72.917047-56.670497a74.752 74.752 0 0 0-5.910336-0.254282H369.595275c-2.082362 0-4.15098 0.096215-6.19898 0.254282-33.943195 2.529074-62.738899 25.62749-73.776107 56.670497-3.230067 9.085423-5.566711 18.844349-5.566711 28.967517v1.168322c0 46.801611 38.733315 84.751463 85.541798 84.751463h284.788832c46.801611 0 83.253262-37.949852 83.253262-84.751463z m-398.604027 0v-1.161449c0-16.41149 14.150443-30.91243 30.561933-30.91243h284.788832c16.41149 0 28.273396 14.50094 28.273396 30.91243v1.168322c0 16.41149-11.855034 29.771597-28.273396 29.771597H369.595275c-16.418362 0-30.561933-13.360107-30.561933-29.771597z" fill="#000000" /></svg>