<?xml version="1.0" standalone="no"?><!DOCTYPE svg PUBLIC "-//W3C//DTD SVG 1.1//EN" "http://www.w3.org/Graphics/SVG/1.1/DTD/svg11.dtd"><svg class="icon" width="32px" height="31.81px" viewBox="0 0 1030 1024" version="1.1" xmlns="http://www.w3.org/2000/svg"><path d="M928.214486 318.256432c-0.242162-1.037838-0.518919-2.068757-0.774918-3.099675a459.028757 459.028757 0 0 0-102.254703-138.37146c-77.457297-46.27373-168.704-71.493189-265.582703-67.957621-159.093622 5.798054-297.444324 87.711135-381.350054 209.435675H928.214486zM940.959135 428.966054c0-18.729514-1.120865-37.189189-3.19654-55.351351h-80.979027v58.810811c0 78.059243-63.626378 141.547243-141.837838 141.547243s-141.837838-63.750919-141.837838-142.121514v-58.23654h-117.621622v58.810811c0 78.059243-63.626378 141.547243-141.837838 141.547243s-141.837838-63.750919-141.837837-142.121514v-58.23654h-26.492541c-36.068324 70.912-55.171459 151.704216-52.071784 236.848432a485.085405 485.085405 0 0 0 17.60173 113.034379 459.028757 459.028757 0 0 0 82.798703 112.155675c75.734486 49.082811 166.019459 77.63027 262.995027 77.63027 267.478486 0 484.317405-216.838919 484.317405-484.317405zM247.960216 686.716541l46.495135-30.041946c42.281514 65.439135 113.504865 109.803243 190.519352 118.687135 98.809081 11.395459 197.528216-35.189622 251.475027-118.687135l46.488216 30.041946c-58.755459 90.928432-161.383784 145.684757-268.467892 145.684756-11.914378 0-23.87027-0.671135-35.846919-2.054919-93.267027-10.752-179.497514-64.442811-230.656-143.629837z" fill="#FFCE00" /><path d="M928.899459 318.256432c-0.491243-1.030919-0.96173-2.075676-1.452973-3.099675 0.249081 1.037838 0.525838 2.068757 0.768 3.106594h0.684973zM950.638703 373.607784h-12.876108c2.075676 18.176 3.196541 36.628757 3.19654 55.35827 0 267.478486-216.838919 484.317405-484.317405 484.317405-96.975568 0-187.260541-28.540541-262.995027-77.63027 82.611892 82.141405 196.379676 132.981622 321.805838 132.981622 251.793297 0 456.64173-204.848432 456.641729-456.64173 0-48.224865-7.541622-94.713081-21.455567-138.378378z" fill="#FFB100" /><path d="M145.318054 373.607784h-65.051676A454.981189 454.981189 0 0 0 58.810811 512a453.777297 453.777297 0 0 0 52.037189 211.504432 485.085405 485.085405 0 0 1-17.60173-113.034378C90.153514 525.332757 109.24973 444.526703 145.318054 373.621622zM559.602162 108.827676c96.885622-3.535568 188.125405 21.683892 265.589622 67.957621C743.735351 101.452108 634.88 55.351351 515.452541 55.351351 332.889946 55.351351 175.027892 163.058162 102.005622 318.256432h76.239567C262.157838 196.54573 400.508541 114.62573 559.602162 108.827676z" fill="#FFE454" /><path d="M515.452541 0C233.139892 0 3.459459 229.680432 3.459459 511.993081s229.680432 511.993081 511.993082 511.993081 511.993081-229.680432 511.993081-511.993081S797.765189 0 515.452541 0z m0 968.634811c-125.426162 0-239.193946-50.840216-321.805838-132.981622a459.118703 459.118703 0 0 1-82.798703-112.155675A453.811892 453.811892 0 0 1 58.810811 511.993081c0-48.224865 7.541622-94.713081 21.455567-138.378378h91.544217v58.23654c0 78.370595 63.626378 142.121514 141.837837 142.121514s141.837838-63.488 141.837838-141.540325v-58.824648h117.621622v58.243459c0 78.370595 63.626378 142.121514 141.837838 142.121514s141.837838-63.488 141.837838-141.540325v-58.824648H950.638703A454.981189 454.981189 0 0 1 972.09427 512c0 251.793297-204.848432 456.64173-456.641729 456.64173z m-413.446919-650.378379C175.027892 163.072 332.889946 55.351351 515.452541 55.351351c119.427459 0 228.282811 46.107676 309.739243 121.433946a459.028757 459.028757 0 0 1 102.247784 138.37146c0.498162 1.024 0.968649 2.075676 1.459891 3.106594H102.005622z" fill="#000000" /><path d="M514.476973 832.401297c107.084108 0 209.705514-54.763243 268.460973-145.684756l-46.488216-30.041946c-53.946811 83.497514-152.665946 130.082595-251.475027 118.687135-77.014486-8.876973-148.230919-53.248-190.519352-118.687135l-46.488216 30.041946c51.165405 79.187027 137.395892 132.877838 230.662919 143.636756 11.96973 1.376865 23.925622 2.048 35.84 2.048z" fill="#000000" /></svg>