<?xml version="1.0" standalone="no"?><!DOCTYPE svg PUBLIC "-//W3C//DTD SVG 1.1//EN" "http://www.w3.org/Graphics/SVG/1.1/DTD/svg11.dtd"><svg class="icon" width="32px" height="32.00px" viewBox="0 0 1024 1024" version="1.1" xmlns="http://www.w3.org/2000/svg"><path d="M817.935463 179.03506c-76.944322-45.963168-167.578631-71.013369-263.807141-67.50153-142.535302 5.195597-268.301745 71.913664-352.743946 173.667651h84.311624a168.87753 168.87753 0 0 1 150.129396 90.909208c19.56596-17.950926 45.729503-28.747597 74.449611-28.747597 28.64451 0 54.746201 10.741691 74.291543 28.610148a169.310497 169.310497 0 0 1 150.280591-90.778631H902.954953a456.497826 456.497826 0 0 0-85.01949-106.159249zM932.925852 429.523329c0-30.541315-2.893315-60.395383-8.343194-89.342282h-20.287571v113.395973c0 93.575732-75.872215 169.722846-169.447946 169.722846-92.606711 0-167.812295-74.057879-169.372349-166.286604h-0.536054c0-30.926174-24.527893-54.670604-54.663731-54.670604-30.142711 0-54.670604 23.74443-54.670604 54.670604h-0.817826c-1.560054 92.221852-77.624698 166.011705-170.231409 166.011704-93.568859 0-170.595651-75.872215-170.595651-169.447946v-13.236403a491.513128 491.513128 0 0 0-23.620725 169.461692c1.415732 38.836403 7.745289 76.415141 17.765369 112.268886a456.573423 456.573423 0 0 0 82.387329 111.402953c75.219329 48.753396 164.97396 77.109262 261.298684 77.109261 265.683329 0.006872 481.135678-215.376752 481.135678-481.06008z m-642.041127 268.39796l40.582013-37.08392a242.784215 242.784215 0 0 0 178.801396 78.87549 242.804832 242.804832 0 0 0 178.808269-78.87549l40.582013 37.090792c-56.196295 61.488107-136.16451 96.764564-219.390282 96.764564s-163.193987-35.276456-219.390282-96.764564z" fill="#FFCE00" /><path d="M930.018792 340.174174h-5.436134a482.874416 482.874416 0 0 1 8.343194 89.349155c0 265.683329-215.383624 481.066953-481.066953 481.066953-96.324725 0-186.003758-28.348993-261.229959-77.109262 82.05745 81.590121 195.061691 132.089128 319.646067 132.089128 250.103409 0 453.57702-203.473611 453.57702-453.57702a451.061691 451.061691 0 0 0-33.833235-171.812081z" fill="#FFB100" /><path d="M554.128322 111.53353c96.235383-3.511839 186.862819 21.538362 263.807141 67.50153C737.025718 104.214336 628.90094 58.416107 510.275007 58.416107c-167.537396 0-314.141208 91.314685-392.679947 226.778202h83.782443C285.826577 183.454067 411.59302 116.729128 554.128322 111.53353zM113.959517 440.340617V340.181047h-23.428296a451.061691 451.061691 0 0 0-33.833234 171.812081 450.731812 450.731812 0 0 0 51.687946 210.084939c-10.026953-35.853745-16.631409-73.425611-18.054014-112.275758a491.540617 491.540617 0 0 1 23.627598-169.461692z" fill="#FFE454" /><path d="M510.275007 3.436242C229.857074 3.436242 1.718121 231.575195 1.718121 511.993128s228.138953 508.556886 508.556886 508.556885 508.556886-228.138953 508.556886-508.556885S790.699812 3.436242 510.275007 3.436242z m0 962.133906c-124.584376 0-237.588617-50.499007-319.646067-132.089128a456.037369 456.037369 0 0 1-82.243007-111.402953A450.731812 450.731812 0 0 1 56.697987 511.993128a451.061691 451.061691 0 0 1 33.833234-171.812081h23.428296v113.395973c0 93.575732 77.019919 169.454819 170.595651 169.454819 92.599839 0 168.671356-73.803597 170.231409-166.018577h0.810953c0-30.926174 24.527893-54.670604 54.670604-54.670604s54.663732 23.74443 54.663732 54.670604h0.536053c1.566926 92.228725 76.765638 166.286604 169.372349 166.286604 93.568859 0 169.454819-76.140242 169.454819-169.715973V340.174174h25.716832a451.061691 451.061691 0 0 1 33.833235 171.812081c0.006872 250.103409-203.466738 453.57702-453.570147 453.57702z m224.572134-680.375839A169.310497 169.310497 0 0 0 584.573423 375.979812c-19.559087-17.868456-45.653906-28.610148-74.298416-28.610148-28.713235 0-54.883651 10.796671-74.442739 28.747598a168.87753 168.87753 0 0 0-150.129396-90.909208H117.59506C196.126926 149.730792 342.737611 58.416107 510.281879 58.416107c118.625933 0 226.750711 45.798228 307.660457 120.618953a456.67651 456.67651 0 0 1 85.01949 106.166121H734.847141z" fill="#000000" /><path d="M729.658416 697.921289l-40.582013-37.08392a242.804832 242.804832 0 0 1-178.808269 78.87549 242.784215 242.784215 0 0 1-178.801396-78.87549l-40.588886 37.090792c56.196295 61.488107 136.16451 96.764564 219.390282 96.764564s163.193987-35.276456 219.390282-96.764564z" fill="#000000" /></svg>