<?xml version="1.0" standalone="no"?><!DOCTYPE svg PUBLIC "-//W3C//DTD SVG 1.1//EN" "http://www.w3.org/Graphics/SVG/1.1/DTD/svg11.dtd"><svg class="icon" width="32px" height="31.81px" viewBox="0 0 1030 1024" version="1.1" xmlns="http://www.w3.org/2000/svg"><path d="M469.836108 913.096649c-90.478703-20.770595-158.187243-101.901838-158.187243-198.59373 0-112.377081 91.426595-203.803676 203.796757-203.803676 112.377081 0 203.803676 91.433514 203.803675 203.803676 0 67.687784-33.196973 127.744-84.134054 164.829405 179.151568-71.057297 305.843892-245.912216 305.843892-450.36627 0-39.209514-4.711784-77.312-13.512649-113.816216a459.028757 459.028757 0 0 0-102.261621-138.364541c-77.457297-46.27373-168.704-71.493189-265.582703-67.957621-132.296649 4.822486-250.243459 62.297946-334.474378 151.510486l87.752648-64.512 32.781838 44.592433-124.575135 91.585729-26.49254-36.040648c-67.251892 86.59027-105.651892 196.365838-101.348325 314.499459a485.085405 485.085405 0 0 0 17.60173 113.034379 459.028757 459.028757 0 0 0 82.798703 112.155675c75.734486 49.082811 166.019459 77.63027 262.995027 77.63027 4.41427 0 8.814703-0.069189 13.194378-0.18681z m248.181622-717.277406l124.575135 91.58573-32.781838 44.599351-124.575135-91.585729 32.788757-44.592433zM686.702703 342.486486a55.351351 55.351351 0 1 1-0.006919 110.702703 55.351351 55.351351 0 0 1 0-110.702703z m-397.837838 55.351352a55.351351 55.351351 0 1 1 110.702703 0 55.351351 55.351351 0 0 1-110.702703 0z" fill="#FFCE00" /><path d="M927.439568 315.156757a485.016216 485.016216 0 0 1 13.519567 113.809297c0 204.454054-126.692324 379.302054-305.843892 450.359351a202.641297 202.641297 0 0 1-119.669621 38.988109c-15.67827 0-30.927568-1.840432-45.609514-5.216865-4.386595 0.117622-8.780108 0.19373-13.194378 0.193729-96.975568 0-187.260541-28.547459-262.995027-77.63027 82.611892 82.134486 196.379676 132.981622 321.805838 132.981622 251.793297 0 456.64173-204.855351 456.641729-456.648649a453.929514 453.929514 0 0 0-44.647784-196.843243z" fill="#FFB100" /><path d="M194.594595 295.963676l-6.289298-8.558703 36.822487-27.066811c84.230919-89.212541 202.170811-146.694919 334.481297-151.517405 96.878703-3.528649 188.125405 21.690811 265.582703 67.96454C743.735351 101.459027 634.88 55.351351 515.452541 55.351351 263.659243 55.351351 58.810811 260.199784 58.810811 511.993081a453.777297 453.777297 0 0 0 52.037189 211.504433 485.085405 485.085405 0 0 1-17.60173-113.034379c-4.303568-118.133622 34.096432-227.909189 101.348325-314.499459z" fill="#FFE454" /><path d="M515.452541 0C233.139892 0 3.459459 229.680432 3.459459 511.993081s229.680432 511.993081 511.993082 511.993081 511.993081-229.680432 511.993081-511.993081S797.765189 0 515.452541 0z m0 968.634811c-125.426162 0-239.193946-50.840216-321.805838-132.981622a459.118703 459.118703 0 0 1-82.798703-112.155675A453.777297 453.777297 0 0 1 58.810811 511.993081C58.810811 260.199784 263.659243 55.351351 515.452541 55.351351c119.427459 0 228.282811 46.107676 309.739243 121.433946a459.028757 459.028757 0 0 1 102.247784 138.37146 453.881081 453.881081 0 0 1 44.654702 196.836324c0 251.793297-204.848432 456.64173-456.641729 456.64173z" fill="#000000" /><path d="M344.202378 397.830919m-55.351351 0a55.351351 55.351351 0 1 0 110.702703 0 55.351351 55.351351 0 1 0-110.702703 0Z" fill="#000000" /><path d="M686.695784 397.830919m-55.351352 0a55.351351 55.351351 0 1 0 110.702703 0 55.351351 55.351351 0 1 0-110.702703 0Z" fill="#000000" /><path d="M515.445622 566.057514c-81.850811 0-148.445405 66.587676-148.445406 148.445405 0 81.85773 66.587676 148.452324 148.445406 148.452324 81.85773 0 148.452324-66.594595 148.452324-148.452324 0-81.850811-66.594595-148.452324-148.452324-148.452324z" fill="#FFFFFF" /><path d="M719.249297 714.502919c0-112.377081-91.426595-203.803676-203.803675-203.803676-112.377081 0-203.796757 91.433514-203.796757 203.803676 0 96.691892 67.708541 177.816216 158.187243 198.59373a203.277838 203.277838 0 0 0 45.609514 5.209946 202.641297 202.641297 0 0 0 119.662702-38.98119c50.944-37.085405 84.140973-97.127784 84.140973-164.822486z m-203.803675 148.452324c-81.850811 0-148.445405-66.594595-148.445406-148.452324 0-81.850811 66.587676-148.452324 148.445406-148.452324 81.85773 0 148.452324 66.601514 148.452324 148.452324 0 81.85773-66.594595 148.452324-148.452324 148.452324zM809.831784 331.983568L685.263568 240.411676l32.774918-44.592433 124.575136 91.571892zM194.594595 295.963676l26.49254 36.040648 124.575135-91.585729-32.788756-44.592433-87.74573 64.512-36.822487 27.066811z" fill="#000000" /></svg>