<?xml version="1.0" standalone="no"?><!DOCTYPE svg PUBLIC "-//W3C//DTD SVG 1.1//EN" "http://www.w3.org/Graphics/SVG/1.1/DTD/svg11.dtd"><svg class="icon" width="32px" height="31.81px" viewBox="0 0 1030 1024" version="1.1" xmlns="http://www.w3.org/2000/svg"><path d="M942.688865 428.966054c0-39.209514-4.711784-77.312-13.512649-113.816216a459.056432 459.056432 0 0 0-102.261621-138.364541c-77.457297-46.27373-168.704-71.493189-265.582703-67.957621-267.305514 9.741838-476.090811 234.336865-466.355892 501.635459a485.085405 485.085405 0 0 0 17.60173 113.034379 459.028757 459.028757 0 0 0 82.798702 112.155675c75.734486 49.082811 166.019459 77.63027 262.995027 77.63027 267.478486 0 484.317405-216.838919 484.317406-484.317405z m-253.682162-86.486486a55.351351 55.351351 0 1 1 0 110.702702 55.351351 55.351351 0 0 1 0-110.702702z m-342.486487 0a55.351351 55.351351 0 1 1 0 110.702702 55.351351 55.351351 0 0 1 0-110.702702z m453.18227 312.50681c0 47.131676-38.040216 85.331027-84.964324 85.331027H317.322378c-46.924108 0-84.964324-38.199351-84.964324-85.324108v-2.331675C232.358054 605.543784 270.391351 567.351351 317.322378 567.351351h397.415784c46.924108 0 84.964324 38.192432 84.964324 85.324108v2.317838z" fill="#FFCE00" /><path d="M929.169297 315.149838a485.071568 485.071568 0 0 1 13.519568 113.816216c0 267.478486-216.838919 484.317405-484.317406 484.317405-96.975568 0-187.260541-28.540541-262.995027-77.63027 82.611892 82.141405 196.379676 132.981622 321.805838 132.981622 251.793297 0 456.64173-204.848432 456.64173-456.64173a453.95027 453.95027 0 0 0-44.647784-196.843243z" fill="#FFB100" /><path d="M561.331892 108.827676c96.885622-3.535568 188.125405 21.683892 265.589622 67.957621C745.465081 101.459027 636.60973 55.351351 517.18227 55.351351 265.388973 55.351351 60.540541 260.199784 60.540541 511.993081a453.777297 453.777297 0 0 0 52.037189 211.504433 485.085405 485.085405 0 0 1-17.60173-113.034379C85.241081 343.164541 294.026378 118.576432 561.331892 108.834595z" fill="#FFE454" /><path d="M517.18227 0C234.869622 0 5.189189 229.680432 5.189189 511.993081s229.680432 511.993081 511.993081 511.993081 511.993081-229.680432 511.993081-511.993081S799.494919 0 517.18227 0z m0 968.634811c-125.426162 0-239.193946-50.840216-321.805838-132.981622a459.118703 459.118703 0 0 1-82.798702-112.155675A453.777297 453.777297 0 0 1 60.540541 511.993081C60.540541 260.199784 265.388973 55.351351 517.18227 55.351351c119.427459 0 228.282811 46.107676 309.739244 121.433946a459.056432 459.056432 0 0 1 102.247783 138.364541 453.901838 453.901838 0 0 1 44.654703 196.843243c0 251.793297-204.848432 456.64173-456.64173 456.64173z" fill="#000000" /><path d="M744.351135 654.986378v-1.169297c0-16.522378-11.935135-31.121297-28.464432-31.121297H318.470919c-16.522378 0-30.768432 14.598919-30.768433 31.121297v1.176216c0 16.522378 14.246054 29.972757 30.768433 29.972757h397.415784c16.522378 0 28.464432-13.450378 28.464432-29.972757z" fill="#FFFFFF" /><path d="M799.702486 652.661622c0-47.117838-38.040216-85.317189-84.964324-85.31719H317.322378c-46.924108 0-84.971243 38.192432-84.971243 85.324109v2.317837c0 47.131676 38.040216 85.331027 84.971243 85.331027h397.415784c46.924108 0 84.964324-38.199351 84.964324-85.324108v-2.331675z m-512 2.331675v-1.176216c0-16.522378 14.246054-31.121297 30.768433-31.121297h397.415784c16.522378 0 28.464432 14.598919 28.464432 31.121297v1.176216c0 16.522378-11.935135 29.972757-28.464432 29.972757H318.470919c-16.529297 0-30.768432-13.450378-30.768433-29.972757z" fill="#000000" /><path d="M346.520216 397.830919m-55.351351 0a55.351351 55.351351 0 1 0 110.702703 0 55.351351 55.351351 0 1 0-110.702703 0Z" fill="#000000" /><path d="M689.006703 397.830919m-55.351352 0a55.351351 55.351351 0 1 0 110.702703 0 55.351351 55.351351 0 1 0-110.702703 0Z" fill="#000000" /></svg>