<?xml version="1.0" standalone="no"?><!DOCTYPE svg PUBLIC "-//W3C//DTD SVG 1.1//EN" "http://www.w3.org/Graphics/SVG/1.1/DTD/svg11.dtd"><svg class="icon" width="32px" height="32.00px" viewBox="0 0 1024 1024" version="1.1" xmlns="http://www.w3.org/2000/svg"><path d="M96.297235 530.136483c33.620188 56.986631 95.603114 95.245745 166.561503 95.245745 106.750282 0 193.288591-86.538309 193.288591-193.28859S369.60902 238.805047 262.858738 238.805047c-5.607946 0-11.133423 0.295517-16.617664 0.755973C165.661208 314.368 110.990604 416.300671 96.297235 530.143356z m190.615195-155.59302a54.979866 54.979866 0 1 1 0 109.959732 54.979866 54.979866 0 0 1 0-109.959732zM923.78545 327.755597c-34.376161-53.488537-94.359195-88.95055-162.671678-88.95055-106.750282 0-193.288591 86.538309-193.288591 193.288591s86.538309 193.288591 193.288591 193.28859c67.199141 0 126.357477-34.307436 160.994792-86.339007a482.46894 482.46894 0 0 0 12.535409-109.519892c0-34.92596-3.779866-68.958497-10.858523-101.767732z m-183.289128 156.747598a54.979866 54.979866 0 1 1 0.006873-109.959732 54.979866 54.979866 0 0 1 0 109.959732z" fill="#FFCE00" /><path d="M934.643973 429.523329c0 37.674953-4.343409 74.332779-12.528537 109.519892a192.340188 192.340188 0 0 0 32.286926-106.949583c0-10.226255-0.804081-20.260081-2.336644-30.060242a449.941477 449.941477 0 0 0-18.115866-56.471195 193.735302 193.735302 0 0 0-10.164402-17.806604 482.310872 482.310872 0 0 1 10.858523 101.767732z" fill="#FFB100" /><path d="M96.297235 530.136483c14.693369-113.835812 69.363973-215.768483 149.943839-290.56859-68.47055 5.834738-126.728591 47.330792-156.142819 105.870604a449.845262 449.845262 0 0 0-18.225825 56.801073 194.786792 194.786792 0 0 0-2.302282 29.854068 192.340188 192.340188 0 0 0 26.727087 98.042845z" fill="#FFE454" /><path d="M511.993128 3.436242C231.575195 3.436242 3.436242 231.575195 3.436242 511.993128s228.138953 508.556886 508.556886 508.556885 508.556886-228.138953 508.556885-508.556885S792.41106 3.436242 511.993128 3.436242z m-421.901745 342.002255c29.421101-58.539812 87.679141-100.035866 156.149691-105.877477 5.477369-0.460456 11.009718-0.755973 16.617664-0.755973 106.750282 0 193.288591 86.538309 193.288591 193.288591S369.60902 625.382228 262.858738 625.382228c-70.951517 0-132.941315-38.259114-166.561503-95.245745a192.34706 192.34706 0 0 1-26.727087-98.042845c0-10.15753 0.790336-20.122631 2.302282-29.854068a450.023946 450.023946 0 0 1 18.225825-56.807946z m861.974335 56.594899c1.525691 9.793289 2.336644 19.833987 2.336644 30.060242a192.360805 192.360805 0 0 1-32.286926 106.949583c-34.637315 52.038443-93.802523 86.339007-161.001664 86.339007-106.750282 0-193.288591-86.538309-193.288591-193.28859s86.538309-193.288591 193.288591-193.288591c68.312483 0 128.295517 35.462013 162.671678 88.95055 3.683651 5.738523 7.078658 11.676349 10.15753 17.813477a449.707812 449.707812 0 0 1 18.122738 56.464322z" fill="#000000" /><path d="M286.91243 429.523329m-54.979866 0a54.979866 54.979866 0 1 0 109.959731 0 54.979866 54.979866 0 1 0-109.959731 0Z" fill="#000000" /><path d="M740.503195 429.523329m-54.979866 0a54.979866 54.979866 0 1 0 109.959731 0 54.979866 54.979866 0 1 0-109.959731 0Z" fill="#000000" /></svg>