<?xml version="1.0" standalone="no"?><!DOCTYPE svg PUBLIC "-//W3C//DTD SVG 1.1//EN" "http://www.w3.org/Graphics/SVG/1.1/DTD/svg11.dtd"><svg class="icon" width="32px" height="31.81px" viewBox="0 0 1030 1024" version="1.1" xmlns="http://www.w3.org/2000/svg"><path d="M897.383784 626.155243H92.346811a484.096 484.096 0 0 0 16.771459 97.342271 459.028757 459.028757 0 0 0 82.798703 112.155675c75.734486 49.082811 166.019459 77.63027 262.995027 77.63027 197.258378 0 366.944865-117.932973 442.464865-287.135135z m-210.81946 29.958919c57.523892-7.984432 116.313946 4.843243 165.56973 36.130595l-29.668324 46.723459c-38.192432-24.25773-83.753514-34.220973-128.297514-28.035459-71.68 9.963243-132.566486 60.831135-155.101405 129.605189l-52.604541-17.235027c29.080216-88.714378 107.623784-154.340324 200.095135-167.188757zM823.462054 176.785297c-77.464216-46.27373-168.710919-71.493189-265.59654-67.957621-111.436108 4.061405-212.680649 45.478054-292.179028 111.754378l176.584649 45.076757-13.69254 53.62854-185.897514-47.456865 10.281514-40.288864a486.870486 486.870486 0 0 0-94.166487 114.390486h773.286054c-1.798919-10.378378-3.923027-20.639135-6.365405-30.78227a459.014919 459.014919 0 0 0-102.261622-138.364541zM598.853189 319.287351l-13.685621-53.62854 185.897513-47.456865 13.685622 53.62854-185.897514 47.456865z" fill="#FFCE00" /><path d="M932.082162 345.932108h7.015784a455.264865 455.264865 0 0 0-13.388108-30.775351c2.449297 10.136216 4.573405 20.403892 6.372324 30.78227zM897.383784 626.155243c-75.52 169.195243-245.213405 287.128216-442.464865 287.128216-96.982486 0-187.267459-28.540541-263.001946-77.63027 82.611892 82.141405 196.379676 132.981622 321.805838 132.981622 212.390054 0 391.375568-145.747027 442.201946-342.486487h-58.547892z" fill="#FFB100" /><path d="M71.527784 626.155243a453.715027 453.715027 0 0 0 37.590486 97.342271 484.255135 484.255135 0 0 1-16.771459-97.34919h-20.819027zM252.969514 231.541622l3.404108-13.339676 9.312864 2.387027a482.158703 482.158703 0 0 1 292.185946-111.761297c96.878703-3.528649 188.125405 21.683892 265.589622 67.96454C742.005622 101.459027 633.15027 55.351351 513.722811 55.351351c-193.238486 0-358.815135 120.659027-425.375135 290.580757H158.789189a486.870486 486.870486 0 0 1 94.166487-114.383567z" fill="#FFE454" /><path d="M513.722811 0C231.410162 0 1.72973 229.680432 1.72973 511.993081s229.680432 511.993081 511.993081 511.993081 511.993081-229.680432 511.993081-511.993081S796.042378 0 513.722811 0z m0 968.634811c-125.426162 0-239.193946-50.840216-321.805838-132.981622a459.118703 459.118703 0 0 1-82.798703-112.155675 453.535135 453.535135 0 0 1-37.597405-97.34919H955.917838c-50.819459 196.732541-229.804973 342.486486-442.195027 342.486487z m418.359351-622.702703H88.340757C154.914595 176.010378 320.484324 55.351351 513.72973 55.351351c119.427459 0 228.282811 46.107676 309.739243 121.433946a459.028757 459.028757 0 0 1 102.247784 138.37146 455.264865 455.264865 0 0 1 13.388108 30.78227h-7.015784z m-191.764757 140.108108a55.351351 55.351351 0 1 1-110.709621 0 55.351351 55.351351 0 0 1 110.702702 0z m-342.486486 0a55.351351 55.351351 0 1 1-110.709622 0 55.351351 55.351351 0 0 1 110.702703 0z" fill="#000000" /><path d="M342.472649 486.047135m-55.351352 0a55.351351 55.351351 0 1 0 110.702703 0 55.351351 55.351351 0 1 0-110.702703 0Z" fill="#FFFFFF" /><path d="M684.966054 486.047135m-55.351351 0a55.351351 55.351351 0 1 0 110.702702 0 55.351351 55.351351 0 1 0-110.702702 0Z" fill="#FFFFFF" /><path d="M252.969514 231.541622l-10.288433 40.288864 185.897514 47.456865 13.69254-53.62854-176.57773-45.076757-9.326702-2.380108zM771.078919 218.208865l13.69254 53.621621-185.890594 47.449946-13.685622-53.621621zM694.175135 710.932757c44.537081-6.178595 90.098162 3.784649 128.283676 28.042378l29.682162-46.730378c-49.262703-31.280432-108.052757-44.115027-165.576649-36.130595-92.485189 12.848432-171.028757 78.474378-200.095135 167.195676l52.597622 17.228108c22.534919-68.774054 83.421405-119.641946 155.101405-129.59827z" fill="#000000" /></svg>