<?xml version="1.0" standalone="no"?><!DOCTYPE svg PUBLIC "-//W3C//DTD SVG 1.1//EN" "http://www.w3.org/Graphics/SVG/1.1/DTD/svg11.dtd"><svg class="icon" width="32px" height="32.00px" viewBox="0 0 1024 1024" version="1.1" xmlns="http://www.w3.org/2000/svg"><path d="M934.643973 429.523329c0-38.946362-4.680161-76.793128-13.42196-113.052349a455.975517 455.975517 0 0 0-101.575302-137.43592c-76.93745-45.963168-167.571758-71.013369-263.800268-67.50153-265.511517 9.676456-472.89557 232.764134-463.225987 498.268779a481.651114 481.651114 0 0 0 17.483598 112.275758 455.948027 455.948027 0 0 0 82.243006 111.402953c75.226201 48.753396 164.905235 77.109262 261.22996 77.109262 265.683329 0 481.066953-215.383624 481.066953-481.066953z m-252.563758-85.90604a54.979866 54.979866 0 1 1 0 109.959731 54.979866 54.979866 0 0 1 0-109.959731z m-340.18792 0a54.979866 54.979866 0 1 1 0 109.959731 54.979866 54.979866 0 0 1 0-109.959731z m55.557155 412.348993V684.636779a318.175356 318.175356 0 0 1-151.723812-123.546631l46.457986-29.83345c42.004617 64.993074 112.887409 109.066309 189.391893 117.883705 98.152805 11.339597 196.271248-34.95345 249.862872-117.883705l45.633289 29.83345c-36.740295 56.869799-90.977933 99.479195-152.830282 123.251114v71.62502c0 62.525852-50.870121 113.395973-113.395973 113.395973-62.525852 0-113.395973-50.870121-113.395973-113.395973z" fill="#FFCE00" /><path d="M921.215141 316.47098a481.816054 481.816054 0 0 1 13.428832 113.052349c0 265.683329-215.383624 481.066953-481.066953 481.066953-96.324725 0-186.003758-28.348993-261.22996-77.109262 82.05745 81.590121 195.061691 132.089128 319.646068 132.089128 250.103409 0 453.57702-203.473611 453.57702-453.57702a450.903624 450.903624 0 0 0-44.348135-195.522148z" fill="#FFB100" /><path d="M555.846443 111.53353c96.235383-3.511839 186.862819 21.538362 263.807141 67.50153C738.743839 104.214336 630.61906 58.416107 511.993128 58.416107 261.889718 58.416107 58.416107 261.889718 58.416107 511.993128a450.738685 450.738685 0 0 0 51.687947 210.084939 481.651114 481.651114 0 0 1-17.483598-112.275758C82.950872 344.297664 290.334926 121.216859 555.846443 111.540403z" fill="#FFE454" /><path d="M511.993128 3.436242C231.575195 3.436242 3.436242 231.575195 3.436242 511.993128s228.138953 508.556886 508.556886 508.556885 508.556886-228.138953 508.556885-508.556885S792.417933 3.436242 511.993128 3.436242z m0 962.133906c-124.584376 0-237.588617-50.499007-319.646068-132.089128a456.037369 456.037369 0 0 1-82.243006-111.402953A450.738685 450.738685 0 0 1 58.416107 511.993128C58.416107 261.889718 261.889718 58.416107 511.993128 58.416107c118.625933 0 226.750711 45.798228 307.660456 120.618953a455.975517 455.975517 0 0 1 101.561557 137.43592 450.855517 450.855517 0 0 1 44.355007 195.522148c0 250.103409-203.473611 453.57702-453.57702 453.57702z" fill="#000000" /><path d="M341.892295 398.597154m-54.979865 0a54.979866 54.979866 0 1 0 109.959731 0 54.979866 54.979866 0 1 0-109.959731 0Z" fill="#000000" /><path d="M682.087087 398.597154m-54.979866 0a54.979866 54.979866 0 1 0 109.959732 0 54.979866 54.979866 0 1 0-109.959732 0Z" fill="#000000" /><path d="M510.845423 814.382389c32.211329 0 58.416107-26.204779 58.416107-58.416107v-55.832054c-17.181208 3.731758-38.77455 5.669799-58.814711 5.669799-11.834416 0-23.998711-0.666631-35.89498-2.041128a283.558658 283.558658 0 0 1-22.129396-3.360644v55.564027c0.006872 32.211329 26.211651 58.416107 58.42298 58.416107z" fill="#E36600" /><path d="M624.241396 755.966282V684.341262c61.852349-23.778792 116.124349-66.381315 152.871517-123.244242l-45.887571-29.847194C677.626846 614.193826 579.728322 660.486872 481.568644 649.147275c-76.497611-8.817396-147.167356-52.890631-189.171973-117.883705l-46.712268 29.83345c36.341691 56.244403 89.905826 99.534174 151.758174 123.546631v71.329503c0 62.525852 50.870121 113.395973 113.395973 113.395974 62.525852 0 113.395973-50.870121 113.395973-113.395974z m-171.812081-55.564027c6.872483 1.374497 15.078228 2.508456 22.411168 3.360644 11.896268 1.367624 23.483275 2.041128 35.324564 2.041128 20.033289 0 41.915275-1.93804 59.096483-5.676671v55.838926c0 32.211329-26.204779 58.416107-58.416107 58.416107-32.211329 0-58.416107-26.204779-58.416108-58.416107v-55.564027z" fill="#000000" /></svg>