<?xml version="1.0" standalone="no"?><!DOCTYPE svg PUBLIC "-//W3C//DTD SVG 1.1//EN" "http://www.w3.org/Graphics/SVG/1.1/DTD/svg11.dtd"><svg class="icon" width="32px" height="32.00px" viewBox="0 0 1024 1024" version="1.1" xmlns="http://www.w3.org/2000/svg"><path d="M935.503034 429.523329c0-38.946362-4.680161-76.793128-13.42196-113.052349a455.975517 455.975517 0 0 0-101.575302-137.43592c-76.93745-45.963168-167.571758-71.013369-263.800269-67.50153-265.511517 9.676456-472.89557 232.764134-463.225986 498.268779a481.829799 481.829799 0 0 0 17.483597 112.275758 455.948027 455.948027 0 0 0 82.243007 111.402953c75.226201 48.753396 164.905235 77.109262 261.22996 77.109262 265.683329 0 481.066953-215.383624 481.066953-481.066953zM679.207517 359.362148c37.771168 0 72.133584 18.713772 91.891973 50.06604l-46.499222 29.318013c-9.642094-15.284403-26.603383-24.404188-45.392751-24.404188-18.782497 0-35.750658 9.126658-45.379007 24.404188l-46.512966-29.324886c19.765262-31.338523 54.113933-50.052295 91.8851-50.052295zM342.751356 343.624161a54.979866 54.979866 0 1 1-0.006873 109.959732 54.979866 54.979866 0 0 1 0-109.959732z m11.834416 498.241289a112.708725 112.708725 0 0 1-50.389047-11.889396c-55.962631-27.888537-78.806765-96.111678-50.918228-152.067437l33.57208-67.36408a311.955758 311.955758 0 0 1-39.695463-49.447517l46.169342-29.840322c42.004617 64.993074 112.743087 109.066309 189.240698 117.890577 98.152805 11.339597 196.202523-34.960322 249.787276-117.890577l46.183087 29.840322c-58.368 90.311302-160.300671 144.707007-266.672967 144.707007-6.25396 0-12.528537-0.199302-18.809986-0.577289l-36.788403 73.824215c-19.813369 39.77106-59.996779 62.814497-101.678389 62.814497z" fill="#FFCE00" /><path d="M922.074201 316.47098a481.816054 481.816054 0 0 1 13.428833 113.052349c0 265.683329-215.383624 481.066953-481.066953 481.066953-96.324725 0-186.003758-28.348993-261.22996-77.109262 82.05745 81.590121 195.061691 132.089128 319.646067 132.089128 250.103409 0 453.57702-203.473611 453.57702-453.57702a450.903624 450.903624 0 0 0-44.348134-195.522148z" fill="#FFB100" /><path d="M556.705503 111.53353c96.235383-3.511839 186.862819 21.538362 263.807141 67.50153C739.602899 104.214336 631.478121 58.416107 512.852188 58.416107 262.748779 58.416107 59.275168 261.889718 59.275168 511.993128a450.738685 450.738685 0 0 0 51.687946 210.084939 481.829799 481.829799 0 0 1-17.483597-112.275758C83.809933 344.297664 291.193987 121.216859 556.705503 111.540403z" fill="#FFE454" /><path d="M512.852188 3.436242C232.434255 3.436242 4.295302 231.575195 4.295302 511.993128s228.138953 508.556886 508.556886 508.556885 508.556886-228.138953 508.556886-508.556885S793.270121 3.436242 512.852188 3.436242z m0 962.133906c-124.584376 0-237.588617-50.499007-319.646067-132.089128a456.037369 456.037369 0 0 1-82.243007-111.402953A450.738685 450.738685 0 0 1 59.275168 511.993128C59.275168 261.889718 262.748779 58.416107 512.852188 58.416107c118.625933 0 226.750711 45.798228 307.660456 120.618953a455.975517 455.975517 0 0 1 101.561557 137.43592 450.855517 450.855517 0 0 1 44.355007 195.522148c0 250.103409-203.473611 453.57702-453.57702 453.57702z" fill="#000000" /><path d="M342.751356 398.597154m-54.979866 0a54.979866 54.979866 0 1 0 109.959731 0 54.979866 54.979866 0 1 0-109.959731 0Z" fill="#000000" /><path d="M329.996027 647.229852l-27.503678 55.192913c-14.36349 28.830067-2.590926 63.969074 26.239141 78.339436 28.823195 14.36349 63.969074 2.604671 78.332564-26.232268l29.001879-58.189316a319.859114 319.859114 0 0 1-106.069906-49.103892z" fill="#E36600" /><path d="M493.066309 705.226738c6.274577 0.377987 12.549154 0.584161 18.809986 0.584161 106.372295 0 208.304966-54.395705 266.666094-144.713879l-46.176215-29.840322c-53.584752 82.930255-151.63447 129.230174-249.787275 117.890577-76.497611-8.824268-147.236081-52.897503-189.240698-117.890577l-46.169342 29.840322a311.914523 311.914523 0 0 0 39.695463 49.440644l-33.57208 67.370953c-27.881664 55.955758-5.03753 124.178899 50.918228 152.060564a112.708725 112.708725 0 0 0 50.389047 11.896269c41.681611 0 81.86502-23.043436 101.678389-62.807624l36.788403-73.831088z m-164.341692 75.528591c-28.823195-14.36349-40.588886-49.502497-26.225396-78.332564l27.503678-55.192913a319.790389 319.790389 0 0 0 106.056161 49.103893l-28.995006 58.196188c-14.36349 28.830067-49.516242 40.595758-78.332564 26.225396zM679.207517 414.342013c18.789369 0 35.75753 9.126658 45.392751 24.411061l46.499222-29.324886c-19.758389-31.352268-54.113933-50.06604-91.891973-50.059168-37.77804 0-72.126711 18.713772-91.891973 50.059168l46.506094 29.324886c9.635221-15.284403 26.59651-24.404188 45.385879-24.404188z" fill="#000000" /></svg>