<?xml version="1.0" standalone="no"?><!DOCTYPE svg PUBLIC "-//W3C//DTD SVG 1.1//EN" "http://www.w3.org/Graphics/SVG/1.1/DTD/svg11.dtd"><svg class="icon" width="32px" height="32.00px" viewBox="0 0 1024 1024" version="1.1" xmlns="http://www.w3.org/2000/svg"><path d="M936.362094 429.523329c0-38.946362-4.680161-76.793128-13.42196-113.052349a455.975517 455.975517 0 0 0-101.575302-137.43592c-76.93745-45.963168-167.571758-71.013369-263.800268-67.50153-265.511517 9.676456-472.89557 232.764134-463.225987 498.268779a481.829799 481.829799 0 0 0 17.483597 112.275758 455.948027 455.948027 0 0 0 82.243007 111.402953c75.226201 48.753396 164.905235 77.109262 261.22996 77.109262 265.683329 0 481.066953-215.383624 481.066953-481.066953z m-252.563758-82.469799a54.979866 54.979866 0 1 1 0 109.959732 54.979866 54.979866 0 0 1 0-109.959732z m-336.456162 17.181208h0.013745c37.771168 0 72.126711 17.999034 91.885101 49.34443l-46.375517 28.960644c-9.628349-15.27753-28.060349-24.582872-45.241557-24.582872v-0.08247c-20.61745 0-35.89498 9.07855-45.530201 24.35608l-46.567946-28.630765c19.758389-31.345396 54.045208-49.371919 91.816375-49.371919zM213.10196 684.870443c-7.862121 0-15.772349-0.865933-23.620725-2.645906l12.15055-53.619114c17.621047 3.98604 36.059919-1.553181 49.34443-14.837691 13.28451-13.28451 18.830604-31.730255 14.844564-49.351302l53.619114-12.143678c6.549477 28.905664 0.755973 58.677262-15.483705 83.115812 55.199785 74.085369 147.572832 114.571168 240.028349 103.884456 76.497611-8.824268 147.242953-52.897503 189.24757-117.890577l46.176215 29.83345c-50.828886 78.65557-136.480644 131.98604-229.121718 142.672751-11.889396 1.367624-23.771919 2.041128-35.599463 2.041128-97.754201 0-191.728537-45.963168-251.615356-123.505396a107.025181 107.025181 0 0 1-49.969825 12.446067z" fill="#FFCE00" /><path d="M922.933262 316.47098a481.816054 481.816054 0 0 1 13.428832 113.052349c0 265.683329-215.383624 481.066953-481.066953 481.066953-96.324725 0-186.003758-28.348993-261.22996-77.109262 82.05745 81.590121 195.061691 132.089128 319.646067 132.089128 250.103409 0 453.57702-203.473611 453.57702-453.57702a450.903624 450.903624 0 0 0-44.348134-195.522148z" fill="#FFB100" /><path d="M557.564564 111.53353c96.235383-3.511839 186.862819 21.538362 263.807141 67.50153C740.46196 104.207463 632.337181 58.416107 513.711248 58.416107 263.607839 58.416107 60.134228 261.889718 60.134228 511.993128a450.738685 450.738685 0 0 0 51.687946 210.084939 481.829799 481.829799 0 0 1-17.483597-112.275758C84.668993 344.297664 292.053047 121.216859 557.564564 111.540403z" fill="#FFE454" /><path d="M513.711248 3.436242C233.293315 3.436242 5.154362 231.575195 5.154362 511.993128s228.138953 508.556886 508.556886 508.556885 508.556886-228.138953 508.556886-508.556885S794.129181 3.436242 513.711248 3.436242z m0 962.133906c-124.584376 0-237.588617-50.499007-319.646067-132.089128a456.037369 456.037369 0 0 1-82.243007-111.402953A450.779919 450.779919 0 0 1 60.134228 511.993128C60.134228 261.889718 263.607839 58.416107 513.711248 58.416107c118.625933 0 226.750711 45.798228 307.660457 120.618953a455.975517 455.975517 0 0 1 101.561557 137.43592 450.855517 450.855517 0 0 1 44.355006 195.522148c0 250.103409-203.473611 453.57702-453.57702 453.57702z" fill="#000000" /><path d="M683.805208 402.033396m-54.979866 0a54.979866 54.979866 0 1 0 109.959732 0 54.979866 54.979866 0 1 0-109.959732 0Z" fill="#000000" /><path d="M347.342174 417.778255c18.796242 0 35.75753 9.126658 45.38588 24.404188l46.506094-28.610148c-19.751517-31.338523-54.10706-49.34443-91.885101-49.344429-37.77804 0-72.140456 18.005906-91.898846 49.344429l46.506094 28.967517c9.635221-15.27753 26.603383-24.754685 45.392752-24.754684zM514.673396 795.929772c11.834416 0 23.71694-0.666631 35.606336-2.041128 92.641074-10.686711 178.292832-64.024054 229.121718-142.672751l-46.183088-29.840323c-42.004617 64.999946-112.74996 109.066309-189.240698 117.890578-92.455517 10.686711-184.835436-29.799087-240.035221-103.877584 16.239678-24.431678 22.033181-54.210148 15.483705-83.115812l-53.619114 12.143678c3.98604 17.621047-1.560054 36.073664-14.844564 49.351302-13.28451 13.28451-31.723383 18.830604-49.337557 14.837691l-12.150551 53.619114a106.509745 106.509745 0 0 0 73.583678-9.800161c59.893691 77.542228 153.868027 123.505396 251.615356 123.505396z" fill="#000000" /></svg>