<?xml version="1.0" standalone="no"?><!DOCTYPE svg PUBLIC "-//W3C//DTD SVG 1.1//EN" "http://www.w3.org/Graphics/SVG/1.1/DTD/svg11.dtd"><svg class="icon" width="32px" height="32.00px" viewBox="0 0 1024 1024" version="1.1" xmlns="http://www.w3.org/2000/svg"><path d="M931.867307 427.1104c0-38.68672-4.64896-76.281173-13.33248-112.298667a452.93568 452.93568 0 0 0-100.898134-136.526506c-76.424533-45.656747-166.454613-70.53312-262.048426-67.05152-246.142293 8.97024-441.965227 202.594987-459.188907 442.791253 16.616107-18.0224 29.136213-29.94176 29.914453-30.685867l18.786987-17.803946 18.786987 17.810773c1.18784 1.1264 29.538987 28.091733 58.2656 63.249067 41.75872 51.11808 62.068053 91.777707 62.068053 124.299946 0 54.749867-31.80544 102.202027-77.892267 124.893867 72.226133 43.881813 156.986027 69.18144 247.678294 69.18144 263.912107 0 477.85984-213.947733 477.85984-477.866667z m-250.88 78.49984a54.613333 54.613333 0 1 1 0.006826-109.226667 54.613333 54.613333 0 0 1 0 109.226667z m-42.980694-265.91232l172.960427 74.89536-21.7088 50.121387-172.960427-74.902187 21.7088-50.121387zM234.8032 364.70784l-21.7088-50.11456L386.054827 239.684267l21.7088 50.121386-172.967254 74.89536z m53.6576 86.28224a54.613333 54.613333 0 1 1 109.226667 0 54.613333 54.613333 0 0 1-109.226667 0z m84.56192 283.921067l-40.318293-36.836694A243.493547 243.493547 0 0 1 512.034133 618.98752a243.46624 243.46624 0 0 1 179.316054 79.09376l-40.311467 36.84352a188.757333 188.757333 0 0 0-139.004587-61.323947 188.757333 188.757333 0 0 0-139.004586 61.323947z" fill="#FFCE00" /><path d="M918.528 314.804907a478.603947 478.603947 0 0 1 13.339307 112.298666c0 263.918933-213.947733 477.866667-477.85984 477.866667-90.692267 0-175.45216-25.306453-247.68512-69.18144-0.914773 0.45056-1.8432 0.873813-2.7648 1.303893 80.677547 75.89888 189.228373 122.49088 308.476586 122.49088 248.436053 0 450.553173-202.11712 450.553174-450.56a447.8976 447.8976 0 0 0-44.05248-194.218666z" fill="#FFB100" /><path d="M555.588267 111.233707c95.593813-3.4816 185.623893 21.394773 262.048426 67.05152C737.273173 103.970133 629.876053 58.477227 512.034133 58.477227c-248.436053 0-450.553173 202.110293-450.553173 450.546346 0 26.39872 2.307413 52.26496 6.683307 77.43488a726.05696 726.05696 0 0 1 28.235093-32.433493C113.616213 313.821867 309.445973 120.203947 555.588267 111.233707z" fill="#FFE454" /><path d="M512.034133 3.863893C233.485653 3.863893 6.867627 230.468267 6.867627 509.023573c0 47.786667 6.67648 94.050987 19.12832 137.89184C12.5952 671.17056 5.973333 692.353707 5.973333 710.894933c0 74.840747 59.419307 136.041813 133.556907 138.984107 92.419413 100.92544 225.191253 164.317867 372.503893 164.317867 278.54848 0 505.166507-226.618027 505.166507-505.166507 0-278.555307-226.618027-505.173333-505.166507-505.173333z m0 955.71968c-119.248213 0-227.79904-46.585173-308.476586-122.484053 0.9216-0.436907 1.850027-0.86016 2.7648-1.31072 46.093653-22.69184 77.892267-70.144 77.892266-124.900693 0-32.515413-20.302507-73.17504-62.068053-124.29312-28.719787-35.157333-57.070933-62.122667-58.2656-63.255894l-18.786987-17.810773-18.78016 17.803947c-0.77824 0.750933-13.298347 12.670293-29.92128 30.685866a726.05696 726.05696 0 0 0-28.235093 32.433494 451.611307 451.611307 0 0 1-6.683307-77.428054c0-248.436053 202.11712-450.553173 450.56-450.553173 117.835093 0 225.232213 45.492907 305.60256 119.814827a452.93568 452.93568 0 0 1 100.891307 136.51968 447.849813 447.849813 0 0 1 44.05248 194.218666c0.006827 248.436053-202.110293 450.56-450.546347 450.56zM60.586667 710.894933c0-29.607253 44.714667-87.63392 84.52096-129.18784 39.799467 41.51296 84.50048 99.51232 84.50048 129.18784 0 46.598827-37.90848 84.514133-84.507307 84.514134S60.586667 757.486933 60.586667 710.894933z" fill="#000000" /><path d="M343.074133 450.996907m-54.613333 0a54.613333 54.613333 0 1 0 109.226667 0 54.613333 54.613333 0 1 0-109.226667 0Z" fill="#000000" /><path d="M680.987307 450.996907m-54.613334 0a54.613333 54.613333 0 1 0 109.226667 0 54.613333 54.613333 0 1 0-109.226667 0Z" fill="#000000" /><path d="M789.251413 364.714667L616.30464 289.81248l21.701973-50.107733 172.946774 74.902186zM407.7568 289.798827L234.810027 364.701013l-21.701974-50.107733L386.054827 239.684267z" fill="#000000" /><path d="M145.1008 795.40224c46.598827 0 84.507307-37.90848 84.507307-84.514133 0-29.668693-44.701013-87.67488-84.50048-129.181014C105.30816 623.261013 60.586667 681.28768 60.586667 710.894933c0 46.592 37.90848 84.514133 84.514133 84.514134z" fill="#28E0FF" /><path d="M651.03872 734.917973l40.311467-36.836693A243.473067 243.473067 0 0 0 512.034133 618.98752a243.48672 243.48672 0 0 0-179.32288 79.09376l40.318294 36.84352a188.750507 188.750507 0 0 1 139.004586-61.323947 188.757333 188.757333 0 0 1 139.004587 61.323947z" fill="#000000" /></svg>